LibertinusSerif-SemBdIta.ufo
<glyph name="quotedbl" format="2">
	<unicode hex="0022"/>
	<advance width="363"/>
	<outline>
		<contour>
			<point x="139" y="416" type="line"/>
			<point x="174" y="421.333" type="line"/>
			<point x="246" y="609.333" type="line"/>
			<point x="246" y="621" type="line" smooth="yes"/>
			<point x="246" y="634"/>
			<point x="239.333" y="644.667"/>
			<point x="212.667" y="644.667" type="curve" smooth="yes"/>
			<point x="175" y="644.667"/>
			<point x="148.333" y="614.667"/>
			<point x="143.667" y="592" type="curve"/>
		</contour>
		<contour>
			<point x="269.333" y="416.333" type="line"/>
			<point x="304.333" y="421.667" type="line"/>
			<point x="376.333" y="609.333" type="line"/>
			<point x="376.333" y="620.333" type="line" smooth="yes"/>
			<point x="376.333" y="633.333"/>
			<point x="370" y="645"/>
			<point x="342.667" y="645" type="curve" smooth="yes"/>
			<point x="306" y="645"/>
			<point x="278.333" y="615"/>
			<point x="274.667" y="592.333" type="curve"/>
		</contour>
	</outline>
</glyph>
<glyph name="numbersign" format="2">
	<unicode hex="0023"/>
	<advance width="489"/>
	<outline>
		<contour>
			<point x="403.333" y="353.667" type="line"/>
			<point x="507.333" y="353.667" type="line"/>
			<point x="527.333" y="414" type="line"/>
			<point x="424" y="414" type="line"/>
			<point x="484.333" y="586" type="line"/>
			<point x="441.333" y="586" type="line"/>
			<point x="423.333" y="537.667"/>
			<point x="397.667" y="462.333"/>
			<point x="379.667" y="414" type="curve"/>
			<point x="282.333" y="414" type="line"/>
			<point x="344.667" y="586" type="line"/>
			<point x="298.667" y="586" type="line"/>
			<point x="281" y="537.667"/>
			<point x="254.333" y="462"/>
			<point x="237.333" y="414" type="curve"/>
			<point x="144.333" y="414" type="line"/>
			<point x="123.667" y="353.667" type="line"/>
			<point x="216.333" y="353.667" type="line"/>
			<point x="205.667" y="322.667"/>
			<point x="189.667" y="276.667"/>
			<point x="178.333" y="245.667" type="curve"/>
			<point x="85.3333" y="245.667" type="line"/>
			<point x="65.3333" y="185.667" type="line"/>
			<point x="157.333" y="185.667" type="line"/>
			<point x="96.6667" y="13.6667" type="line"/>
			<point x="142.333" y="13.6667" type="line"/>
			<point x="160.333" y="62"/>
			<point x="185.333" y="135.667"/>
			<point x="204" y="185.667" type="curve"/>
			<point x="301.333" y="185.667" type="line"/>
			<point x="239.667" y="13.6667" type="line"/>
			<point x="284" y="13.6667" type="line"/>
			<point x="301.333" y="61.6667"/>
			<point x="326.667" y="135.667"/>
			<point x="345.333" y="185.667" type="curve"/>
			<point x="449.333" y="185.667" type="line"/>
			<point x="469" y="245.667" type="line"/>
			<point x="365" y="245.667" type="line"/>
		</contour>
		<contour>
			<point x="321" y="245.667" type="line"/>
			<point x="224" y="245.667" type="line"/>
			<point x="235.333" y="276.667"/>
			<point x="252.333" y="322.667"/>
			<point x="263.667" y="353.667" type="curve"/>
			<point x="359" y="353.667" type="line"/>
		</contour>
	</outline>
</glyph>
<glyph name="dollar" format="2">
	<unicode hex="0024"/>
	<advance width="489"/>
	<outline>
		<contour>
			<point x="503.667" y="578" type="curve"/>
			<point x="482" y="580"/>
			<point x="465" y="585.333"/>
			<point x="443.333" y="589.667" type="curve"/>
			<point x="429" y="593"/>
			<point x="412.333" y="595.667"/>
			<point x="391.333" y="596.667" type="curve"/>
			<point x="410.333" y="672.333" type="line"/>
			<point x="398.667" y="672.333"/>
			<point x="382" y="671"/>
			<point x="372.333" y="669" type="curve"/>
			<point x="354.667" y="597" type="line"/>
			<point x="317.667" y="594.667"/>
			<point x="268" y="582"/>
			<point x="229.333" y="555" type="curve" smooth="yes"/>
			<point x="194.667" y="530.667"/>
			<point x="165.333" y="494.667"/>
			<point x="154.333" y="453.333" type="curve"/>
			<point x="152.667" y="448.667"/>
			<point x="151.667" y="444.333"/>
			<point x="151" y="439" type="curve"/>
			<point x="145" y="404.333"/>
			<point x="148.667" y="368.333"/>
			<point x="163" y="342.333" type="curve" smooth="yes"/>
			<point x="187.333" y="298.667"/>
			<point x="236" y="271.333"/>
			<point x="270" y="249.333" type="curve"/>
			<point x="217" y="28.6667" type="line"/>
			<point x="162" y="38.6667"/>
			<point x="125.667" y="90"/>
			<point x="124" y="159.667" type="curve"/>
			<point x="114.667" y="163"/>
			<point x="103.667" y="160.667"/>
			<point x="93" y="158" type="curve"/>
			<point x="90.6667" y="157.667"/>
			<point x="88.6667" y="157"/>
			<point x="85.6667" y="156.667" type="curve"/>
			<point x="74.6667" y="91.3333"/>
			<point x="72.3333" y="40.6667"/>
			<point name=".hr01" x="71.3333" y="5.66667" type="curve"/>
			<point x="87.6667" y="5.66667"/>
			<point x="93.6667" y="8.66667"/>
			<point x="105.333" y="7.33333" type="curve"/>
			<point x="126" y="4"/>
			<point x="149" y="-7.33333"/>
			<point x="208.333" y="-9.33333" type="curve"/>
			<point x="187.667" y="-92.3333" type="line"/>
			<point x="197.333" y="-92.3333"/>
			<point x="216.667" y="-91.6667"/>
			<point name=".hr02" x="225" y="-89" type="curve"/>
			<point name=".hr03" x="245" y="-9.66667" type="line"/>
			<point x="294.333" y="-8.33333"/>
			<point x="338.333" y="6.33333"/>
			<point x="375.333" y="34" type="curve"/>
			<point x="421.333" y="66.3333"/>
			<point x="453.333" y="117"/>
			<point x="463.667" y="164.333" type="curve" smooth="yes"/>
			<point x="464" y="166" type="line" smooth="yes"/>
			<point x="473.333" y="213"/>
			<point x="459" y="243.333"/>
			<point x="438.333" y="272" type="curve" smooth="yes"/>
			<point x="412.333" y="308.667"/>
			<point x="367.667" y="333.667"/>
			<point x="338" y="350.333" type="curve"/>
			<point x="336.333" y="351.667"/>
			<point x="334.667" y="352"/>
			<point x="333" y="353" type="curve"/>
			<point x="382" y="559" type="line"/>
			<point x="427" y="548.667"/>
			<point x="442" y="508.333"/>
			<point x="447.333" y="457" type="curve" smooth="yes"/>
			<point x="448.333" y="448.333"/>
			<point x="448.333" y="439.667"/>
			<point x="449.333" y="431.667" type="curve"/>
			<point x="459.667" y="429.333"/>
			<point x="477.333" y="430.667"/>
			<point x="487.667" y="436.333" type="curve"/>
			<point x="494.667" y="485.333"/>
			<point x="498" y="527"/>
		</contour>
		<contour>
			<point x="301.333" y="227.667" type="line"/>
			<point x="333" y="203.667"/>
			<point x="367.333" y="170.333"/>
			<point x="355.333" y="113.667" type="curve" smooth="yes"/>
			<point x="344.333" y="62"/>
			<point x="298.667" y="34"/>
			<point x="253.667" y="28" type="curve"/>
		</contour>
		<contour>
			<point name=".hr04" x="301.667" y="375" type="line"/>
			<point x="273.333" y="398.333"/>
			<point x="243.667" y="432.333"/>
			<point x="251.333" y="472" type="curve" smooth="yes"/>
			<point x="262.667" y="523.667"/>
			<point x="302.667" y="556.333"/>
			<point x="346" y="561.667" type="curve"/>
		</contour>
	</outline>
</glyph>
<glyph name="ampersand" format="2">
	<unicode hex="0026"/>
	<advance width="721"/>
	<outline>
		<contour>
			<point x="603.333" y="365" type="curve"/>
			<point x="592" y="337"/>
			<point x="541" y="271.333"/>
			<point x="481" y="203.333" type="curve"/>
			<point x="476" y="203.333"/>
			<point x="469.667" y="207.667"/>
			<point x="466" y="215" type="curve" smooth="yes"/>
			<point x="422.667" y="302.667"/>
			<point x="406.667" y="343.333"/>
			<point x="398.333" y="368" type="curve"/>
			<point x="396.667" y="371"/>
			<point x="396.333" y="372.667"/>
			<point x="395" y="375.333" type="curve"/>
			<point x="476.333" y="415"/>
			<point x="555.333" y="465.333"/>
			<point x="571" y="536" type="curve"/>
			<point x="573" y="543"/>
			<point x="573.333" y="551"/>
			<point x="573.333" y="558" type="curve"/>
			<point x="572" y="605"/>
			<point x="536" y="648.667"/>
			<point x="468.333" y="650.333" type="curve"/>
			<point x="463.333" y="650.667"/>
			<point x="458.667" y="650.667"/>
			<point x="453.667" y="650.667" type="curve"/>
			<point x="402" y="648.667"/>
			<point x="348.667" y="628.333"/>
			<point x="315.667" y="595.667" type="curve" smooth="yes"/>
			<point x="285.333" y="566.333"/>
			<point x="264.333" y="529.333"/>
			<point x="258.333" y="496" type="curve"/>
			<point x="257.667" y="494"/>
			<point x="257.667" y="492"/>
			<point x="257" y="490" type="curve"/>
			<point x="250.333" y="449.333"/>
			<point x="259" y="414"/>
			<point x="286" y="358.333" type="curve"/>
			<point x="144.333" y="289.667"/>
			<point x="86.6667" y="226"/>
			<point x="73.3333" y="148" type="curve" smooth="yes"/>
			<point x="71.6667" y="138.333"/>
			<point x="70.3333" y="129"/>
			<point x="70.3333" y="119.667" type="curve"/>
			<point x="68.3333" y="79.3333"/>
			<point x="79.6667" y="47.6667"/>
			<point x="102.333" y="27" type="curve" smooth="yes"/>
			<point x="130.333" y="1"/>
			<point x="175.333" y="-9"/>
			<point x="224" y="-9.66667" type="curve"/>
			<point x="229.333" y="-9.66667"/>
			<point x="234.333" y="-9.66667"/>
			<point x="239.333" y="-9.66667" type="curve"/>
			<point x="313.333" y="-7"/>
			<point x="371.667" y="27.6667"/>
			<point x="421.333" y="75.3333" type="curve"/>
			<point x="430.667" y="55"/>
			<point x="441.667" y="40.3333"/>
			<point x="453" y="28.6667" type="curve"/>
			<point x="476" y="2.66667"/>
			<point x="502" y="-5.33333"/>
			<point x="526" y="-7.66667" type="curve" smooth="yes"/>
			<point x="541.333" y="-9.33333"/>
			<point x="555.667" y="-7.66667"/>
			<point x="570.333" y="-4.33333" type="curve" smooth="yes"/>
			<point x="600" y="3"/>
			<point x="633.333" y="27"/>
			<point x="665" y="72" type="curve"/>
			<point x="661" y="82.3333"/>
			<point x="652" y="93"/>
			<point x="644.667" y="94" type="curve"/>
			<point x="618" y="59.3333"/>
			<point x="596.667" y="49.6667"/>
			<point x="575" y="49" type="curve"/>
			<point x="572.333" y="49"/>
			<point x="569.333" y="49"/>
			<point x="566.333" y="49.3333" type="curve" smooth="yes"/>
			<point x="549" y="51.3333"/>
			<point x="533.333" y="73"/>
			<point x="519.333" y="103.667" type="curve"/>
			<point x="511" y="120.667"/>
			<point x="504.333" y="139"/>
			<point x="496.667" y="156" type="curve"/>
			<point x="557.333" y="231"/>
			<point x="640.333" y="336.333"/>
			<point x="651" y="348.333" type="curve" smooth="yes"/>
			<point x="674.667" y="376.333"/>
			<point x="692" y="392"/>
			<point x="711" y="396.667" type="curve" smooth="yes"/>
			<point x="718.667" y="398.667"/>
			<point x="726.667" y="400"/>
			<point x="734.333" y="400" type="curve" smooth="yes"/>
			<point x="739.667" y="400"/>
			<point x="744.667" y="403.333"/>
			<point x="745.667" y="408.667" type="curve" smooth="yes"/>
			<point x="750" y="429.333" type="line"/>
			<point x="749" y="431.333" type="line"/>
			<point x="749" y="431.333"/>
			<point x="703" y="429.667"/>
			<point x="672.333" y="429.333" type="curve"/>
			<point x="667" y="429.333"/>
			<point x="661.333" y="429.333"/>
			<point x="655.667" y="429.333" type="curve"/>
			<point x="620.333" y="430"/>
			<point x="574.333" y="431.333"/>
			<point x="574.333" y="431.333" type="curve"/>
			<point x="570.333" y="428.667" type="line"/>
			<point x="566" y="407" type="line"/>
			<point x="565.667" y="404"/>
			<point x="567" y="400"/>
			<point x="571" y="400" type="curve"/>
			<point x="580.333" y="399.333"/>
			<point x="589.333" y="398.667"/>
			<point x="596.667" y="396.667" type="curve"/>
			<point x="608.333" y="392.667"/>
			<point x="612.667" y="382.667"/>
		</contour>
		<contour>
			<point x="301" y="324.667" type="curve"/>
			<point x="313.667" y="290.333"/>
			<point x="364" y="180.333"/>
			<point x="399" y="114" type="curve"/>
			<point x="349.333" y="60.6667"/>
			<point x="312.667" y="33"/>
			<point x="263" y="29.6667" type="curve"/>
			<point x="256.333" y="29"/>
			<point x="250.667" y="29.3333"/>
			<point x="244" y="29.6667" type="curve" smooth="yes"/>
			<point x="209.333" y="32"/>
			<point x="182" y="69.3333"/>
			<point x="180" y="124" type="curve"/>
			<point x="180" y="140.667"/>
			<point x="181.667" y="158"/>
			<point x="185.333" y="173.667" type="curve" smooth="yes"/>
			<point x="199.667" y="233"/>
			<point x="237.667" y="281.333"/>
		</contour>
		<contour>
			<point x="362" y="525.333" type="curve"/>
			<point x="364" y="546.667"/>
			<point x="370" y="562.333"/>
			<point x="382.333" y="579.333" type="curve"/>
			<point x="397" y="601"/>
			<point x="420.333" y="611"/>
			<point x="438.667" y="611.667" type="curve"/>
			<point x="441.667" y="612"/>
			<point x="445" y="612"/>
			<point x="448" y="611.333" type="curve"/>
			<point x="473.667" y="608.667"/>
			<point x="489.333" y="589"/>
			<point x="492" y="561.333" type="curve" smooth="yes"/>
			<point x="492.667" y="552"/>
			<point x="492.667" y="540.333"/>
			<point x="488.667" y="526.333" type="curve" smooth="yes"/>
			<point x="479.667" y="492.333"/>
			<point x="439" y="451.333"/>
			<point x="381.333" y="413.333" type="curve"/>
			<point x="380.333" y="416"/>
			<point x="378.333" y="419"/>
			<point x="377.333" y="421.667" type="curve" smooth="yes"/>
			<point x="363.333" y="458.333"/>
			<point x="358.667" y="504.667"/>
		</contour>
	</outline>
</glyph>
<glyph name="quotesingle" format="2">
	<unicode hex="0027"/>
	<advance width="207"/>
	<outline>
		<contour>
			<point x="136" y="416" type="curve"/>
			<point x="162" y="421.333" type="line"/>
			<point x="162" y="421.333"/>
			<point x="231.333" y="593.667"/>
			<point x="234.333" y="609" type="curve" smooth="yes"/>
			<point x="237" y="621.333"/>
			<point x="237.667" y="635.333"/>
			<point x="211" y="636" type="curve"/>
			<point x="184.333" y="640.333"/>
			<point x="164" y="624"/>
			<point x="153.333" y="608.667" type="curve"/>
			<point x="142" y="604.667"/>
			<point x="129" y="482"/>
			<point x="128" y="474.667" type="curve"/>
			<point x="127.333" y="471.667"/>
			<point x="136" y="416"/>
		</contour>
	</outline>
</glyph>
<glyph name="parenleft" format="2">
	<unicode hex="0028"/>
	<advance width="312"/>
	<outline>
		<contour>
			<point x="96" y="252.667" type="curve" smooth="yes"/>
			<point x="92.3333" y="233"/>
			<point x="87.3333" y="202.333"/>
			<point x="86" y="164.667" type="curve" smooth="yes"/>
			<point x="84" y="111.333"/>
			<point x="88.3333" y="45.3333"/>
			<point x="111.333" y="-22.6667" type="curve"/>
			<point x="131.333" y="-88.6667"/>
			<point x="165.667" y="-151"/>
			<point x="219.333" y="-210" type="curve"/>
			<point x="249.667" y="-183" type="line"/>
			<point x="221" y="-140.667"/>
			<point x="188.333" y="-70"/>
			<point x="180.667" y="24.3333" type="curve"/>
			<point x="178" y="48.6667"/>
			<point x="176.333" y="75"/>
			<point x="177" y="102.333" type="curve" smooth="yes"/>
			<point x="177.667" y="147.667"/>
			<point x="183.333" y="197.667"/>
			<point x="194" y="252.667" type="curve" smooth="yes"/>
			<point x="210.333" y="334"/>
			<point x="235.333" y="405.667"/>
			<point x="266.333" y="468" type="curve"/>
			<point x="314.667" y="569.667"/>
			<point x="379.667" y="644.667"/>
			<point x="424" y="687" type="curve"/>
			<point x="406.333" y="715.667" type="line"/>
			<point x="324" y="653.333"/>
			<point x="257.667" y="577.667"/>
			<point x="209.667" y="509" type="curve" smooth="yes"/>
			<point x="154.667" y="430.333"/>
			<point x="114.667" y="343.667"/>
		</contour>
	</outline>
</glyph>
<glyph name="parenright" format="2">
	<unicode hex="0029"/>
	<advance width="314"/>
	<outline>
		<contour>
			<point x="325.333" y="251.333" type="curve" smooth="yes"/>
			<point x="329" y="271.667"/>
			<point x="334" y="301.667"/>
			<point x="335.333" y="339.333" type="curve" smooth="yes"/>
			<point x="337.333" y="392.667"/>
			<point x="333" y="458.667"/>
			<point x="310" y="526.667" type="curve"/>
			<point x="290" y="592.333"/>
			<point x="255.667" y="655"/>
			<point x="202" y="714" type="curve"/>
			<point x="171.667" y="687" type="line"/>
			<point x="200.333" y="644.667"/>
			<point x="233" y="574"/>
			<point x="240.667" y="479.667" type="curve"/>
			<point x="243.333" y="455"/>
			<point x="245" y="429"/>
			<point x="244.333" y="401.667" type="curve" smooth="yes"/>
			<point x="243.667" y="356.333"/>
			<point x="238" y="306.333"/>
			<point x="227.333" y="251.333" type="curve" smooth="yes"/>
			<point x="211" y="170"/>
			<point x="186" y="98.3333"/>
			<point x="155" y="36" type="curve"/>
			<point x="106.667" y="-65.6667"/>
			<point x="42.3333" y="-140.667"/>
			<point x="-2.66667" y="-183.333" type="curve"/>
			<point x="15" y="-211.667" type="line"/>
			<point x="98" y="-149.333"/>
			<point x="164.333" y="-73.6667"/>
			<point x="211.667" y="-5.33333" type="curve" smooth="yes"/>
			<point x="267.333" y="74.3333"/>
			<point x="307" y="160.333"/>
		</contour>
	</outline>
</glyph>
<glyph name="plus" format="2">
	<unicode hex="002B"/>
	<advance width="534"/>
	<outline>
		<contour>
			<point x="357.333" y="264.667" type="line"/>
			<point x="390" y="432" type="line"/>
			<point x="322.333" y="432" type="line"/>
			<point x="289" y="264.667" type="line"/>
			<point x="126.333" y="264.667" type="line"/>
			<point x="113.667" y="199" type="line"/>
			<point x="275.333" y="199" type="line"/>
			<point x="242.333" y="32.6667" type="line"/>
			<point x="310" y="32.6667" type="line"/>
			<point x="343.667" y="199" type="line"/>
			<point x="506" y="199" type="line"/>
			<point x="519" y="264.667" type="line"/>
		</contour>
	</outline>
</glyph>
<glyph name="two" format="2">
	<unicode hex="0032"/>
	<advance width="491"/>
	<outline>
		<contour>
			<point x="252.667" y="584.333" type="curve" smooth="yes"/>
			<point x="192.333" y="555"/>
			<point x="143" y="510.333"/>
			<point x="143" y="460" type="curve" smooth="yes"/>
			<point x="143" y="440"/>
			<point x="158.333" y="418"/>
			<point x="184.667" y="418" type="curve" smooth="yes"/>
			<point x="208.333" y="418"/>
			<point x="234" y="431"/>
			<point x="240.333" y="456.333" type="curve" smooth="yes"/>
			<point x="243" y="466.667"/>
			<point x="241.667" y="476.333"/>
			<point x="240.333" y="485" type="curve"/>
			<point x="239.667" y="491.333"/>
			<point x="238" y="498.667"/>
			<point x="238" y="504" type="curve" smooth="yes"/>
			<point x="238" y="509"/>
			<point x="238.667" y="513.333"/>
			<point x="241" y="518.333" type="curve"/>
			<point x="249.667" y="538.333"/>
			<point x="270.333" y="554"/>
			<point x="308.667" y="557.667" type="curve"/>
			<point x="316.333" y="559"/>
			<point x="325.333" y="559.667"/>
			<point x="334.667" y="559" type="curve"/>
			<point x="368.333" y="554.333"/>
			<point x="402.333" y="524.667"/>
			<point x="402.333" y="472" type="curve" smooth="yes"/>
			<point x="402.333" y="398.667"/>
			<point x="370" y="345"/>
			<point x="313" y="288.333" type="curve" smooth="yes"/>
			<point x="309" y="284.333"/>
			<point x="305" y="280.667"/>
			<point x="301" y="276.667" type="curve" smooth="yes"/>
			<point x="230" y="207" type="line"/>
			<point x="226" y="203.333" type="line"/>
			<point x="142.667" y="121.333"/>
			<point x="99" y="76"/>
			<point x="73" y="43.6667" type="curve"/>
			<point x="68.3333" y="39.6667" type="line"/>
			<point x="62" y="27.6667"/>
			<point x="59.3333" y="10.3333"/>
			<point x="61" y="-0.333333" type="curve"/>
			<point x="80.3333" y="-0.333333"/>
			<point x="116" y="0"/>
			<point x="145.333" y="0" type="curve" smooth="yes"/>
			<point x="318.333" y="0" type="line" smooth="yes"/>
			<point x="347.667" y="0"/>
			<point x="382" y="-0.333333"/>
			<point x="401.333" y="-0.333333" type="curve"/>
			<point x="421.667" y="42"/>
			<point x="446.667" y="115.333"/>
			<point x="459.333" y="153.333" type="curve"/>
			<point x="449.667" y="159"/>
			<point x="442" y="162.667"/>
			<point x="424" y="162.667" type="curve"/>
			<point x="392" y="97.3333"/>
			<point x="378.667" y="86"/>
			<point x="339.333" y="86" type="curve" smooth="yes"/>
			<point x="189.333" y="86" type="line"/>
			<point x="206" y="117.667"/>
			<point x="243.667" y="152.667"/>
			<point x="269.667" y="176.333" type="curve" smooth="yes"/>
			<point x="326.667" y="227" type="line" smooth="yes"/>
			<point x="346.333" y="244.667"/>
			<point x="365.333" y="261.333"/>
			<point x="382.333" y="277" type="curve" smooth="yes"/>
			<point x="460.667" y="346.333"/>
			<point x="512.333" y="400"/>
			<point x="515.333" y="480" type="curve" smooth="yes"/>
			<point x="515.667" y="485.667"/>
			<point x="515.667" y="491.667"/>
			<point x="515" y="496.667" type="curve"/>
			<point x="507.667" y="572"/>
			<point x="432.333" y="610"/>
			<point x="361" y="610" type="curve" smooth="yes"/>
			<point x="316.333" y="610"/>
			<point x="284.667" y="599.667"/>
		</contour>
	</outline>
</glyph>
<glyph name="six" format="2">
	<unicode hex="0036"/>
	<advance width="491"/>
	<outline>
		<contour>
			<point x="529.667" y="596" type="curve"/>
			<point x="530.333" y="608.667"/>
			<point x="528.333" y="619.667"/>
			<point x="522.667" y="628" type="curve"/>
			<point x="417.333" y="609.667"/>
			<point x="331" y="569.333"/>
			<point x="251.667" y="503" type="curve" smooth="yes"/>
			<point x="142" y="409.667"/>
			<point x="89.3333" y="274"/>
			<point x="89.3333" y="177.333" type="curve" smooth="yes"/>
			<point x="89.3333" y="43"/>
			<point x="173.667" y="-10"/>
			<point x="251" y="-10" type="curve" smooth="yes"/>
			<point x="390.667" y="-10"/>
			<point x="493" y="107"/>
			<point x="493" y="231.667" type="curve" smooth="yes"/>
			<point x="493" y="289"/>
			<point x="465" y="367.333"/>
			<point x="339.333" y="367.333" type="curve" smooth="yes"/>
			<point x="308.333" y="367.333"/>
			<point x="265" y="351"/>
			<point x="228.333" y="327" type="curve"/>
			<point x="250.333" y="397.333"/>
			<point x="294.667" y="460"/>
			<point x="344.333" y="500" type="curve" smooth="yes"/>
			<point x="407.333" y="550.667"/>
			<point x="464.333" y="577.667"/>
		</contour>
		<contour>
			<point x="216.333" y="289.667" type="curve"/>
			<point x="260" y="317.667"/>
			<point x="282.667" y="322"/>
			<point x="302.333" y="322" type="curve" smooth="yes"/>
			<point x="359.667" y="322"/>
			<point x="382" y="268.333"/>
			<point x="382" y="218.333" type="curve" smooth="yes"/>
			<point x="382" y="135.333"/>
			<point x="341.333" y="28"/>
			<point x="270" y="28" type="curve" smooth="yes"/>
			<point x="241.667" y="28"/>
			<point x="194" y="58"/>
			<point x="194" y="144.333" type="curve" smooth="yes"/>
			<point x="194" y="195.667"/>
			<point x="203.333" y="254.333"/>
		</contour>
	</outline>
</glyph>
<glyph name="colon" format="2">
	<unicode hex="003A"/>
	<advance width="244"/>
	<outline>
		<contour>
			<point x="89.3333" y="77" type="curve"/>
			<point x="77.3333" y="51.6667"/>
			<point x="90" y="20.6667"/>
			<point x="116.667" y="11.6667" type="curve" smooth="yes"/>
			<point x="143.333" y="3"/>
			<point x="172.667" y="17.6667"/>
			<point x="181.333" y="43" type="curve"/>
			<point x="193" y="69"/>
			<point x="180.667" y="99.6667"/>
			<point x="154" y="109.667" type="curve"/>
			<point x="127.333" y="118"/>
			<point x="98" y="103"/>
		</contour>
		<contour>
			<point x="150.667" y="376.667" type="curve"/>
			<point x="138.667" y="351.333"/>
			<point x="151.333" y="320.333"/>
			<point x="178" y="311.333" type="curve" smooth="yes"/>
			<point x="204.667" y="302.667"/>
			<point x="234" y="317.333"/>
			<point x="242.667" y="342.667" type="curve"/>
			<point x="254.333" y="368.667"/>
			<point x="242" y="399.333"/>
			<point x="215.333" y="409.333" type="curve"/>
			<point x="188.667" y="417.667"/>
			<point x="159.333" y="402.667"/>
		</contour>
	</outline>
</glyph>
<glyph name="semicolon" format="2">
	<unicode hex="003B"/>
	<advance width="244"/>
	<outline>
		<contour>
			<point x="146" y="116.333" type="curve" smooth="yes"/>
			<point x="119.667" y="116.333"/>
			<point x="83" y="90.6667"/>
			<point x="78" y="66.6667" type="curve"/>
			<point x="77" y="63.6667"/>
			<point x="77" y="60.6667"/>
			<point x="76.3333" y="57" type="curve"/>
			<point x="75" y="34.3333"/>
			<point x="86" y="14.3333"/>
			<point x="105" y="5.33333" type="curve"/>
			<point x="105.667" y="4.66667"/>
			<point x="106.333" y="4.66667"/>
			<point x="107.667" y="4" type="curve"/>
			<point x="119" y="0"/>
			<point x="136" y="-6.66667"/>
			<point x="133.333" y="-25.3333" type="curve" smooth="yes"/>
			<point x="130" y="-52"/>
			<point x="69.6667" y="-115"/>
			<point x="21.3333" y="-127" type="curve"/>
			<point x="15" y="-138.667"/>
			<point x="14.6667" y="-148"/>
			<point x="24" y="-155.333" type="curve"/>
			<point x="61.6667" y="-149"/>
			<point x="102.667" y="-127.333"/>
			<point x="132.333" y="-102.667" type="curve" smooth="yes"/>
			<point x="165.333" y="-75"/>
			<point x="193.667" y="-31"/>
			<point x="201" y="2.33333" type="curve" smooth="yes"/>
			<point x="203.667" y="15.3333"/>
			<point x="205.333" y="28.3333"/>
			<point x="206" y="39.6667" type="curve" smooth="yes"/>
			<point x="208" y="89.6667"/>
			<point x="184.333" y="116.333"/>
		</contour>
		<contour>
			<point x="126.333" y="357" type="curve" smooth="yes"/>
			<point name=".hr01" x="126.333" y="325.667"/>
			<point x="150.333" y="300.333"/>
			<point x="181.667" y="297" type="curve"/>
			<point x="185.333" y="296.333"/>
			<point x="189" y="296.333"/>
			<point x="192.667" y="296.667" type="curve"/>
			<point x="228.667" y="298"/>
			<point x="258" y="327.333"/>
			<point x="259.333" y="361" type="curve"/>
			<point x="259.667" y="364.667"/>
			<point x="259.667" y="368"/>
			<point x="259" y="371" type="curve"/>
			<point x="255.667" y="399.333"/>
			<point x="233" y="420.333"/>
			<point x="204.333" y="423.667" type="curve"/>
			<point x="200.667" y="424.333"/>
			<point x="197" y="424.333"/>
			<point x="193" y="424" type="curve"/>
			<point x="156" y="422.333"/>
			<point x="126.333" y="391.333"/>
		</contour>
	</outline>
</glyph>
<glyph name="less" format="2">
	<unicode hex="003C"/>
	<advance width="504"/>
	<outline>
		<contour>
			<point x="196" y="239.667" type="line"/>
			<point x="524.333" y="355.333" type="line"/>
			<point x="536" y="413.333" type="line"/>
			<point x="107" y="262.333" type="line"/>
			<point x="97.6667" y="217" type="line"/>
			<point x="466" y="65.6667" type="line"/>
			<point x="478" y="123.667" type="line"/>
		</contour>
	</outline>
</glyph>
<glyph name="equal" format="2">
	<unicode hex="003D"/>
	<advance width="543"/>
	<outline>
		<contour>
			<point x="540.667" y="321.333" type="line"/>
			<point x="136.667" y="321.333" type="line"/>
			<point x="125.667" y="267" type="line"/>
			<point x="529.667" y="267" type="line"/>
		</contour>
		<contour>
			<point x="516" y="196.333" type="line"/>
			<point x="112" y="196.333" type="line"/>
			<point x="101" y="142.667" type="line"/>
			<point x="505" y="142.667" type="line"/>
		</contour>
	</outline>
</glyph>
<glyph name="greater" format="2">
	<unicode hex="003E"/>
	<advance width="504"/>
	<outline>
		<contour>
			<point x="406.333" y="237.333" type="line"/>
			<point x="78.6667" y="121.667" type="line"/>
			<point x="67.3333" y="63.6667" type="line"/>
			<point x="496.333" y="214" type="line"/>
			<point x="505.667" y="259.333" type="line"/>
			<point x="137.333" y="411.333" type="line"/>
			<point x="125.667" y="353.333" type="line"/>
		</contour>
	</outline>
</glyph>
<glyph name="at" format="2">
	<unicode hex="0040"/>
	<advance width="935"/>
	<outline>
		<contour>
			<point x="620.333" y="78" type="curve"/>
			<point x="622.333" y="88.3333"/>
			<point x="635.333" y="118"/>
			<point x="646.333" y="144.333" type="curve" smooth="yes"/>
			<point x="756.333" y="399" type="line"/>
			<point x="737" y="408" type="line"/>
			<point x="691.667" y="381.667" type="line"/>
			<point x="682.667" y="393"/>
			<point x="666" y="401.667"/>
			<point x="634.333" y="399" type="curve"/>
			<point x="633" y="407.667"/>
			<point x="623.667" y="413.333"/>
			<point x="613.667" y="413.333" type="curve" smooth="yes"/>
			<point x="508.667" y="413.333"/>
			<point x="353.667" y="289.333"/>
			<point x="325.667" y="156.333" type="curve" smooth="yes"/>
			<point x="319.333" y="123.333"/>
			<point x="319" y="79.3333"/>
			<point x="343" y="53.3333" type="curve" smooth="yes"/>
			<point x="359" y="36"/>
			<point x="383.333" y="27"/>
			<point x="422.333" y="27" type="curve" smooth="yes"/>
			<point x="448.333" y="27"/>
			<point x="499.667" y="48.6667"/>
			<point x="545.333" y="101.333" type="curve"/>
			<point x="546" y="101" type="line"/>
			<point x="540.333" y="86.6667"/>
			<point x="536.667" y="73"/>
			<point x="536.333" y="63.3333" type="curve"/>
			<point x="535.667" y="52.6667"/>
			<point x="539" y="39.6667"/>
			<point name=".hr01" x="551" y="35" type="curve"/>
			<point name=".hr02" x="562.333" y="27"/>
			<point x="587" y="25.3333"/>
			<point x="611.667" y="25.6667" type="curve"/>
			<point x="753.333" y="31.6667"/>
			<point x="872.667" y="156.667"/>
			<point x="900.333" y="285.333" type="curve" smooth="yes"/>
			<point x="940.333" y="473.667"/>
			<point x="828.333" y="617.667"/>
			<point x="620.333" y="617.667" type="curve" smooth="yes"/>
			<point x="391.667" y="617.667"/>
			<point x="189.333" y="431.333"/>
			<point x="145" y="221.667" type="curve" smooth="yes"/>
			<point x="97" y="-1.33333"/>
			<point x="221.333" y="-159.333"/>
			<point x="443" y="-159.333" type="curve" smooth="yes"/>
			<point x="555.333" y="-159.333"/>
			<point x="621.333" y="-123.667"/>
			<point x="690" y="-75.6667" type="curve"/>
			<point x="678.333" y="-50.3333" type="line"/>
			<point x="612.667" y="-98.6667"/>
			<point x="543.667" y="-122.333"/>
			<point x="469.333" y="-122.333" type="curve" smooth="yes"/>
			<point x="240.667" y="-122.333"/>
			<point x="200.333" y="75.3333"/>
			<point x="229.333" y="223.333" type="curve" smooth="yes"/>
			<point x="231.667" y="235"/>
			<point x="234.333" y="246"/>
			<point x="237" y="257.667" type="curve"/>
			<point x="294" y="474.667"/>
			<point x="465.333" y="583"/>
			<point x="603.667" y="583" type="curve" smooth="yes"/>
			<point x="716" y="583"/>
			<point x="866" y="489.667"/>
			<point x="820" y="273.667" type="curve" smooth="yes"/>
			<point x="788.333" y="122.333"/>
			<point name=".hr03" x="687.333" y="64.6667"/>
			<point x="632" y="64.6667" type="curve" smooth="yes"/>
			<point x="624.667" y="64.6667"/>
			<point x="617.667" y="66"/>
		</contour>
		<contour>
			<point x="633.333" y="318.667" type="curve" smooth="yes"/>
			<point x="628" y="292.667"/>
			<point x="601.333" y="237"/>
			<point x="583.333" y="202.667" type="curve"/>
			<point x="580.667" y="198"/>
			<point x="578.333" y="193.333"/>
			<point x="575.667" y="189.333" type="curve"/>
			<point x="535" y="115.333"/>
			<point x="495.667" y="75.3333"/>
			<point x="468" y="72" type="curve"/>
			<point name=".hr04" x="466.667" y="71.3333"/>
			<point x="464.667" y="71.3333"/>
			<point x="463.333" y="71.3333" type="curve" smooth="yes"/>
			<point x="414" y="71.3333"/>
			<point x="413.667" y="116"/>
			<point x="423.667" y="163.333" type="curve" smooth="yes"/>
			<point x="436" y="223.333"/>
			<point x="463.667" y="286"/>
			<point x="514" y="334.333" type="curve" smooth="yes"/>
			<point x="518.333" y="338.333"/>
			<point x="522" y="342.333"/>
			<point x="526.333" y="345.667" type="curve"/>
			<point x="556" y="370.667"/>
			<point x="582.667" y="378.333"/>
			<point x="598" y="379.667" type="curve" smooth="yes"/>
			<point x="604" y="380.333"/>
			<point x="609" y="380"/>
			<point x="613.333" y="379.667" type="curve" smooth="yes"/>
			<point x="637.333" y="377.333"/>
			<point x="641" y="352.667"/>
		</contour>
	</outline>
</glyph>
<glyph name="A" format="2">
	<unicode hex="0041"/>
	<advance width="696"/>
	<outline>
		<contour>
			<point x="169.667" y="75" type="curve" smooth="yes"/>
			<point x="249.667" y="220" type="line" smooth="yes"/>
			<point x="256.667" y="233"/>
			<point x="263.667" y="237"/>
			<point x="286.667" y="237" type="curve" smooth="yes"/>
			<point x="474.667" y="237" type="line"/>
			<point x="495.667" y="81" type="line"/>
			<point x="497.667" y="69"/>
			<point x="498" y="63.6667"/>
			<point x="498" y="61.3333" type="curve" smooth="yes"/>
			<point x="498" y="45.6667"/>
			<point x="482.667" y="38"/>
			<point x="454.333" y="35.3333" type="curve" smooth="yes"/>
			<point x="419.667" y="32.3333" type="line"/>
			<point x="412.667" y="25.6667"/>
			<point x="410" y="4.33333"/>
			<point x="414" y="-2" type="curve"/>
			<point x="452" y="-1"/>
			<point x="525.667" y="0"/>
			<point x="566" y="0" type="curve" smooth="yes"/>
			<point x="606" y="0"/>
			<point x="647" y="-1"/>
			<point x="687.333" y="-2" type="curve"/>
			<point x="693.667" y="4.66667"/>
			<point x="697.667" y="23.6667"/>
			<point x="694" y="32.3333" type="curve"/>
			<point x="675.333" y="35.3333" type="line" smooth="yes"/>
			<point x="644" y="40.6667"/>
			<point x="621" y="56.3333"/>
			<point x="616.667" y="83.3333" type="curve" smooth="yes"/>
			<point x="526.333" y="658" type="line"/>
			<point x="521.667" y="658" type="line"/>
			<point x="509.667" y="649.333"/>
			<point x="447" y="624.333"/>
			<point x="437" y="624.333" type="curve"/>
			<point x="122" y="100" type="line"/>
			<point x="91.6667" y="47.3333"/>
			<point x="63" y="33"/>
			<point x="13.6667" y="32.3333" type="curve"/>
			<point x="7.33333" y="25"/>
			<point x="2.66667" y="6.66667"/>
			<point x="7" y="-2" type="curve"/>
			<point x="43" y="-1"/>
			<point x="58.6667" y="0"/>
			<point x="95.6667" y="0" type="curve" smooth="yes"/>
			<point x="134.667" y="0"/>
			<point x="187" y="-1"/>
			<point x="222" y="-2" type="curve"/>
			<point x="229" y="5.33333"/>
			<point x="232.667" y="25"/>
			<point x="228" y="32.3333" type="curve"/>
			<point x="202" y="35.3333" type="line" smooth="yes"/>
			<point x="179" y="38"/>
			<point x="165.333" y="45.6667"/>
			<point x="165.333" y="59.3333" type="curve" smooth="yes"/>
			<point x="165.333" y="64.3333"/>
			<point x="166.667" y="69.6667"/>
		</contour>
		<contour>
			<point x="313.667" y="283" type="line" smooth="yes"/>
			<point x="297.667" y="283"/>
			<point x="290" y="285"/>
			<point x="290" y="290" type="curve" smooth="yes"/>
			<point x="290" y="292"/>
			<point x="291" y="294"/>
			<point x="292" y="296" type="curve"/>
			<point x="426.333" y="530" type="line"/>
			<point x="431" y="530" type="line"/>
			<point x="466.667" y="283" type="line"/>
		</contour>
	</outline>
	<anchor name="t.uni0302" x="479" y="740"/>
	<guideline x="588" y="86" angle="99.6337"/>
	<guideline x="437" y="622" angle="238.794"/>
	<guideline x="482" y="241" angle="278.415"/>
	<guideline x="317" y="3" angle="78"/>
	<guideline x="0" y="740" angle="0"/>
</glyph>
<glyph name="C" format="2">
	<unicode hex="0043"/>
	<advance width="655"/>
	<outline>
		<contour>
			<point x="362" y="-10" type="curve" smooth="yes"/>
			<point x="458.333" y="-10"/>
			<point x="553.333" y="36.3333"/>
			<point x="636" y="125.333" type="curve"/>
			<point x="633" y="134.333"/>
			<point x="622" y="144.333"/>
			<point x="611" y="144.333" type="curve"/>
			<point x="528" y="66.3333"/>
			<point x="448.667" y="38.6667"/>
			<point x="374.333" y="38.6667" type="curve" smooth="yes"/>
			<point x="272.333" y="38.6667"/>
			<point x="217" y="135.333"/>
			<point x="217" y="247" type="curve" smooth="yes"/>
			<point x="217" y="396"/>
			<point x="316.333" y="617"/>
			<point x="478.333" y="617" type="curve" smooth="yes"/>
			<point x="610.667" y="617"/>
			<point x="642.667" y="538.667"/>
			<point x="650.667" y="453" type="curve"/>
			<point x="659.667" y="450.333"/>
			<point x="678.667" y="452.667"/>
			<point x="689" y="457.667" type="curve"/>
			<point x="692.667" y="509.333"/>
			<point x="694.667" y="557.667"/>
			<point x="698" y="612.333" type="curve"/>
			<point x="648" y="616.667"/>
			<point x="614.333" y="658"/>
			<point x="501" y="658" type="curve" smooth="yes"/>
			<point x="273.667" y="658"/>
			<point x="89" y="462.333"/>
			<point x="89" y="240.333" type="curve" smooth="yes"/>
			<point x="89" y="74.3333"/>
			<point x="192" y="-10"/>
		</contour>
	</outline>
	<anchor name="t.uni0302" x="483" y="740"/>
</glyph>
<glyph name="D" format="2">
	<unicode hex="0044"/>
	<advance width="688"/>
	<outline>
		<contour>
			<point x="164.667" y="0.666667" type="curve" smooth="yes"/>
			<point x="202.333" y="0.666667"/>
			<point x="267.333" y="-2"/>
			<point x="325.667" y="-2" type="curve" smooth="yes"/>
			<point x="557.667" y="-2"/>
			<point x="715.333" y="154.667"/>
			<point x="715.333" y="383" type="curve" smooth="yes"/>
			<point x="715.333" y="561"/>
			<point x="589" y="646.333"/>
			<point x="422" y="646.333" type="curve" smooth="yes"/>
			<point x="374" y="646.333"/>
			<point x="327" y="645"/>
			<point x="279" y="645" type="curve" smooth="yes"/>
			<point x="235.333" y="645"/>
			<point x="171.667" y="646.667"/>
			<point x="151.333" y="647" type="curve"/>
			<point x="143" y="641.333"/>
			<point x="138.667" y="622"/>
			<point name=".hr01" x="144.667" y="614.667" type="curve"/>
			<point x="193.667" y="612"/>
			<point x="217.667" y="602"/>
			<point x="217.667" y="572" type="curve"/>
			<point x="127.333" y="106" type="line" smooth="yes"/>
			<point x="118" y="55.6667"/>
			<point x="99" y="32"/>
			<point x="32.6667" y="30.3333" type="curve"/>
			<point x="24.3333" y="23.6667"/>
			<point x="17.6667" y="5"/>
			<point x="25.3333" y="-2" type="curve"/>
			<point x="47.6667" y="-1.66667"/>
			<point x="126.333" y="0.666667"/>
		</contour>
		<contour>
			<point x="242.333" y="103.667" type="curve" smooth="yes"/>
			<point x="327.667" y="544" type="line" smooth="yes"/>
			<point x="337.333" y="592.333"/>
			<point x="367.333" y="607"/>
			<point name=".hr02" x="406.333" y="607" type="curve" smooth="yes"/>
			<point x="543.333" y="607"/>
			<point x="591" y="522"/>
			<point x="591" y="408.667" type="curve" smooth="yes"/>
			<point x="591" y="252.333"/>
			<point x="508.333" y="37.3333"/>
			<point x="325.333" y="37.3333" type="curve" smooth="yes"/>
			<point x="262" y="37.3333"/>
			<point x="239.333" y="45"/>
			<point x="239.333" y="78.6667" type="curve" smooth="yes"/>
			<point x="239.333" y="86"/>
			<point x="240.667" y="94"/>
		</contour>
	</outline>
</glyph>
<glyph name="K" format="2">
	<unicode hex="004B"/>
	<advance width="683"/>
	<outline>
		<contour>
			<point x="211.667" y="538.333" type="curve" smooth="yes"/>
			<point x="127.333" y="106.667" type="line"/>
			<point x="117" y="47"/>
			<point x="95" y="36"/>
			<point x="31.6667" y="30.3333" type="curve"/>
			<point x="23" y="25"/>
			<point x="19.6667" y="5"/>
			<point x="26.3333" y="-2" type="curve"/>
			<point x="64.6667" y="-1"/>
			<point x="117.333" y="0"/>
			<point x="157" y="0" type="curve" smooth="yes"/>
			<point x="169.333" y="0" type="line" smooth="yes"/>
			<point x="206.333" y="0"/>
			<point x="266.333" y="-1"/>
			<point x="304.667" y="-2" type="curve"/>
			<point x="313" y="3.33333"/>
			<point x="316" y="24.6667"/>
			<point x="309.667" y="30.3333" type="curve"/>
			<point x="263" y="35"/>
			<point x="238.667" y="42.6667"/>
			<point x="238.667" y="75.3333" type="curve" smooth="yes"/>
			<point x="238.667" y="84"/>
			<point x="240" y="94"/>
			<point x="242.333" y="106.667" type="curve" smooth="yes"/>
			<point x="326.667" y="538.333" type="line" smooth="yes"/>
			<point x="338.333" y="596"/>
			<point x="359.333" y="610.667"/>
			<point x="422.333" y="614.667" type="curve"/>
			<point x="431" y="620"/>
			<point x="434.333" y="640"/>
			<point x="427.667" y="647" type="curve"/>
			<point x="388.333" y="646"/>
			<point x="331.333" y="645"/>
			<point x="294.667" y="645" type="curve" smooth="yes"/>
			<point x="282.333" y="645" type="line" smooth="yes"/>
			<point x="243" y="645"/>
			<point x="186.667" y="646"/>
			<point x="149.333" y="647" type="curve"/>
			<point x="141" y="641.667"/>
			<point x="137.333" y="620.333"/>
			<point x="143.667" y="614.667" type="curve"/>
			<point x="193" y="611"/>
			<point x="215" y="597.667"/>
			<point x="215" y="569.667" type="curve" smooth="yes"/>
			<point x="215" y="561"/>
			<point x="214" y="550.667"/>
		</contour>
		<contour>
			<point x="261.333" y="308" type="line"/>
			<point x="303.667" y="311.333"/>
			<point x="320" y="301.667"/>
			<point x="337" y="271" type="curve" smooth="yes"/>
			<point x="447.667" y="73.6667" type="line" smooth="yes"/>
			<point x="457.667" y="56"/>
			<point x="465" y="28"/>
			<point x="465" y="8" type="curve" smooth="yes"/>
			<point x="465" y="4"/>
			<point x="465.667" y="-1"/>
			<point x="469.333" y="-2" type="curve"/>
			<point x="485.333" y="-1"/>
			<point x="512.667" y="0"/>
			<point x="542.333" y="0" type="curve" smooth="yes"/>
			<point x="569" y="0" type="line" smooth="yes"/>
			<point x="599.333" y="0"/>
			<point x="629.333" y="-0.333333"/>
			<point x="663.333" y="-2" type="curve"/>
			<point x="669" y="3"/>
			<point x="673.333" y="21.6667"/>
			<point x="669" y="29.6667" type="curve"/>
			<point x="633.667" y="36.3333"/>
			<point x="619.333" y="43"/>
			<point x="599.333" y="73.6667" type="curve"/>
			<point x="439.333" y="333" type="line" smooth="yes"/>
			<point x="433" y="343"/>
			<point x="423.667" y="359.667"/>
			<point x="423.667" y="368.333" type="curve" smooth="yes"/>
			<point x="423.667" y="379.333"/>
			<point x="430" y="390"/>
			<point x="444.667" y="402" type="curve" smooth="yes"/>
			<point x="621.333" y="549.333" type="line" smooth="yes"/>
			<point x="668.667" y="589"/>
			<point x="707.333" y="608.333"/>
			<point x="756.667" y="614.667" type="curve"/>
			<point x="764.333" y="619.333"/>
			<point x="767.333" y="639.667"/>
			<point x="765" y="647" type="curve"/>
			<point x="722" y="646"/>
			<point x="712.333" y="645"/>
			<point x="678" y="645" type="curve" smooth="yes"/>
			<point x="663.667" y="645" type="line" smooth="yes"/>
			<point x="628.667" y="645"/>
			<point x="598.333" y="645.667"/>
			<point x="557.333" y="647" type="curve"/>
			<point x="552.667" y="643.333"/>
			<point x="548" y="624"/>
			<point x="551" y="615.333" type="curve"/>
			<point x="585" y="612"/>
			<point x="596.667" y="607"/>
			<point x="596.667" y="594.667" type="curve" smooth="yes"/>
			<point x="596.667" y="582.333"/>
			<point x="584.333" y="565.667"/>
			<point x="549" y="537.333" type="curve" smooth="yes"/>
			<point x="355" y="379.333" type="line" smooth="yes"/>
			<point x="329" y="358.333"/>
			<point x="305.667" y="349.333"/>
			<point x="275.333" y="349" type="curve"/>
		</contour>
	</outline>
	<anchor name="t.uni0302" x="481" y="740"/>
	<guideline x="410" y="407" angle="42.6368"/>
</glyph>
<glyph name="P" format="2">
	<unicode hex="0050"/>
	<advance width="558"/>
	<outline>
		<contour>
			<point x="436.667" y="656.667" type="curve" smooth="yes"/>
			<point x="390.333" y="656.667"/>
			<point name=".hr01" x="331.667" y="646.333"/>
			<point x="280.667" y="646.333" type="curve" smooth="yes"/>
			<point x="227" y="646.333"/>
			<point x="176.333" y="646.667"/>
			<point x="151.333" y="647" type="curve"/>
			<point x="142" y="641.667"/>
			<point name=".hr02" x="137" y="618.667"/>
			<point name=".hr03" x="146" y="614.667" type="curve"/>
			<point x="182.333" y="611.333" type="line" smooth="yes"/>
			<point x="204.333" y="609"/>
			<point x="215.333" y="593.333"/>
			<point x="215.333" y="570" type="curve" smooth="yes"/>
			<point x="215.333" y="560.667"/>
			<point x="211.667" y="540"/>
			<point x="208.333" y="522.667" type="curve" smooth="yes"/>
			<point x="129" y="114.667" type="line"/>
			<point x="116.667" y="58"/>
			<point x="98.3333" y="34.3333"/>
			<point x="33.6667" y="30.3333" type="curve"/>
			<point x="23" y="26.3333"/>
			<point x="18.3333" y="3.66667"/>
			<point x="25.3333" y="-2" type="curve"/>
			<point x="69.6667" y="-1"/>
			<point x="119" y="0"/>
			<point x="165" y="0" type="curve" smooth="yes"/>
			<point x="203" y="0"/>
			<point x="265.667" y="-1"/>
			<point x="306" y="-2" type="curve"/>
			<point x="314.667" y="3.33333"/>
			<point x="319.333" y="26.3333"/>
			<point x="310" y="30.3333" type="curve"/>
			<point x="276.667" y="32"/>
			<point x="229" y="37"/>
			<point x="237" y="77.6667" type="curve" smooth="yes"/>
			<point x="323.667" y="523.333" type="line" smooth="yes"/>
			<point x="337.667" y="595.333"/>
			<point name=".hr04" x="353.667" y="618"/>
			<point x="406" y="618" type="curve" smooth="yes"/>
			<point x="456.333" y="618"/>
			<point x="507.667" y="598"/>
			<point x="507.667" y="518" type="curve" smooth="yes"/>
			<point x="507.667" y="420"/>
			<point x="466.333" y="318"/>
			<point x="353.667" y="318" type="curve" smooth="yes"/>
			<point x="326.667" y="318"/>
			<point x="312.333" y="319.667"/>
			<point x="291" y="324.333" type="curve"/>
			<point x="288" y="308"/>
			<point x="291" y="295"/>
			<point x="301" y="285.667" type="curve"/>
			<point x="318.667" y="280.667"/>
			<point x="331.333" y="278.667"/>
			<point x="351" y="278.667" type="curve" smooth="yes"/>
			<point x="497.333" y="278.667"/>
			<point x="633.333" y="357"/>
			<point x="633.333" y="518" type="curve" smooth="yes"/>
			<point x="633.333" y="616.333"/>
			<point x="548.667" y="656.667"/>
		</contour>
	</outline>
	<anchor name="t.uni0302" x="373.667" y="740"/>
</glyph>
<glyph name="S" format="2">
	<unicode hex="0053"/>
	<advance width="473"/>
	<outline>
		<contour>
			<point x="515" y="628.667" type="curve"/>
			<point x="457.333" y="639.667"/>
			<point x="426.333" y="658"/>
			<point x="364.667" y="658" type="curve" smooth="yes"/>
			<point x="240" y="658"/>
			<point x="133.333" y="577.333"/>
			<point x="133.333" y="450.667" type="curve" smooth="yes"/>
			<point x="133.333" y="372.333"/>
			<point x="184" y="324.333"/>
			<point x="251" y="282" type="curve" smooth="yes"/>
			<point x="280.333" y="263" type="line" smooth="yes"/>
			<point x="324" y="234.333"/>
			<point name=".hr01" x="356.667" y="202.667"/>
			<point x="356.667" y="149.333" type="curve" smooth="yes"/>
			<point x="356.667" y="75"/>
			<point x="302" y="30"/>
			<point x="229.333" y="30" type="curve" smooth="yes"/>
			<point x="158.333" y="30"/>
			<point x="103.333" y="79.6667"/>
			<point x="103.333" y="174.667" type="curve"/>
			<point x="99" y="176.333"/>
			<point x="94.3333" y="177.333"/>
			<point x="88.6667" y="177.333" type="curve" smooth="yes"/>
			<point x="79.6667" y="177.333"/>
			<point x="69.6667" y="175.333"/>
			<point x="60.6667" y="171.667" type="curve"/>
			<point x="50.3333" y="120"/>
			<point x="48.3333" y="58.3333"/>
			<point x="47.6667" y="8.33333" type="curve"/>
			<point x="103.667" y="8.33333"/>
			<point x="110.667" y="-10"/>
			<point x="226.333" y="-10" type="curve" smooth="yes"/>
			<point x="344.333" y="-10"/>
			<point x="474" y="78"/>
			<point x="474" y="203.333" type="curve" smooth="yes"/>
			<point x="474" y="287.667"/>
			<point x="438.333" y="333"/>
			<point x="363" y="374.667" type="curve" smooth="yes"/>
			<point x="321.333" y="397.333" type="line" smooth="yes"/>
			<point x="284" y="417.667"/>
			<point x="244.667" y="457.333"/>
			<point x="244.667" y="508.667" type="curve" smooth="yes"/>
			<point x="244.667" y="574.667"/>
			<point x="299.667" y="618.667"/>
			<point x="355.667" y="618.667" type="curve" smooth="yes"/>
			<point x="440.333" y="618.667"/>
			<point x="452" y="547.667"/>
			<point name=".hr02" x="456.667" y="481.667" type="curve"/>
			<point x="461.333" y="479.667"/>
			<point x="467.667" y="478.333"/>
			<point name=".hr03" x="474.333" y="478.333" type="curve" smooth="yes"/>
			<point x="483.333" y="478.333"/>
			<point x="493" y="480.333"/>
			<point name=".hr04" x="499.667" y="484.333" type="curve"/>
			<point x="508.333" y="536.333"/>
			<point x="511.667" y="573.333"/>
		</contour>
	</outline>
	<anchor name="t.uni0302" x="379.333" y="740"/>
</glyph>
<glyph name="U" format="2">
	<unicode hex="0055"/>
	<advance width="679"/>
	<outline>
		<contour>
			<point x="122" y="162.333" type="curve" smooth="yes"/>
			<point x="122" y="21.6667"/>
			<point x="224.667" y="-10"/>
			<point x="340.667" y="-10" type="curve" smooth="yes"/>
			<point x="538.333" y="-10"/>
			<point x="618" y="118.333"/>
			<point x="652.667" y="294.667" type="curve" smooth="yes"/>
			<point x="699.667" y="531.333" type="line"/>
			<point x="710" y="592.667"/>
			<point x="722.333" y="606.333"/>
			<point x="788" y="613.333" type="curve"/>
			<point x="793.333" y="622.667"/>
			<point x="798.667" y="639.667"/>
			<point x="794.333" y="647" type="curve"/>
			<point x="752.667" y="646"/>
			<point x="731.333" y="645"/>
			<point x="694.667" y="645" type="curve" smooth="yes"/>
			<point x="655.333" y="645"/>
			<point x="625.333" y="646"/>
			<point x="578.333" y="647" type="curve"/>
			<point x="572.333" y="639.667"/>
			<point x="567.667" y="624.667"/>
			<point x="571.667" y="613.333" type="curve"/>
			<point x="627" y="609.333"/>
			<point x="647" y="602"/>
			<point x="647" y="570.667" type="curve" smooth="yes"/>
			<point x="647" y="557.333"/>
			<point x="644.667" y="539"/>
			<point x="641.333" y="523.667" type="curve" smooth="yes"/>
			<point x="593" y="276.667" type="line" smooth="yes"/>
			<point x="569.667" y="159.667"/>
			<point x="528" y="32"/>
			<point x="368.667" y="32" type="curve" smooth="yes"/>
			<point x="288" y="32"/>
			<point x="239" y="91.3333"/>
			<point x="239" y="174" type="curve" smooth="yes"/>
			<point x="239" y="202.667"/>
			<point x="244.333" y="236"/>
			<point x="251" y="268.667" type="curve" smooth="yes"/>
			<point x="303.333" y="537.333" type="line" smooth="yes"/>
			<point x="314.333" y="597.333"/>
			<point x="333.333" y="612"/>
			<point x="405.333" y="613.333" type="curve"/>
			<point x="411" y="623"/>
			<point x="416" y="640"/>
			<point x="412" y="647" type="curve"/>
			<point x="367" y="646"/>
			<point x="320" y="645"/>
			<point x="270.333" y="645" type="curve" smooth="yes"/>
			<point x="221.667" y="645"/>
			<point x="178.667" y="646"/>
			<point x="132.667" y="647" type="curve"/>
			<point x="126.667" y="639.667"/>
			<point x="122.667" y="624"/>
			<point x="127" y="613.333" type="curve"/>
			<point x="166.667" y="612"/>
			<point x="192" y="608.333"/>
			<point x="192" y="573" type="curve" smooth="yes"/>
			<point x="192" y="562"/>
			<point x="189.667" y="543"/>
			<point x="185.667" y="524" type="curve" smooth="yes"/>
			<point x="129.667" y="235.667" type="line" smooth="yes"/>
			<point x="124" y="207.667"/>
			<point x="122" y="182"/>
		</contour>
	</outline>
	<anchor name="t.uni0302" x="491" y="740"/>
</glyph>
<glyph name="W" format="2">
	<unicode hex="0057"/>
	<advance width="960"/>
	<outline>
		<contour>
			<point x="652.333" y="603.333" type="curve"/>
			<point x="628.333" y="599.333"/>
			<point x="604" y="603.333"/>
			<point x="599.333" y="603.333" type="curve"/>
			<point x="396.333" y="212" type="line"/>
			<point x="375.667" y="173.333" type="line"/>
			<point x="371.333" y="216.667" type="line"/>
			<point x="330" y="572.667" type="line" smooth="yes"/>
			<point x="326.333" y="604.333"/>
			<point x="363.333" y="612"/>
			<point x="406.333" y="614.667" type="curve"/>
			<point x="413" y="620.667"/>
			<point x="416.333" y="641"/>
			<point x="411" y="647" type="curve"/>
			<point x="376" y="646"/>
			<point x="295.333" y="645"/>
			<point x="258.333" y="645" type="curve" smooth="yes"/>
			<point x="221.333" y="645"/>
			<point x="171.667" y="646"/>
			<point x="136.333" y="647" type="curve"/>
			<point x="129.667" y="641"/>
			<point x="127" y="620.667"/>
			<point x="132.333" y="614.667" type="curve"/>
			<point x="169.667" y="610"/>
			<point x="198.667" y="604.667"/>
			<point x="207" y="563.667" type="curve" smooth="yes"/>
			<point x="208.667" y="555.333"/>
			<point x="210.667" y="547"/>
			<point x="211.667" y="537.333" type="curve"/>
			<point x="284.333" y="11.3333" type="line" smooth="yes"/>
			<point x="286.333" y="-4.33333"/>
			<point x="296.333" y="-11.3333"/>
			<point x="307" y="-11.3333" type="curve" smooth="yes"/>
			<point x="316.333" y="-11.3333"/>
			<point x="328.667" y="-7.33333"/>
			<point x="338.667" y="11.3333" type="curve" smooth="yes"/>
			<point x="528.667" y="365.333" type="line" smooth="yes"/>
			<point x="539" y="385"/>
			<point x="550" y="404.667"/>
			<point x="557.667" y="419" type="curve"/>
			<point x="558" y="419"/>
			<point x="559" y="419"/>
			<point x="559.333" y="418.333" type="curve"/>
			<point x="562" y="399.667"/>
			<point x="565" y="385.333"/>
			<point x="568.333" y="362.333" type="curve" smooth="yes"/>
			<point x="623" y="11.3333" type="line" smooth="yes"/>
			<point x="625" y="-2"/>
			<point x="636.333" y="-11.3333"/>
			<point x="646.667" y="-11.3333" type="curve" smooth="yes"/>
			<point x="656" y="-11.3333"/>
			<point x="668.333" y="-7"/>
			<point x="678.333" y="11" type="curve" smooth="yes"/>
			<point x="971.333" y="546.333" type="line" smooth="yes"/>
			<point x="999" y="596.667"/>
			<point x="1029.67" y="610.667"/>
			<point x="1076" y="614.667" type="curve"/>
			<point x="1082.67" y="620.667"/>
			<point x="1086" y="641"/>
			<point x="1080.67" y="647" type="curve"/>
			<point x="1048.33" y="646"/>
			<point x="1027" y="645.333"/>
			<point x="994.667" y="645" type="curve"/>
			<point x="986.667" y="645"/>
			<point x="979" y="645"/>
			<point x="970.667" y="645" type="curve" smooth="yes"/>
			<point x="939.333" y="645"/>
			<point x="897" y="646"/>
			<point x="865" y="647" type="curve"/>
			<point x="858.333" y="641"/>
			<point x="855" y="620.667"/>
			<point x="860.333" y="614.667" type="curve"/>
			<point x="901" y="611.333"/>
			<point x="940.333" y="602.667"/>
			<point x="920.333" y="564.333" type="curve" smooth="yes"/>
			<point x="736" y="211.667" type="line"/>
			<point x="711" y="164.667" type="line"/>
			<point x="704.667" y="213" type="line"/>
			<point x="666" y="500" type="line" smooth="yes"/>
			<point x="661.333" y="534.667"/>
			<point x="655.667" y="580"/>
		</contour>
	</outline>
</glyph>
<glyph name="bracketleft" format="2">
	<unicode hex="005B"/>
	<advance width="376"/>
	<outline>
		<contour>
			<point x="39" y="-195.333" type="line"/>
			<point x="274" y="-195.333" type="line"/>
			<point x="279" y="-189.333"/>
			<point x="283.333" y="-166.333"/>
			<point x="280.333" y="-160.667" type="curve"/>
			<point x="174.667" y="-153.333"/>
			<point x="142.667" y="-143.333"/>
			<point x="144.333" y="-85.3333" type="curve"/>
			<point x="278" y="589.333" type="line"/>
			<point x="300" y="647.333"/>
			<point x="339" y="657.333"/>
			<point x="446.333" y="664" type="curve"/>
			<point x="451.333" y="670"/>
			<point x="451.667" y="692.667"/>
			<point x="448.667" y="698.333" type="curve"/>
			<point x="217.667" y="698.333" type="line"/>
		</contour>
	</outline>
</glyph>
<glyph name="backslash" format="2">
	<unicode hex="005C"/>
	<advance width="312"/>
	<outline>
		<contour>
			<point x="184.667" y="698" type="line"/>
			<point x="126.667" y="698" type="line"/>
			<point x="255" y="-48" type="line"/>
			<point x="313" y="-48" type="line"/>
		</contour>
	</outline>
</glyph>
<glyph name="bracketright" format="2">
	<unicode hex="005D"/>
	<advance width="376"/>
	<outline>
		<contour>
			<point x="438" y="698.333" type="line"/>
			<point x="203" y="698.333" type="line"/>
			<point x="198" y="692.333"/>
			<point x="193.667" y="669.667"/>
			<point x="196.667" y="664" type="curve"/>
			<point x="303.333" y="656.667"/>
			<point x="334.333" y="646.667"/>
			<point x="332.667" y="588.667" type="curve"/>
			<point x="199" y="-86" type="line"/>
			<point x="177.667" y="-144"/>
			<point x="138" y="-154"/>
			<point x="30.6667" y="-160.667" type="curve"/>
			<point x="25.6667" y="-166.667"/>
			<point x="25.3333" y="-189.667"/>
			<point x="28.3333" y="-195.333" type="curve"/>
			<point x="259" y="-195.333" type="line"/>
		</contour>
	</outline>
</glyph>
<glyph name="e" format="2">
	<unicode hex="0065"/>
	<advance width="406"/>
	<outline>
		<contour>
			<point x="173.667" y="199" type="curve"/>
			<point x="392" y="243.667"/>
			<point x="434.667" y="297"/>
			<point x="434.667" y="366.333" type="curve" smooth="yes"/>
			<point x="434.667" y="406.667"/>
			<point x="390.667" y="439"/>
			<point x="318.333" y="439" type="curve" smooth="yes"/>
			<point x="134.333" y="439"/>
			<point x="59" y="268.333"/>
			<point x="59" y="139.333" type="curve" smooth="yes"/>
			<point x="59" y="57"/>
			<point x="89.6667" y="-10"/>
			<point x="198.667" y="-10" type="curve" smooth="yes"/>
			<point x="264.333" y="-10"/>
			<point x="336.667" y="23.6667"/>
			<point x="395.667" y="99.6667" type="curve"/>
			<point x="390.667" y="110.667"/>
			<point x="378.667" y="121.667"/>
			<point x="366.667" y="121.667" type="curve"/>
			<point x="309.667" y="63.6667"/>
			<point x="281.333" y="50"/>
			<point x="233.333" y="50" type="curve" smooth="yes"/>
			<point x="192.333" y="50"/>
			<point x="172.667" y="90"/>
			<point x="172.667" y="165" type="curve" smooth="yes"/>
			<point x="172.667" y="170"/>
			<point x="172.667" y="191"/>
		</contour>
		<contour>
			<point x="336.333" y="363.333" type="curve" smooth="yes"/>
			<point x="336.333" y="279.333"/>
			<point x="241.333" y="245.667"/>
			<point x="180.667" y="236.333" type="curve"/>
			<point x="215" y="377.667"/>
			<point x="258.667" y="400.667"/>
			<point x="300" y="400.667" type="curve" smooth="yes"/>
			<point x="324.667" y="400.667"/>
			<point x="336.333" y="392.333"/>
		</contour>
	</outline>
	<anchor name="t.uni0302" x="333" y="500"/>
</glyph>
<glyph name="f" format="2">
	<unicode hex="0066"/>
	<advance width="369"/>
	<outline>
		<contour>
			<point x="190" y="384.667" type="line"/>
			<point x="168.667" y="271.333"/>
			<point x="159" y="216"/>
			<point x="149" y="141" type="curve" smooth="yes"/>
			<point x="136.333" y="45.6667"/>
			<point x="128" y="-83.3333"/>
			<point x="88.6667" y="-151.667" type="curve"/>
			<point x="85.6667" y="-156.333"/>
			<point x="82.6667" y="-160.667"/>
			<point x="79.6667" y="-165" type="curve"/>
			<point x="67.3333" y="-180"/>
			<point x="48" y="-191.667"/>
			<point x="33.6667" y="-191.667" type="curve" smooth="yes"/>
			<point x="20.3333" y="-191.667"/>
			<point x="11.6667" y="-180.667"/>
			<point x="3.66667" y="-168" type="curve"/>
			<point x="-8.66667" y="-147"/>
			<point x="-29" y="-133.333"/>
			<point x="-51.6667" y="-133.333" type="curve" smooth="yes"/>
			<point x="-83" y="-133.333"/>
			<point x="-94" y="-157"/>
			<point x="-94" y="-176" type="curve" smooth="yes"/>
			<point x="-94" y="-201.333"/>
			<point x="-64.6667" y="-234.667"/>
			<point x="12.6667" y="-234.667" type="curve" smooth="yes"/>
			<point x="56.3333" y="-234.667"/>
			<point x="102.333" y="-214.667"/>
			<point x="136.667" y="-172.333" type="curve"/>
			<point x="140" y="-168.667"/>
			<point x="143.667" y="-164.667"/>
			<point x="146.333" y="-160" type="curve"/>
			<point x="177.333" y="-114.667"/>
			<point x="214.333" y="-46.3333"/>
			<point x="252.333" y="130" type="curve" smooth="yes"/>
			<point x="269" y="208"/>
			<point x="283.667" y="277"/>
			<point x="298.667" y="363.667" type="curve" smooth="yes"/>
			<point x="302.333" y="384.667" type="line"/>
			<point x="395.333" y="384.667" type="line" smooth="yes"/>
			<point x="404.333" y="384.667"/>
			<point x="419.333" y="388.667"/>
			<point name=".hr01" x="421.333" y="396.667" type="curve"/>
			<point x="421.333" y="396.667"/>
			<point x="426.333" y="423"/>
			<point x="426.333" y="424" type="curve"/>
			<point x="426.333" y="427"/>
			<point x="424.333" y="429"/>
			<point x="419.333" y="429" type="curve" smooth="yes"/>
			<point x="309.333" y="429" type="line"/>
			<point x="320.333" y="486" type="line" smooth="yes"/>
			<point x="328" y="526"/>
			<point x="337" y="560.667"/>
			<point x="348.333" y="588.333" type="curve" smooth="yes"/>
			<point x="367" y="634.667"/>
			<point x="393.333" y="657.333"/>
			<point x="423" y="658.667" type="curve" smooth="yes"/>
			<point x="428" y="659"/>
			<point x="432" y="658.333"/>
			<point x="435.333" y="657.667" type="curve"/>
			<point x="455" y="655"/>
			<point x="464.667" y="644.667"/>
			<point x="469" y="625" type="curve"/>
			<point x="473.667" y="599.667"/>
			<point x="483" y="566.667"/>
			<point x="521.667" y="566.667" type="curve" smooth="yes"/>
			<point x="556.667" y="566.667"/>
			<point x="569" y="596"/>
			<point x="569" y="614" type="curve" smooth="yes"/>
			<point x="569" y="656.667"/>
			<point x="514.333" y="694"/>
			<point x="440" y="697.333" type="curve"/>
			<point x="434.333" y="698"/>
			<point x="428.333" y="698"/>
			<point x="421.333" y="697.333" type="curve"/>
			<point x="377.333" y="695.667"/>
			<point x="328.333" y="680"/>
			<point x="293" y="644.667" type="curve" smooth="yes"/>
			<point x="291" y="642.667"/>
			<point x="288.333" y="640.667"/>
			<point x="286.333" y="638" type="curve"/>
			<point x="250" y="597.667"/>
			<point x="220.667" y="528.667"/>
			<point x="200" y="429" type="curve"/>
			<point x="134" y="426" type="line" smooth="yes"/>
			<point x="115" y="425"/>
			<point x="108" y="417"/>
			<point x="106" y="409" type="curve"/>
			<point x="105" y="406"/>
			<point x="102" y="388.667"/>
			<point x="102" y="386.667" type="curve" smooth="yes"/>
			<point name=".hr02" x="102" y="384.667"/>
			<point x="105" y="384.667"/>
			<point x="108" y="384.667" type="curve" smooth="yes"/>
		</contour>
	</outline>
</glyph>
<glyph name="i" format="2">
	<unicode hex="0069"/>
	<advance width="320"/>
	<outline>
		<contour>
			<point x="277" y="320" type="line" smooth="yes"/>
			<point x="286" y="359.667"/>
			<point x="298" y="398"/>
			<point x="298" y="415" type="curve" smooth="yes"/>
			<point x="298" y="429"/>
			<point x="290" y="436"/>
			<point x="277" y="436" type="curve" smooth="yes"/>
			<point x="245" y="436"/>
			<point x="168" y="429"/>
			<point x="121" y="423" type="curve"/>
			<point x="114" y="415"/>
			<point x="114" y="397.333"/>
			<point x="120" y="388.333" type="curve"/>
			<point x="160" y="385.333" type="line" smooth="yes"/>
			<point x="172" y="384.333"/>
			<point x="178" y="375.333"/>
			<point x="178" y="365.333" type="curve" smooth="yes"/>
			<point x="178" y="356.333"/>
			<point x="177.333" y="347.667"/>
			<point x="171" y="321" type="curve" smooth="yes"/>
			<point x="126" y="115" type="line" smooth="yes"/>
			<point x="119" y="83"/>
			<point x="111.667" y="41.3333"/>
			<point x="115.667" y="23" type="curve"/>
			<point x="121" y="3.33333"/>
			<point x="132" y="-10"/>
			<point x="162" y="-10" type="curve" smooth="yes"/>
			<point x="224.667" y="-10"/>
			<point x="285.667" y="23.3333"/>
			<point x="331.667" y="82.3333" type="curve"/>
			<point x="328.667" y="91.3333"/>
			<point x="318.667" y="106.667"/>
			<point x="304.667" y="106.667" type="curve"/>
			<point x="278.667" y="76.6667"/>
			<point x="246.333" y="58.6667"/>
			<point x="236.333" y="58.6667" type="curve" smooth="yes"/>
			<point x="228.667" y="58.6667"/>
			<point x="225.667" y="66.3333"/>
			<point x="225.667" y="78.3333" type="curve"/>
			<point x="226.333" y="89.3333"/>
			<point x="230" y="106.667"/>
			<point x="234" y="124" type="curve" smooth="yes"/>
		</contour>
		<contour>
			<point name=".hr01" x="199.667" y="587.333" type="curve" smooth="yes"/>
			<point x="199.667" y="556.667"/>
			<point x="223" y="527.333"/>
			<point x="258.333" y="527.333" type="curve" smooth="yes"/>
			<point x="297" y="527.333"/>
			<point x="321.667" y="558.667"/>
			<point x="321.667" y="584.667" type="curve" smooth="yes"/>
			<point x="321.667" y="613.333"/>
			<point x="299" y="644.667"/>
			<point x="262.333" y="644.667" type="curve" smooth="yes"/>
			<point x="222.333" y="644.667"/>
			<point x="199.667" y="616"/>
		</contour>
	</outline>
</glyph>
<glyph name="l" format="2">
	<unicode hex="006C"/>
	<advance width="305"/>
	<outline>
		<contour>
			<point x="207.333" y="563" type="curve" smooth="yes"/>
			<point x="107" y="118.333" type="line" smooth="yes"/>
			<point x="101.667" y="94"/>
			<point x="95.6667" y="62"/>
			<point x="95.6667" y="42.6667" type="curve" smooth="yes"/>
			<point x="95.6667" y="14.3333"/>
			<point x="106.667" y="-10"/>
			<point x="143.667" y="-10" type="curve" smooth="yes"/>
			<point x="205.333" y="-10"/>
			<point x="267.667" y="25.3333"/>
			<point x="316" y="87" type="curve"/>
			<point x="312.667" y="96.3333"/>
			<point x="303" y="111.333"/>
			<point x="289.333" y="111.333" type="curve"/>
			<point x="262" y="79.3333"/>
			<point x="228.667" y="60.6667"/>
			<point x="218" y="60.6667" type="curve" smooth="yes"/>
			<point x="210" y="60.6667"/>
			<point x="206.667" y="68"/>
			<point x="206.667" y="77.3333" type="curve" smooth="yes"/>
			<point x="206.667" y="88.6667"/>
			<point x="210.333" y="104.333"/>
			<point x="215.333" y="127" type="curve" smooth="yes"/>
			<point x="316.667" y="583" type="line" smooth="yes"/>
			<point x="326.667" y="628"/>
			<point x="332.333" y="654.333"/>
			<point name=".hr01" x="341.667" y="682" type="curve"/>
			<point x="341.667" y="693"/>
			<point x="334" y="698"/>
			<point x="322.333" y="698" type="curve"/>
			<point x="279" y="684.667"/>
			<point x="199.667" y="675.333"/>
			<point x="153.667" y="672" type="curve"/>
			<point x="149" y="665"/>
			<point x="146" y="649.667"/>
			<point x="148.667" y="639.667" type="curve"/>
			<point x="193.333" y="636.333"/>
			<point x="213.667" y="625.667"/>
			<point x="213.667" y="607" type="curve" smooth="yes"/>
			<point x="213.667" y="596.667"/>
			<point x="211.667" y="581.667"/>
		</contour>
	</outline>
</glyph>
<glyph name="o" format="2">
	<unicode hex="006F"/>
	<advance width="468"/>
	<outline>
		<contour>
			<point x="330" y="439" type="line"/>
			<point x="457" y="439"/>
			<point x="487.333" y="327.333"/>
			<point x="487.333" y="267" type="curve" smooth="yes"/>
			<point x="487.333" y="125.333"/>
			<point x="368" y="-10"/>
			<point x="224.667" y="-10" type="curve"/>
			<point x="263" y="37" type="line"/>
			<point x="332.333" y="37"/>
			<point x="372.333" y="141"/>
			<point x="372.333" y="245.667" type="curve" smooth="yes"/>
			<point x="372.333" y="360.667"/>
			<point x="319.333" y="392"/>
			<point x="291.667" y="392" type="curve"/>
		</contour>
		<contour>
			<point x="224.667" y="-10" type="line"/>
			<point x="97.6667" y="-10"/>
			<point x="67.3333" y="101.667"/>
			<point x="67.3333" y="162" type="curve" smooth="yes"/>
			<point x="67.3333" y="303.667"/>
			<point x="186.667" y="439"/>
			<point x="330" y="439" type="curve"/>
			<point x="291.667" y="392" type="line"/>
			<point x="222.333" y="392"/>
			<point x="182.333" y="288"/>
			<point x="182.333" y="183.333" type="curve" smooth="yes"/>
			<point x="182.333" y="68.3333"/>
			<point x="235.333" y="37"/>
			<point x="263" y="37" type="curve"/>
		</contour>
	</outline>
	<anchor name="t.uni0302" x="333.667" y="500"/>
	<anchor name="b.uni0328" x="296.333" y="31.6667"/>
	<guideline x="0" y="500" angle="0"/>
	<guideline x="228" y="3" angle="78"/>
</glyph>
<glyph name="p" format="2">
	<unicode hex="0070"/>
	<advance width="529"/>
	<outline>
		<contour>
			<point x="299.333" y="404" type="curve"/>
			<point x="303.333" y="422"/>
			<point x="312.333" y="452"/>
			<point x="312.333" y="464" type="curve" smooth="yes"/>
			<point x="312.333" y="480"/>
			<point x="303.667" y="489.667"/>
			<point x="276" y="490.667" type="curve"/>
			<point x="271.667" y="491"/>
			<point x="267" y="490.333"/>
			<point x="261.667" y="489.667" type="curve" smooth="yes"/>
			<point x="229" y="485"/>
			<point x="209.667" y="450.333"/>
			<point x="198.333" y="417.667" type="curve"/>
			<point x="196.667" y="413.667"/>
			<point x="195.667" y="409"/>
			<point x="194.667" y="405" type="curve" smooth="yes"/>
			<point x="183.333" y="356.667" type="line"/>
			<point x="133.333" y="320.667"/>
			<point x="96.3333" y="290.667"/>
			<point x="68.3333" y="255.667" type="curve"/>
			<point x="72.3333" y="241.667"/>
			<point x="79.3333" y="224.667"/>
			<point x="97.3333" y="224.667" type="curve"/>
			<point x="119.333" y="253.667"/>
			<point x="141.333" y="271.667"/>
			<point x="169.333" y="294.667" type="curve"/>
			<point x="72" y="-150" type="line"/>
			<point x="71" y="-154.333" type="line" smooth="yes"/>
			<point x="65" y="-182.333"/>
			<point x="50" y="-194.333"/>
			<point x="18" y="-199.333" type="curve" smooth="yes"/>
			<point x="-1" y="-202.333" type="line"/>
			<point x="-6" y="-203.333"/>
			<point x="-11" y="-204.333"/>
			<point x="-11" y="-210.333" type="curve" smooth="yes"/>
			<point x="-11" y="-236" type="line"/>
			<point x="-9" y="-238" type="line"/>
			<point x="-9" y="-238"/>
			<point x="61" y="-234.333"/>
			<point x="104.333" y="-233.667" type="curve"/>
			<point x="115.667" y="-233"/>
			<point x="126" y="-233"/>
			<point x="134.667" y="-233" type="curve"/>
			<point x="172.667" y="-233.333"/>
			<point x="230.667" y="-235"/>
			<point x="230.667" y="-235" type="curve"/>
			<point x="232.667" y="-233" type="line"/>
			<point x="232.667" y="-206.333" type="line" smooth="yes"/>
			<point x="232.667" y="-201.333"/>
			<point x="230.667" y="-199.333"/>
			<point x="226.667" y="-198.333" type="curve"/>
			<point x="207.667" y="-195.333" type="line" smooth="yes"/>
			<point x="192.667" y="-193.333"/>
			<point x="166.667" y="-188.333"/>
			<point x="174.667" y="-154.333" type="curve" smooth="yes"/>
			<point x="215.333" y="23" type="line"/>
			<point x="229" y="9"/>
			<point x="248.667" y="-6"/>
			<point x="275.667" y="-9.33333" type="curve" smooth="yes"/>
			<point x="280.667" y="-10"/>
			<point x="286" y="-10"/>
			<point x="291.667" y="-9.66667" type="curve"/>
			<point x="345.333" y="-8.66667"/>
			<point x="396" y="13"/>
			<point x="435.333" y="47.6667" type="curve" smooth="yes"/>
			<point x="446.667" y="57.3333"/>
			<point x="457.667" y="68.6667"/>
			<point x="467.333" y="80.3333" type="curve" smooth="yes"/>
			<point x="522.667" y="145.667"/>
			<point x="553" y="226.333"/>
			<point x="553" y="289" type="curve" smooth="yes"/>
			<point x="553" y="373"/>
			<point x="514.333" y="439"/>
			<point x="414.333" y="439" type="curve" smooth="yes"/>
			<point x="363.333" y="439"/>
			<point x="326.333" y="420"/>
		</contour>
		<contour>
			<point x="440.333" y="273" type="curve" smooth="yes"/>
			<point x="440.333" y="229.667"/>
			<point x="422.333" y="151.667"/>
			<point x="387.667" y="95" type="curve" smooth="yes"/>
			<point x="366.333" y="59.3333"/>
			<point x="337.333" y="33"/>
			<point x="304.667" y="30.3333" type="curve"/>
			<point x="302.667" y="30"/>
			<point x="300.333" y="29.6667"/>
			<point x="298.333" y="29.6667" type="curve" smooth="yes"/>
			<point x="272.333" y="29.6667"/>
			<point x="245.333" y="43.3333"/>
			<point x="224.333" y="72.3333" type="curve"/>
			<point x="289" y="355.667" type="line"/>
			<point x="310.667" y="369.667"/>
			<point x="335.667" y="385"/>
			<point x="366.333" y="388.333" type="curve" smooth="yes"/>
			<point x="374.333" y="389"/>
			<point x="381.667" y="389.333"/>
			<point x="389.667" y="388.333" type="curve" smooth="yes"/>
			<point x="432.667" y="383"/>
			<point x="440.333" y="319.667"/>
		</contour>
	</outline>
</glyph>
<glyph name="q" format="2">
	<unicode hex="0071"/>
	<advance width="518"/>
	<outline>
		<contour>
			<point x="297" y="-161" type="line" smooth="yes"/>
			<point x="290" y="-189"/>
			<point x="276" y="-201"/>
			<point x="244" y="-206" type="curve" smooth="yes"/>
			<point x="225" y="-209" type="line"/>
			<point x="220" y="-210"/>
			<point x="215" y="-211"/>
			<point x="215" y="-217" type="curve" smooth="yes"/>
			<point x="215" y="-236" type="line"/>
			<point x="217" y="-238" type="line"/>
			<point x="217" y="-238"/>
			<point x="286" y="-233"/>
			<point x="322" y="-233" type="curve" smooth="yes"/>
			<point x="361" y="-233"/>
			<point x="457.667" y="-235"/>
			<point x="457.667" y="-235" type="curve"/>
			<point x="459.667" y="-233" type="line"/>
			<point x="459.667" y="-213" type="line" smooth="yes"/>
			<point x="459.667" y="-208"/>
			<point x="457.667" y="-206"/>
			<point x="453.667" y="-205" type="curve"/>
			<point x="434.667" y="-202" type="line" smooth="yes"/>
			<point x="419.667" y="-200"/>
			<point x="393.667" y="-195"/>
			<point x="401.667" y="-161" type="curve" smooth="yes"/>
			<point x="531" y="396.333" type="line" smooth="yes"/>
			<point x="536.667" y="421.333"/>
			<point x="539.667" y="438.333"/>
			<point x="520.333" y="440" type="curve"/>
			<point x="515.667" y="442.667"/>
			<point x="496.333" y="439.333"/>
			<point x="483.333" y="428.667" type="curve"/>
			<point x="479" y="426.667"/>
			<point x="458" y="411"/>
			<point x="447.667" y="399.667" type="curve"/>
			<point x="430.667" y="418.667"/>
			<point x="403" y="423.667"/>
			<point x="374" y="421.333" type="curve"/>
			<point x="337" y="432"/>
			<point x="285.667" y="429"/>
			<point x="238.667" y="405" type="curve"/>
			<point x="156.667" y="370.333"/>
			<point x="69.6667" y="271"/>
			<point x="69.6667" y="147" type="curve" smooth="yes"/>
			<point x="69.6667" y="72"/>
			<point x="106" y="-10"/>
			<point x="200" y="-10" type="curve" smooth="yes"/>
			<point x="249" y="-10"/>
			<point x="298" y="14"/>
			<point x="360" y="100" type="curve"/>
			<point x="363" y="99" type="line"/>
		</contour>
		<contour>
			<point x="405" y="323.333" type="curve" smooth="yes"/>
			<point x="405" y="307.333"/>
			<point x="388" y="236"/>
			<point x="369" y="180" type="curve" smooth="yes"/>
			<point x="346" y="115"/>
			<point x="268.667" y="40"/>
			<point x="231.667" y="40" type="curve" smooth="yes"/>
			<point x="202.667" y="40"/>
			<point x="183.667" y="82"/>
			<point x="183.667" y="138" type="curve" smooth="yes"/>
			<point x="183.667" y="277.333"/>
			<point x="242" y="396.333"/>
			<point x="344" y="396.333" type="curve" smooth="yes"/>
			<point x="380" y="396.333"/>
			<point x="405" y="364.333"/>
		</contour>
	</outline>
</glyph>
<glyph name="s" format="2">
	<unicode hex="0073"/>
	<advance width="396"/>
	<outline>
		<contour>
			<point x="283.667" y="439" type="curve" smooth="yes"/>
			<point x="187.667" y="439"/>
			<point x="122.333" y="386.667"/>
			<point x="122.333" y="311.333" type="curve" smooth="yes"/>
			<point x="122.333" y="274"/>
			<point x="151.333" y="231.667"/>
			<point x="200" y="200" type="curve" smooth="yes"/>
			<point x="226" y="183" type="line" smooth="yes"/>
			<point x="269.333" y="154.333"/>
			<point x="290" y="125"/>
			<point x="290" y="84.6667" type="curve" smooth="yes"/>
			<point x="290" y="53"/>
			<point x="261" y="29"/>
			<point x="221.333" y="29" type="curve" smooth="yes"/>
			<point x="191.667" y="29"/>
			<point x="170.667" y="44.3333"/>
			<point x="159" y="77" type="curve" smooth="yes"/>
			<point x="149" y="107.333"/>
			<point x="129.667" y="126.333"/>
			<point x="107" y="126.333" type="curve" smooth="yes"/>
			<point x="82.6667" y="126.333"/>
			<point x="63" y="104.667"/>
			<point x="63" y="76.6667" type="curve" smooth="yes"/>
			<point x="63" y="27"/>
			<point x="127.667" y="-10"/>
			<point x="211.333" y="-10" type="curve" smooth="yes"/>
			<point x="312.333" y="-10"/>
			<point x="385.333" y="44.6667"/>
			<point x="385.333" y="119.667" type="curve" smooth="yes"/>
			<point x="385.333" y="170.333"/>
			<point x="353.333" y="214.667"/>
			<point x="280.667" y="258" type="curve" smooth="yes"/>
			<point x="249" y="277.333" type="line" smooth="yes"/>
			<point x="221" y="294.667"/>
			<point x="205" y="318.333"/>
			<point x="205" y="343.333" type="curve" smooth="yes"/>
			<point x="205" y="375.667"/>
			<point x="230.667" y="400"/>
			<point x="264.333" y="400" type="curve" smooth="yes"/>
			<point x="299" y="400"/>
			<point x="312" y="372.333"/>
			<point x="320.333" y="343.667" type="curve" smooth="yes"/>
			<point x="326.333" y="321.667"/>
			<point x="343.333" y="307"/>
			<point x="364" y="307" type="curve" smooth="yes"/>
			<point x="389.667" y="307"/>
			<point x="409.667" y="327.333"/>
			<point x="409.667" y="353.333" type="curve" smooth="yes"/>
			<point x="409.667" y="398.333"/>
			<point x="349.333" y="439"/>
		</contour>
	</outline>
	<anchor name="t.uni0302" x="291" y="500"/>
</glyph>
<glyph name="v" format="2">
	<unicode hex="0076"/>
	<advance width="495"/>
	<outline>
		<contour>
			<point x="323" y="97.3333" type="line"/>
			<point x="301" y="304" type="line"/>
			<point x="300.667" y="309.667"/>
			<point x="300" y="315.333"/>
			<point x="299" y="321" type="curve"/>
			<point x="291.333" y="382.333"/>
			<point x="277.667" y="434"/>
			<point x="242.667" y="437.667" type="curve"/>
			<point x="237" y="438.667"/>
			<point x="230.333" y="438.333"/>
			<point x="223.333" y="437" type="curve" smooth="yes"/>
			<point x="183" y="429"/>
			<point x="121" y="378"/>
			<point x="80.6667" y="326.333" type="curve"/>
			<point x="84.6667" y="313.667"/>
			<point x="94" y="304.667"/>
			<point x="109" y="301.667" type="curve"/>
			<point x="135" y="332"/>
			<point x="162.667" y="350.333"/>
			<point x="174.333" y="350.333" type="curve" smooth="yes"/>
			<point x="181.667" y="350.333"/>
			<point x="187.333" y="339.333"/>
			<point x="194" y="296" type="curve" smooth="yes"/>
			<point x="228.667" y="56" type="line" smooth="yes"/>
			<point x="234.667" y="18"/>
			<point x="243.333" y="-12"/>
			<point x="266" y="-12" type="curve" smooth="yes"/>
			<point x="280.333" y="-12"/>
			<point x="300" y="2.66667"/>
			<point x="322.333" y="22.3333" type="curve" smooth="yes"/>
			<point x="360.667" y="57"/>
			<point x="403.333" y="107.667"/>
			<point x="419" y="128.667" type="curve" smooth="yes"/>
			<point x="440.667" y="157.333"/>
			<point x="487.333" y="219"/>
			<point x="515.333" y="285" type="curve" smooth="yes"/>
			<point x="530.333" y="320"/>
			<point x="542.333" y="356"/>
			<point x="542.333" y="392" type="curve" smooth="yes"/>
			<point x="542.333" y="420"/>
			<point x="522" y="439"/>
			<point x="485" y="439" type="curve" smooth="yes"/>
			<point x="453.333" y="439"/>
			<point name=".hr01" x="429.667" y="429.333"/>
			<point x="429.667" y="402.667" type="curve" smooth="yes"/>
			<point x="429.667" y="397.333"/>
			<point x="431.667" y="386.667"/>
			<point x="434.667" y="382.667" type="curve"/>
			<point x="451.667" y="357"/>
			<point x="457" y="334"/>
			<point name=".hr02" x="455.667" y="316.667" type="curve" smooth="yes"/>
			<point x="451.667" y="272"/>
			<point x="418.667" y="202"/>
			<point x="378" y="150.333" type="curve" smooth="yes"/>
			<point x="364.333" y="133.333"/>
			<point x="342.333" y="107.667"/>
			<point x="327" y="95.3333" type="curve"/>
		</contour>
	</outline>
</glyph>
<glyph name="y" format="2">
	<unicode hex="0079"/>
	<advance width="510"/>
	<outline>
		<contour>
			<point x="186.667" y="342.333" type="curve" smooth="yes"/>
			<point x="190.667" y="335.667"/>
			<point x="195.333" y="324.333"/>
			<point x="200.333" y="309.667" type="curve" smooth="yes"/>
			<point x="232" y="213.667"/>
			<point x="267.333" y="-36"/>
			<point x="255.333" y="-62" type="curve"/>
			<point x="214.333" y="-129"/>
			<point x="181" y="-159"/>
			<point x="165.667" y="-159" type="curve" smooth="yes"/>
			<point x="155" y="-159"/>
			<point x="132" y="-143.333"/>
			<point x="125.333" y="-137" type="curve"/>
			<point x="117.667" y="-129"/>
			<point name=".hr01" x="95.6667" y="-119"/>
			<point x="87" y="-119" type="curve" smooth="yes"/>
			<point x="64" y="-119"/>
			<point x="37" y="-143.667"/>
			<point x="37" y="-183.333" type="curve" smooth="yes"/>
			<point x="37" y="-219"/>
			<point x="75.6667" y="-236"/>
			<point x="103.333" y="-236" type="curve" smooth="yes"/>
			<point x="158.333" y="-236"/>
			<point x="239" y="-175.667"/>
			<point x="301" y="-81.3333" type="curve"/>
			<point x="304.667" y="-76.3333"/>
			<point x="307.667" y="-71"/>
			<point x="311.333" y="-65.3333" type="curve" smooth="yes"/>
			<point x="347" y="-8.66667" type="line" smooth="yes"/>
			<point x="387" y="57"/>
			<point x="452" y="160"/>
			<point x="501.333" y="244" type="curve" smooth="yes"/>
			<point x="509" y="256.667"/>
			<point x="515.333" y="269"/>
			<point x="520.667" y="279.667" type="curve" smooth="yes"/>
			<point x="541" y="320"/>
			<point x="550.333" y="354.667"/>
			<point x="550.333" y="392.667" type="curve" smooth="yes"/>
			<point x="550.333" y="421.333"/>
			<point x="527.333" y="436.333"/>
			<point x="498.333" y="438.333" type="curve"/>
			<point x="495.667" y="439"/>
			<point x="492.333" y="439"/>
			<point x="489.667" y="439" type="curve" smooth="yes"/>
			<point x="466" y="439"/>
			<point x="436.333" y="430"/>
			<point x="436.333" y="407.333" type="curve" smooth="yes"/>
			<point x="436.333" y="396"/>
			<point x="439.667" y="384.667"/>
			<point x="444.667" y="376" type="curve"/>
			<point x="453" y="360.333"/>
			<point x="461.667" y="346.333"/>
			<point name=".hr02" x="462.667" y="333" type="curve"/>
			<point x="463" y="331.333"/>
			<point x="463" y="330"/>
			<point x="463" y="328.667" type="curve" smooth="yes"/>
			<point x="463" y="304.333"/>
			<point x="454.333" y="262.667"/>
			<point x="428.333" y="217.333" type="curve" smooth="yes"/>
			<point x="417" y="198.333"/>
			<point x="405.667" y="179.667"/>
			<point x="394.667" y="161.667" type="curve"/>
			<point x="384" y="143"/>
			<point x="355.333" y="97"/>
			<point x="336.333" y="66.6667" type="curve"/>
			<point x="331.333" y="68.3333" type="line"/>
			<point x="325.333" y="167"/>
			<point x="318.667" y="252"/>
			<point x="293" y="359" type="curve"/>
			<point x="291.333" y="367"/>
			<point x="289" y="374.333"/>
			<point x="287" y="381" type="curve" smooth="yes"/>
			<point x="276" y="416"/>
			<point x="265" y="433"/>
			<point x="246.667" y="436.667" type="curve"/>
			<point x="240.667" y="438.333"/>
			<point x="232.333" y="437.667"/>
			<point x="223.667" y="436.333" type="curve"/>
			<point x="186.667" y="428.333"/>
			<point x="115.333" y="392"/>
			<point x="84.3333" y="372" type="curve"/>
			<point x="85.3333" y="361"/>
			<point x="92" y="343.667"/>
			<point x="100" y="335.667" type="curve"/>
			<point x="112" y="341.667"/>
			<point x="140.333" y="355"/>
			<point x="161.333" y="355" type="curve" smooth="yes"/>
			<point x="174.333" y="355"/>
			<point x="180.333" y="352.667"/>
		</contour>
	</outline>
	<anchor name="t.uni0302" x="386" y="500"/>
</glyph>
<glyph name="braceleft" format="2">
	<unicode hex="007B"/>
	<advance width="296"/>
	<outline>
		<contour>
			<point x="307.667" y="557" type="line" smooth="yes"/>
			<point x="315.667" y="601.333"/>
			<point x="327.667" y="630.667"/>
			<point x="343" y="648.667" type="curve" smooth="yes"/>
			<point x="362.333" y="672"/>
			<point x="384.667" y="681.667"/>
			<point x="405.667" y="687.667" type="curve"/>
			<point x="410.667" y="693.333"/>
			<point x="413" y="702.667"/>
			<point x="410" y="708.333" type="curve"/>
			<point x="360.333" y="708"/>
			<point x="311.333" y="695.333"/>
			<point x="277" y="666.333" type="curve" smooth="yes"/>
			<point x="249.333" y="642"/>
			<point x="228.667" y="605.667"/>
			<point x="219.667" y="555.667" type="curve" smooth="yes"/>
			<point x="186.667" y="376.333" type="line" smooth="yes"/>
			<point x="185.667" y="370.333"/>
			<point x="184" y="364.667"/>
			<point x="183" y="358.667" type="curve"/>
			<point x="170.667" y="312.667"/>
			<point x="142" y="267.667"/>
			<point x="80.3333" y="258.333" type="curve"/>
			<point x="73" y="251.667"/>
			<point x="71.3333" y="241.333"/>
			<point x="75.3333" y="235.333" type="curve"/>
			<point x="116" y="228"/>
			<point x="134.667" y="207.333"/>
			<point x="139.333" y="176" type="curve" smooth="yes"/>
			<point x="142" y="160.333"/>
			<point x="140.667" y="142"/>
			<point x="135.667" y="121" type="curve" smooth="yes"/>
			<point x="98" y="-50.6667" type="line" smooth="yes"/>
			<point name=".hr01" x="91.3333" y="-79.6667"/>
			<point x="89" y="-103.667"/>
			<point x="91" y="-123.667" type="curve" smooth="yes"/>
			<point x="92.3333" y="-141.333"/>
			<point x="96.3333" y="-155.667"/>
			<point x="103" y="-167" type="curve"/>
			<point x="122" y="-201.333"/>
			<point x="168.667" y="-213.333"/>
			<point x="225.333" y="-213.667" type="curve"/>
			<point x="230.333" y="-208"/>
			<point x="232.333" y="-198.667"/>
			<point x="229.333" y="-193" type="curve"/>
			<point x="213" y="-192"/>
			<point x="195" y="-182.667"/>
			<point x="184.333" y="-156" type="curve" smooth="yes"/>
			<point x="180" y="-144.667"/>
			<point x="177.333" y="-130.667"/>
			<point x="177.333" y="-114" type="curve" smooth="yes"/>
			<point x="177.333" y="-98.3333"/>
			<point x="180" y="-79.6667"/>
			<point x="184.333" y="-59" type="curve" smooth="yes"/>
			<point x="220.667" y="95" type="line" smooth="yes"/>
			<point x="228.333" y="128.333"/>
			<point x="229.333" y="155.333"/>
			<point name=".hr02" x="223.333" y="176.333" type="curve"/>
			<point x="216" y="208.333"/>
			<point x="195.667" y="229.333"/>
			<point x="162.333" y="245.667" type="curve"/>
			<point x="163" y="248.333" type="line"/>
			<point x="220.667" y="266.667"/>
			<point x="257.667" y="292.333"/>
			<point x="275.667" y="369.333" type="curve" smooth="yes"/>
			<point x="277.333" y="376.667"/>
			<point x="279" y="384"/>
			<point x="280" y="392" type="curve"/>
		</contour>
	</outline>
</glyph>
<glyph name="exclamdown" format="2">
	<unicode hex="00A1"/>
	<advance width="253"/>
	<outline>
		<contour>
			<point x="84.3333" y="-226.333" type="curve" smooth="yes"/>
			<point x="111.333" y="-226.333"/>
			<point x="151.667" y="-207.333"/>
			<point x="163" y="-152" type="curve" smooth="yes"/>
			<point x="168.667" y="-122.333"/>
			<point x="169.667" y="-99.3333"/>
			<point x="170.333" y="-75.6667" type="curve"/>
			<point x="171" y="-67.3333"/>
			<point x="171" y="-58"/>
			<point x="171" y="-49" type="curve" smooth="yes"/>
			<point x="171" y="-43.6667"/>
			<point x="171" y="-38"/>
			<point x="171.667" y="-32" type="curve"/>
			<point x="172.333" y="-10.6667"/>
			<point x="173.667" y="15.3333"/>
			<point x="176.333" y="43" type="curve" smooth="yes"/>
			<point x="181" y="99.6667"/>
			<point x="187.333" y="159"/>
			<point x="192.667" y="191.667" type="curve" smooth="yes"/>
			<point x="194.667" y="206"/>
			<point x="196.333" y="217.333"/>
			<point x="196.333" y="225.333" type="curve"/>
			<point x="196.333" y="226" type="line"/>
			<point x="195.667" y="233"/>
			<point x="194" y="239.333"/>
			<point x="186.667" y="241.333" type="curve"/>
			<point x="183.667" y="242"/>
			<point x="180" y="242.333"/>
			<point x="176" y="241.667" type="curve"/>
			<point x="167.667" y="240.667"/>
			<point x="161.333" y="234.667"/>
			<point x="156.667" y="226.667" type="curve" smooth="yes"/>
			<point x="153" y="220"/>
			<point x="149.667" y="211"/>
			<point x="147.333" y="200.333" type="curve" smooth="yes"/>
			<point x="140.667" y="169"/>
			<point x="124.333" y="114.667"/>
			<point x="102.667" y="47.6667" type="curve" smooth="yes"/>
			<point x="92" y="15.6667"/>
			<point x="80.6667" y="-15.6667"/>
			<point x="70" y="-45.6667" type="curve" smooth="yes"/>
			<point x="57.3333" y="-80"/>
			<point x="43" y="-115.667"/>
			<point x="36" y="-152" type="curve" smooth="yes"/>
			<point x="33.6667" y="-163"/>
			<point x="33.3333" y="-172.333"/>
			<point x="34.6667" y="-180.667" type="curve"/>
			<point x="37.3333" y="-212"/>
			<point x="60" y="-226.333"/>
		</contour>
		<contour>
			<point x="269" y="382" type="curve"/>
			<point name=".hr01" x="269.333" y="385.333"/>
			<point x="269.333" y="389"/>
			<point x="268.667" y="392" type="curve"/>
			<point x="265.333" y="420"/>
			<point x="243.333" y="441"/>
			<point x="214.333" y="444.333" type="curve"/>
			<point x="210.667" y="445"/>
			<point x="207" y="445"/>
			<point x="203.333" y="444.667" type="curve"/>
			<point x="168.333" y="443.333"/>
			<point x="138" y="414.667"/>
			<point x="136.333" y="380.667" type="curve"/>
			<point x="136" y="376.667"/>
			<point x="136" y="373"/>
			<point x="136.667" y="370" type="curve"/>
			<point x="140" y="341.667"/>
			<point x="162.333" y="320.667"/>
			<point x="191" y="317.333" type="curve"/>
			<point x="194.667" y="316.667"/>
			<point x="198.333" y="316.667"/>
			<point x="202" y="317" type="curve"/>
			<point x="237" y="318.333"/>
			<point x="267.667" y="347"/>
		</contour>
	</outline>
</glyph>
<glyph name="cent" format="2">
	<unicode hex="00A2"/>
	<advance width="506"/>
	<outline>
		<contour>
			<point x="359" y="584" type="line"/>
			<point x="344" y="512.333" type="line"/>
			<point x="297.667" y="507.333"/>
			<point x="246" y="483.667"/>
			<point x="205" y="445.333" type="curve" smooth="yes"/>
			<point x="161.333" y="402.667"/>
			<point x="127" y="343.333"/>
			<point x="113.667" y="272" type="curve" smooth="yes"/>
			<point x="110" y="253"/>
			<point x="108.333" y="235.333"/>
			<point x="108.333" y="217.333" type="curve"/>
			<point x="107.667" y="179"/>
			<point x="117.333" y="140"/>
			<point x="138.333" y="111.667" type="curve" smooth="yes"/>
			<point x="163.333" y="79.3333"/>
			<point x="198.667" y="63"/>
			<point x="251" y="61" type="curve"/>
			<point x="235.667" y="-12" type="line"/>
			<point x="268.333" y="-12" type="line"/>
			<point x="284" y="63" type="line"/>
			<point x="338.667" y="72"/>
			<point x="399.333" y="113.333"/>
			<point x="440.667" y="165.333" type="curve"/>
			<point x="441.667" y="176.667"/>
			<point x="439.667" y="191.667"/>
			<point x="430" y="191.667" type="curve"/>
			<point x="390.333" y="156.667"/>
			<point x="357" y="134.667"/>
			<point x="328" y="130.667" type="curve"/>
			<point x="317.667" y="129.667"/>
			<point x="307.667" y="130"/>
			<point x="298.333" y="131.667" type="curve"/>
			<point x="368" y="470.667" type="line"/>
			<point x="378.667" y="465.667"/>
			<point x="386.667" y="456"/>
			<point x="388.667" y="439.667" type="curve" smooth="yes"/>
			<point x="390" y="429.667"/>
			<point x="389.333" y="418.333"/>
			<point x="387" y="408.667" type="curve"/>
			<point x="385.333" y="400"/>
			<point x="386" y="390.333"/>
			<point x="390" y="383" type="curve"/>
			<point x="395.333" y="369.667"/>
			<point x="408.667" y="359.667"/>
			<point x="426.333" y="359.667" type="curve" smooth="yes"/>
			<point x="456" y="359.667"/>
			<point x="481.667" y="383"/>
			<point x="486.333" y="412" type="curve" smooth="yes"/>
			<point x="492.333" y="453"/>
			<point x="468.667" y="507.667"/>
			<point x="377" y="513" type="curve"/>
			<point x="391.667" y="584" type="line"/>
		</contour>
		<contour>
			<point x="267.667" y="142" type="line"/>
			<point x="260" y="146.333"/>
			<point x="253" y="151.667"/>
			<point x="247.333" y="159.667" type="curve"/>
			<point x="229.667" y="182"/>
			<point x="220.333" y="212.667"/>
			<point x="222.333" y="262" type="curve" smooth="yes"/>
			<point x="223" y="275"/>
			<point x="224.667" y="288.333"/>
			<point x="226.667" y="301.333" type="curve" smooth="yes"/>
			<point x="245" y="405.667"/>
			<point x="286.333" y="464.667"/>
			<point x="336" y="473.667" type="curve"/>
		</contour>
	</outline>
</glyph>
<glyph name="currency" format="2">
	<unicode hex="00A4"/>
	<advance width="455"/>
	<outline>
		<contour>
			<point x="243.333" y="122.667" type="curve" smooth="yes"/>
			<point x="281.667" y="122.667"/>
			<point x="317" y="133.333"/>
			<point x="350.667" y="153" type="curve"/>
			<point x="386.333" y="97" type="line"/>
			<point x="442.667" y="148.333" type="line"/>
			<point x="430.333" y="162"/>
			<point x="415" y="178.667"/>
			<point x="402" y="192.333" type="curve"/>
			<point x="433.333" y="226.333"/>
			<point x="453.333" y="261.667"/>
			<point x="461" y="299" type="curve" smooth="yes"/>
			<point x="463.667" y="311.333"/>
			<point x="464.667" y="323"/>
			<point x="464" y="334.667" type="curve"/>
			<point x="464" y="360"/>
			<point x="457" y="383.667"/>
			<point x="443.667" y="406.333" type="curve"/>
			<point x="506" y="451" type="line"/>
			<point x="467.333" y="505.333" type="line"/>
			<point x="452.333" y="490"/>
			<point x="427" y="465"/>
			<point x="408" y="446.333" type="curve"/>
			<point x="383.667" y="464"/>
			<point x="356.333" y="475"/>
			<point x="320.333" y="476" type="curve"/>
			<point x="319" y="476"/>
			<point x="317.333" y="476"/>
			<point x="316" y="476" type="curve" smooth="yes"/>
			<point x="278.333" y="476"/>
			<point x="243.667" y="466"/>
			<point x="210" y="447.667" type="curve"/>
			<point x="174.667" y="501" type="line"/>
			<point x="117.333" y="450" type="line"/>
			<point x="130.333" y="436.667"/>
			<point x="145.667" y="421.667"/>
			<point x="158.667" y="409" type="curve"/>
			<point x="125.667" y="375.333"/>
			<point x="104.333" y="339"/>
			<point x="96.3333" y="299" type="curve" smooth="yes"/>
			<point x="93.6667" y="286.667"/>
			<point x="92.6667" y="275"/>
			<point x="93.3333" y="264" type="curve"/>
			<point x="93.3333" y="238.333"/>
			<point x="100.667" y="213.667"/>
			<point x="114.333" y="190.333" type="curve"/>
			<point x="54.6667" y="147.333" type="line"/>
			<point x="96" y="94.6667" type="line"/>
			<point x="110.333" y="110"/>
			<point x="133.667" y="133.333"/>
			<point x="150.667" y="151.333" type="curve"/>
			<point x="175.333" y="132.667"/>
			<point x="206" y="122.667"/>
		</contour>
		<contour>
			<point x="167.333" y="300" type="curve" smooth="yes"/>
			<point x="181.667" y="369.667"/>
			<point x="242.333" y="425.333"/>
			<point x="306" y="425.333" type="curve" smooth="yes"/>
			<point x="356.333" y="425.333"/>
			<point x="395" y="383.667"/>
			<point x="393" y="323.333" type="curve"/>
			<point x="393" y="315.667"/>
			<point x="392" y="307.333"/>
			<point x="390.333" y="299" type="curve" smooth="yes"/>
			<point x="376" y="230"/>
			<point x="319" y="173.333"/>
			<point x="254" y="173.333" type="curve" smooth="yes"/>
			<point x="196.667" y="173.333"/>
			<point x="161.667" y="216.667"/>
			<point x="164.333" y="275" type="curve"/>
			<point x="164.333" y="283.667"/>
			<point x="165.333" y="291.333"/>
		</contour>
	</outline>
</glyph>
<glyph name="copyright" format="2">
	<unicode hex="00A9"/>
	<advance width="633"/>
	<outline>
		<contour>
			<point x="318.667" y="23" type="curve" smooth="yes"/>
			<point x="494.667" y="23"/>
			<point x="651.667" y="183.333"/>
			<point x="651.667" y="360.333" type="curve" smooth="yes"/>
			<point x="651.667" y="492.667"/>
			<point x="564.333" y="588"/>
			<point x="425.667" y="588" type="curve" smooth="yes"/>
			<point x="249" y="588"/>
			<point x="95.6667" y="432.667"/>
			<point x="95.6667" y="254.333" type="curve" smooth="yes"/>
			<point x="95.6667" y="118"/>
			<point x="185" y="23"/>
		</contour>
		<contour>
			<point x="424.333" y="559.333" type="curve" smooth="yes"/>
			<point x="542.667" y="559.333"/>
			<point x="621" y="473.667"/>
			<point x="621" y="355.667" type="curve" smooth="yes"/>
			<point x="621" y="196.333"/>
			<point x="480" y="51.6667"/>
			<point x="325.667" y="51.6667" type="curve" smooth="yes"/>
			<point x="204.667" y="51.6667"/>
			<point x="126.333" y="139"/>
			<point x="126.333" y="255.333" type="curve" smooth="yes"/>
			<point x="126.333" y="412.333"/>
			<point x="269" y="559.333"/>
		</contour>
		<contour>
			<point x="472.333" y="217.333" type="curve"/>
			<point x="470.333" y="223.667"/>
			<point x="465.667" y="229.667"/>
			<point x="457.667" y="232" type="curve"/>
			<point x="445" y="216.667"/>
			<point x="418" y="191.667"/>
			<point x="375" y="191.667" type="curve" smooth="yes"/>
			<point x="330.333" y="191.667"/>
			<point x="311.667" y="218.333"/>
			<point x="311.667" y="261.333" type="curve" smooth="yes"/>
			<point x="311.667" y="319"/>
			<point x="344.667" y="422.333"/>
			<point x="413.333" y="422.333" type="curve" smooth="yes"/>
			<point x="459.667" y="422.333"/>
			<point x="470" y="405.333"/>
			<point x="477.333" y="357.333" type="curve"/>
			<point x="483.699" y="357.585"/>
			<point x="493.585" y="358.457"/>
			<point x="498.333" y="360.667" type="curve"/>
			<point x="501.667" y="383.333"/>
			<point x="503.667" y="408.667"/>
			<point x="504.667" y="438" type="curve"/>
			<point x="476.667" y="438.667"/>
			<point x="454.333" y="452"/>
			<point x="416.333" y="452" type="curve" smooth="yes"/>
			<point x="319.333" y="452"/>
			<point x="239" y="362"/>
			<point x="239" y="269.333" type="curve" smooth="yes"/>
			<point x="239" y="202.667"/>
			<point x="281.333" y="156.333"/>
			<point x="349" y="156.333" type="curve" smooth="yes"/>
			<point x="404.667" y="156.333"/>
			<point x="448.333" y="187"/>
		</contour>
	</outline>
</glyph>
<glyph name="ordfeminine" format="2">
	<unicode hex="00AA"/>
	<advance width="342"/>
	<outline>
		<contour>
			<point x="387.333" y="637.333" type="curve"/>
			<point x="379" y="637.333" type="line" smooth="yes"/>
			<point x="372" y="637.333"/>
			<point x="364.667" y="636.667"/>
			<point x="358" y="636.333" type="curve" smooth="yes"/>
			<point x="353.333" y="636"/>
			<point x="348.667" y="636"/>
			<point x="344.333" y="636" type="curve"/>
			<point x="341" y="636.333"/>
			<point x="338.333" y="636.333"/>
			<point x="336" y="637" type="curve"/>
			<point x="323.667" y="638.667"/>
			<point x="319.667" y="639.667"/>
			<point x="305" y="640.333" type="curve"/>
			<point x="302.333" y="640.333"/>
			<point x="299.333" y="640.333"/>
			<point x="296" y="640.333" type="curve"/>
			<point x="248.667" y="639.333"/>
			<point x="201" y="606.667"/>
			<point x="167.333" y="563" type="curve" smooth="yes"/>
			<point x="141.667" y="529"/>
			<point x="123.333" y="488.667"/>
			<point x="122" y="445.333" type="curve"/>
			<point x="122" y="442.667"/>
			<point x="122" y="440.667"/>
			<point x="122" y="438" type="curve"/>
			<point x="122.333" y="398"/>
			<point x="140.333" y="359"/>
			<point x="187.333" y="359" type="curve" smooth="yes"/>
			<point x="216.333" y="359"/>
			<point x="254" y="390.333"/>
			<point x="291.667" y="446" type="curve"/>
			<point x="293.667" y="445" type="line"/>
			<point x="290.333" y="432.667" type="line" smooth="yes"/>
			<point x="289" y="428"/>
			<point x="288" y="423"/>
			<point x="286.667" y="418.333" type="curve"/>
			<point x="285.333" y="410.333"/>
			<point x="284" y="403"/>
			<point x="283.667" y="396" type="curve"/>
			<point x="283.333" y="392"/>
			<point x="283.333" y="388"/>
			<point x="284" y="385" type="curve"/>
			<point x="284" y="383.667"/>
			<point x="284.667" y="382.333"/>
			<point x="284.667" y="381.667" type="curve"/>
			<point x="288" y="370"/>
			<point x="293.667" y="362"/>
			<point name=".hr01" x="309.333" y="360" type="curve" smooth="yes"/>
			<point x="313.667" y="359.333"/>
			<point x="318.667" y="359"/>
			<point x="324" y="359.667" type="curve"/>
			<point x="362" y="362.333"/>
			<point x="392.333" y="384"/>
			<point x="415" y="417.667" type="curve"/>
			<point x="412.667" y="423.333"/>
			<point x="407" y="432.333"/>
			<point x="398.333" y="432.333" type="curve"/>
			<point x="382" y="412"/>
			<point x="363.333" y="402"/>
			<point x="357.333" y="402" type="curve" smooth="yes"/>
			<point x="353.333" y="402"/>
			<point x="350.333" y="405.333"/>
			<point x="350.333" y="412.333" type="curve" smooth="yes"/>
			<point x="350.333" y="419.667"/>
			<point x="353.667" y="431.667"/>
			<point x="355.667" y="441.667" type="curve" smooth="yes"/>
			<point x="382" y="564.333" type="line" smooth="yes"/>
			<point x="386.667" y="587.667"/>
			<point x="393.667" y="609.667"/>
			<point x="395" y="623.667" type="curve"/>
			<point x="395.333" y="631"/>
			<point x="392.333" y="636"/>
		</contour>
		<contour>
			<point x="302.333" y="505" type="curve"/>
			<point x="272.333" y="449.667"/>
			<point x="241.333" y="412"/>
			<point x="220.667" y="410" type="curve"/>
			<point name=".hr02" x="220" y="409.667"/>
			<point x="219.333" y="409.667"/>
			<point x="219" y="409.667" type="curve"/>
			<point x="200.667" y="409.667"/>
			<point x="193" y="423.667"/>
			<point x="192" y="443" type="curve"/>
			<point x="191.333" y="449.667"/>
			<point x="191.333" y="456"/>
			<point x="192" y="463.333" type="curve"/>
			<point x="194" y="495.667"/>
			<point x="205.667" y="532.333"/>
			<point x="223.667" y="562" type="curve" smooth="yes"/>
			<point x="241" y="591"/>
			<point x="265.333" y="613.333"/>
			<point x="291.333" y="615.333" type="curve"/>
			<point x="293.667" y="616"/>
			<point x="297" y="616"/>
			<point x="299.333" y="615.667" type="curve"/>
			<point x="311.333" y="615"/>
			<point x="319.333" y="611"/>
			<point x="323" y="604" type="curve"/>
			<point x="323" y="604"/>
			<point x="318.333" y="545"/>
		</contour>
	</outline>
</glyph>
<glyph name="logicalnot" format="2">
	<unicode hex="00AC"/>
	<advance width="560"/>
	<outline>
		<contour>
			<point x="487" y="133" type="line"/>
			<point x="550.667" y="133" type="line"/>
			<point x="604.333" y="401" type="line"/>
			<point x="112.333" y="401" type="line"/>
			<point x="101.667" y="350.333" type="line"/>
			<point x="530" y="350.333" type="line"/>
		</contour>
	</outline>
</glyph>
<glyph name="registered" format="2">
	<unicode hex="00AE"/>
	<advance width="633"/>
	<outline>
		<contour>
			<point x="312.333" y="23" type="curve" smooth="yes"/>
			<point x="462.333" y="23"/>
			<point x="601" y="150"/>
			<point x="623" y="306" type="curve" smooth="yes"/>
			<point x="645" y="462"/>
			<point x="542.333" y="588"/>
			<point x="392.333" y="588" type="curve" smooth="yes"/>
			<point x="242.333" y="588"/>
			<point x="102.667" y="462"/>
			<point x="80.6667" y="306" type="curve" smooth="yes"/>
			<point x="58.6667" y="151"/>
			<point x="161.333" y="23"/>
		</contour>
		<contour>
			<point x="387.667" y="557" type="curve" smooth="yes"/>
			<point x="521.333" y="557"/>
			<point x="613.333" y="445"/>
			<point x="593.333" y="306" type="curve" smooth="yes"/>
			<point x="574" y="167"/>
			<point x="449" y="55"/>
			<point x="317" y="55" type="curve" smooth="yes"/>
			<point x="182.333" y="55"/>
			<point x="91" y="168"/>
			<point x="110.333" y="306" type="curve" smooth="yes"/>
			<point x="130.333" y="445"/>
			<point x="253.667" y="557"/>
		</contour>
		<contour>
			<point x="461.667" y="372" type="curve" smooth="yes"/>
			<point x="465.667" y="402"/>
			<point x="453.333" y="447"/>
			<point x="380.667" y="447" type="curve" smooth="yes"/>
			<point x="310.333" y="447"/>
			<point x="279.333" y="445"/>
			<point x="258.333" y="442" type="curve"/>
			<point x="257" y="429.667" type="line"/>
			<point x="256.333" y="426"/>
			<point x="258.667" y="424"/>
			<point x="265.667" y="423.667" type="curve"/>
			<point x="281" y="424.667" type="line"/>
			<point x="284" y="424.667"/>
			<point x="283.667" y="419"/>
			<point x="283" y="413.667" type="curve" smooth="yes"/>
			<point x="252.333" y="194" type="line"/>
			<point x="251.667" y="187"/>
			<point x="249" y="186"/>
			<point x="243.667" y="186" type="curve" smooth="yes"/>
			<point x="232.333" y="186" type="line" smooth="yes"/>
			<point x="225.333" y="186"/>
			<point x="221.667" y="184.333"/>
			<point x="221" y="180.333" type="curve" smooth="yes"/>
			<point x="219" y="167" type="line"/>
			<point x="272.667" y="169" type="line"/>
			<point x="286" y="169"/>
			<point x="334" y="167"/>
			<point x="334" y="167" type="curve"/>
			<point x="335.333" y="180" type="line"/>
			<point x="336" y="184.333"/>
			<point x="333.667" y="186"/>
			<point x="325.667" y="186" type="curve" smooth="yes"/>
			<point x="314.333" y="186" type="line" smooth="yes"/>
			<point x="308" y="186"/>
			<point x="308" y="188.333"/>
			<point x="308.667" y="193.333" type="curve" smooth="yes"/>
			<point x="321.333" y="285.667" type="line"/>
			<point x="326.333" y="285.667"/>
			<point x="343.667" y="284.667"/>
			<point x="347" y="282.333" type="curve"/>
			<point x="382.333" y="204" type="line"/>
			<point x="389.667" y="178"/>
			<point x="412" y="166"/>
			<point x="440.333" y="166" type="curve" smooth="yes"/>
			<point name=".hr01" x="444.667" y="166"/>
			<point x="452.667" y="167"/>
			<point x="462.667" y="170" type="curve"/>
			<point x="464.667" y="183" type="line"/>
			<point x="449.667" y="183"/>
			<point x="439.667" y="192"/>
			<point x="430.667" y="214" type="curve" smooth="yes"/>
			<point x="396" y="296" type="line"/>
			<point x="396" y="296"/>
			<point x="454.333" y="320"/>
		</contour>
		<contour>
			<point x="406.333" y="372" type="curve" smooth="yes"/>
			<point x="397" y="310"/>
			<point x="355" y="308.667"/>
			<point x="325.333" y="308.667" type="curve"/>
			<point x="341.333" y="425" type="line"/>
			<point x="346.333" y="426.667"/>
			<point x="358.333" y="428"/>
			<point x="368.667" y="428" type="curve" smooth="yes"/>
			<point x="401.333" y="428"/>
			<point name=".hr02" x="411" y="406"/>
		</contour>
	</outline>
</glyph>
<glyph name="macron" format="2">
	<unicode hex="00AF"/>
	<advance width="397"/>
	<outline>
		<contour>
			<point x="409" y="529" type="line" smooth="yes"/>
			<point x="421" y="529"/>
			<point x="436" y="547"/>
			<point x="438" y="559" type="curve"/>
			<point x="438" y="562" type="line" smooth="yes"/>
			<point x="438" y="567"/>
			<point x="435" y="573"/>
			<point x="426" y="573" type="curve" smooth="yes"/>
			<point x="182" y="573" type="line" smooth="yes"/>
			<point x="170" y="573"/>
			<point x="157" y="556"/>
			<point x="155" y="544" type="curve"/>
			<point x="154" y="542"/>
			<point x="154" y="541"/>
			<point x="154" y="540" type="curve"/>
			<point x="154" y="534"/>
			<point x="157" y="529"/>
			<point x="164" y="529" type="curve" smooth="yes"/>
		</contour>
	</outline>
</glyph>
<glyph name="degree" format="2">
	<unicode hex="00B0"/>
	<advance width="259"/>
	<outline>
		<contour>
			<point x="262" y="669.333" type="curve" smooth="yes"/>
			<point x="208.333" y="669.333"/>
			<point x="152.667" y="624.667"/>
			<point x="143.667" y="569" type="curve" smooth="yes"/>
			<point x="142.667" y="563.667"/>
			<point x="141.667" y="557.667"/>
			<point x="141.667" y="551.667" type="curve" smooth="yes"/>
			<point x="141.667" y="505.333"/>
			<point x="175.667" y="469.667"/>
			<point x="225" y="469.667" type="curve" smooth="yes"/>
			<point x="278.667" y="469.667"/>
			<point x="334" y="514.667"/>
			<point x="343.333" y="570.333" type="curve" smooth="yes"/>
			<point x="344.333" y="575.667"/>
			<point x="345" y="581.333"/>
			<point x="345" y="587.333" type="curve" smooth="yes"/>
			<point x="345" y="633.667"/>
			<point x="311" y="669.333"/>
		</contour>
		<contour>
			<point x="304" y="582.333" type="curve" smooth="yes"/>
			<point x="304" y="577"/>
			<point x="303" y="570.667"/>
			<point x="302.333" y="565.333" type="curve"/>
			<point x="294.667" y="533"/>
			<point x="266.333" y="504.333"/>
			<point x="230" y="504.333" type="curve" smooth="yes"/>
			<point x="198.333" y="504.333"/>
			<point x="182.667" y="528.667"/>
			<point x="182.667" y="555.333" type="curve" smooth="yes"/>
			<point x="182.667" y="561.667"/>
			<point x="183.667" y="567"/>
			<point x="184.667" y="572.667" type="curve"/>
			<point x="192" y="605"/>
			<point x="220" y="635"/>
			<point x="257" y="635" type="curve" smooth="yes"/>
			<point x="290.667" y="635"/>
			<point x="304" y="608"/>
		</contour>
	</outline>
</glyph>
<glyph name="uni00B2" format="2">
	<unicode hex="00B2"/>
	<advance width="329"/>
	<outline>
		<contour>
			<point x="177.333" y="621" type="curve"/>
			<point x="175.667" y="615.333"/>
			<point x="175.667" y="609.333"/>
			<point x="175.667" y="605" type="curve"/>
			<point x="176.333" y="592.667"/>
			<point x="184.667" y="584.333"/>
			<point x="200" y="584.333" type="curve" smooth="yes"/>
			<point x="216.333" y="584.333"/>
			<point x="236" y="595.667"/>
			<point x="241" y="611.667" type="curve"/>
			<point x="242.667" y="615"/>
			<point x="243.333" y="619"/>
			<point x="243.333" y="623" type="curve"/>
			<point x="243.667" y="627.333"/>
			<point x="244.333" y="632"/>
			<point x="245.333" y="637" type="curve"/>
			<point x="247" y="642.667"/>
			<point x="249.667" y="653"/>
			<point x="252.667" y="657.333" type="curve" smooth="yes"/>
			<point x="260.333" y="668.667"/>
			<point x="273.333" y="674"/>
			<point x="295.667" y="674" type="curve" smooth="yes"/>
			<point x="303.667" y="674"/>
			<point x="315.333" y="670"/>
			<point x="320.333" y="661" type="curve"/>
			<point x="325" y="654.667"/>
			<point x="328" y="645.667"/>
			<point x="328" y="633" type="curve" smooth="yes"/>
			<point x="328" y="627.333"/>
			<point x="327" y="621"/>
			<point x="326" y="614.667" type="curve"/>
			<point x="325.667" y="610"/>
			<point x="324.333" y="605.333"/>
			<point x="323.333" y="600.667" type="curve"/>
			<point x="317" y="576"/>
			<point x="301" y="550"/>
			<point x="272" y="527" type="curve" smooth="yes"/>
			<point x="262" y="519"/>
			<point x="251.667" y="511"/>
			<point x="241" y="503" type="curve" smooth="yes"/>
			<point x="228.667" y="493.333"/>
			<point x="215.333" y="483.333"/>
			<point x="203.333" y="473.333" type="curve" smooth="yes"/>
			<point x="164.667" y="441"/>
			<point x="133" y="404"/>
			<point x="124.667" y="364" type="curve"/>
			<point x="341.333" y="364" type="line"/>
			<point x="354.333" y="393"/>
			<point x="374.667" y="434.667"/>
			<point x="387.333" y="470.667" type="curve"/>
			<point x="382.667" y="474"/>
			<point x="373" y="475.667"/>
			<point x="363" y="476.333" type="curve"/>
			<point x="347.667" y="447.667"/>
			<point x="320.667" y="414.667"/>
			<point x="292.333" y="413" type="curve"/>
			<point x="289.333" y="412.667"/>
			<point x="286.667" y="412.667"/>
			<point x="283" y="412.667" type="curve" smooth="yes"/>
			<point x="211.333" y="412.667" type="line"/>
			<point x="215.333" y="428.667"/>
			<point x="228" y="447"/>
			<point x="250.333" y="464" type="curve"/>
			<point x="261" y="473"/>
			<point x="273" y="481.667"/>
			<point x="285" y="490" type="curve"/>
			<point x="297.667" y="499.333" type="line" smooth="yes"/>
			<point x="321.333" y="516.333"/>
			<point x="346.667" y="536.667"/>
			<point x="363.667" y="552.667" type="curve" smooth="yes"/>
			<point x="386.667" y="574.667"/>
			<point x="397" y="593"/>
			<point x="401.667" y="616.333" type="curve"/>
			<point x="403.667" y="624"/>
			<point x="404.333" y="630.333"/>
			<point x="404.333" y="637" type="curve"/>
			<point x="405" y="656.333"/>
			<point x="399" y="670.333"/>
			<point x="387" y="681.667" type="curve" smooth="yes"/>
			<point x="369" y="699"/>
			<point x="339.667" y="701.667"/>
			<point x="315" y="702" type="curve"/>
			<point x="311.333" y="702"/>
			<point x="307.667" y="702"/>
			<point x="304" y="702" type="curve"/>
			<point x="231.667" y="698"/>
			<point x="183" y="647"/>
		</contour>
	</outline>
</glyph>
<glyph name="uni00B3" format="2">
	<unicode hex="00B3"/>
	<advance width="329"/>
	<outline>
		<contour>
			<point x="256" y="414.333" type="curve"/>
			<point x="238.667" y="391.333"/>
			<point x="212" y="393.667"/>
			<point x="201.667" y="399.667" type="curve"/>
			<point x="188" y="405.667"/>
			<point x="183" y="427"/>
			<point x="163" y="430.333" type="curve"/>
			<point x="146" y="432.667"/>
			<point x="131.667" y="421"/>
			<point x="127.333" y="407" type="curve"/>
			<point x="124" y="383.667"/>
			<point x="153" y="374.667"/>
			<point x="182.333" y="370.333" type="curve"/>
			<point x="212.333" y="363.667"/>
			<point x="258.667" y="368"/>
			<point x="294.667" y="384" type="curve"/>
			<point x="343.667" y="400"/>
			<point x="387.667" y="438"/>
			<point x="392" y="493.667" type="curve"/>
			<point x="392.333" y="521"/>
			<point x="376" y="534"/>
			<point x="357.333" y="541.667" type="curve"/>
			<point x="356.667" y="557"/>
			<point x="344.667" y="564.667"/>
			<point x="335" y="565.667" type="curve"/>
			<point x="345.667" y="571.667"/>
			<point x="355" y="580"/>
			<point x="357.667" y="590.333" type="curve"/>
			<point x="380" y="605.667"/>
			<point name=".hr01" x="398" y="623.333"/>
			<point x="398" y="648" type="curve" smooth="yes"/>
			<point x="398" y="681.333"/>
			<point x="365" y="702"/>
			<point x="312.667" y="702" type="curve" smooth="yes"/>
			<point x="219" y="702"/>
			<point x="175.667" y="643"/>
			<point x="172" y="624.667" type="curve"/>
			<point x="172" y="623"/>
			<point x="171.667" y="616.667"/>
			<point x="178" y="614.667" type="curve"/>
			<point x="185.333" y="608.667"/>
			<point x="190" y="605.667"/>
			<point x="205.667" y="609.667" type="curve"/>
			<point x="225.667" y="618"/>
			<point x="248.333" y="638.667"/>
			<point x="257" y="648" type="curve"/>
			<point x="267.333" y="663.333"/>
			<point x="289.667" y="671.667"/>
			<point x="303.667" y="664.333" type="curve"/>
			<point x="315" y="663"/>
			<point x="324" y="654.667"/>
			<point x="324" y="639.333" type="curve"/>
			<point x="321.333" y="591"/>
			<point x="269" y="560.333"/>
			<point x="224.667" y="554.333" type="curve"/>
			<point x="219.667" y="526.333" type="line"/>
			<point x="231" y="528.667"/>
			<point x="240.333" y="529.667"/>
			<point x="248.667" y="529.667" type="curve" smooth="yes"/>
			<point x="278.667" y="529.667"/>
			<point name=".hr02" x="311" y="521.667"/>
			<point x="311" y="486" type="curve" smooth="yes"/>
			<point x="311" y="452"/>
			<point x="280.333" y="416.333"/>
		</contour>
	</outline>
</glyph>
<glyph name="acute" format="2">
	<unicode hex="00B4"/>
	<advance width="319"/>
	<outline>
		<contour>
			<point x="277" y="666.333" type="curve"/>
			<point x="175" y="537" type="line" smooth="yes"/>
			<point x="167.667" y="527.667"/>
			<point x="165" y="518.667"/>
			<point x="164.333" y="513" type="curve" smooth="yes"/>
			<point x="163.667" y="507"/>
			<point x="170" y="500"/>
			<point x="177.667" y="500" type="curve" smooth="yes"/>
			<point x="186.667" y="500"/>
			<point x="199" y="504.333"/>
			<point x="215" y="517.333" type="curve" smooth="yes"/>
			<point x="349.667" y="625.667" type="line"/>
			<point x="349.667" y="643.333" type="line"/>
			<point x="336.333" y="657.667"/>
			<point x="315" y="668.333"/>
			<point x="292.667" y="668.333" type="curve" smooth="yes"/>
			<point x="287.667" y="668.333"/>
			<point x="280" y="667.333"/>
		</contour>
	</outline>
	<anchor name="_top" x="256.667" y="500"/>
	<guideline x="273" y="661" angle="231.009"/>
	<guideline x="339" y="629" angle="39.126"/>
</glyph>
<glyph name="periodcentered" format="2">
	<unicode hex="00B7"/>
	<advance width="298"/>
	<outline>
		<contour>
			<point x="204" y="184.333" type="curve" smooth="yes"/>
			<point x="244" y="184.333"/>
			<point x="276.667" y="218.333"/>
			<point x="276.667" y="256.333" type="curve" smooth="yes"/>
			<point x="276.667" y="296.333"/>
			<point x="240.667" y="328.333"/>
			<point x="204" y="328.333" type="curve" smooth="yes"/>
			<point x="165.333" y="328.333"/>
			<point x="131.333" y="293.667"/>
			<point x="131.333" y="256.333" type="curve" smooth="yes"/>
			<point x="131.333" y="219"/>
			<point x="162" y="184.333"/>
		</contour>
	</outline>
</glyph>
<glyph name="uni00B9" format="2">
	<unicode hex="00B9"/>
	<advance width="329"/>
	<outline>
		<contour>
			<point x="257.333" y="633.667" type="curve" smooth="yes"/>
			<point x="268.667" y="633.667"/>
			<point x="268.667" y="624.333"/>
			<point x="262.667" y="592.333" type="curve" smooth="yes"/>
			<point x="232.333" y="445" type="line"/>
			<point x="231.667" y="441.667" type="line" smooth="yes"/>
			<point x="225.333" y="413.667"/>
			<point x="211" y="400"/>
			<point x="193.667" y="396" type="curve" smooth="yes"/>
			<point x="181.667" y="393.333"/>
			<point x="168.333" y="392.667"/>
			<point x="154.333" y="392" type="curve"/>
			<point x="151.667" y="390"/>
			<point x="149.333" y="387"/>
			<point x="148.333" y="383.667" type="curve"/>
			<point x="146.667" y="376"/>
			<point x="145.333" y="368.333"/>
			<point x="146.333" y="363.333" type="curve"/>
			<point x="165" y="364"/>
			<point x="216.333" y="364.333"/>
			<point x="251" y="364.333" type="curve" smooth="yes"/>
			<point x="285" y="364.333"/>
			<point x="318.667" y="364"/>
			<point x="341" y="363.333" type="curve"/>
			<point x="341.667" y="363.333" type="line"/>
			<point x="344" y="369"/>
			<point x="346.667" y="376.667"/>
			<point x="347" y="383.667" type="curve"/>
			<point x="348" y="387"/>
			<point x="347.667" y="389.333"/>
			<point x="346.667" y="391.667" type="curve"/>
			<point x="343.667" y="392"/>
			<point x="340.667" y="392.667"/>
			<point x="338" y="392.667" type="curve" smooth="yes"/>
			<point x="333" y="392.667"/>
			<point x="327" y="393.333"/>
			<point x="322" y="393.333" type="curve"/>
			<point x="307.333" y="396"/>
			<point x="299" y="406.333"/>
			<point x="302" y="430.333" type="curve"/>
			<point x="302.333" y="434.667"/>
			<point x="303" y="440"/>
			<point x="304" y="445" type="curve" smooth="yes"/>
			<point x="358.333" y="705.333" type="line"/>
			<point x="354.667" y="707.333"/>
			<point x="346" y="708"/>
			<point x="339" y="706.667" type="curve" smooth="yes"/>
			<point x="335" y="706"/>
			<point x="332" y="704.667"/>
			<point x="329.333" y="703.333" type="curve" smooth="yes"/>
			<point x="283.333" y="680.333"/>
			<point x="244" y="666"/>
			<point x="196.667" y="649.333" type="curve"/>
			<point x="195" y="638.333"/>
			<point x="195" y="625.333"/>
			<point x="199.333" y="618.333" type="curve"/>
			<point x="222" y="626.667"/>
			<point x="245" y="633.667"/>
		</contour>
	</outline>
</glyph>
<glyph name="guillemotright" format="2">
	<unicode hex="00BB"/>
	<advance width="525"/>
	<outline>
		<contour>
			<point x="495.667" y="223" type="line"/>
			<point x="489" y="230.667"/>
			<point x="480.667" y="239.667"/>
			<point x="476" y="245" type="curve" smooth="yes"/>
			<point x="432.333" y="293.333"/>
			<point x="402" y="333.667"/>
			<point x="358.333" y="407" type="curve"/>
			<point x="348" y="402.333"/>
			<point x="334" y="393.667"/>
			<point x="325.667" y="384.333" type="curve"/>
			<point x="351.333" y="308"/>
			<point x="373.667" y="254.667"/>
			<point x="398.667" y="215" type="curve"/>
			<point x="356.333" y="175.333"/>
			<point x="312.333" y="122.667"/>
			<point x="254" y="45.6667" type="curve"/>
			<point x="258" y="36.3333"/>
			<point x="268.333" y="27.6667"/>
			<point x="276.333" y="23" type="curve"/>
			<point x="352.667" y="97.6667"/>
			<point x="401.667" y="138"/>
			<point x="466.667" y="187.667" type="curve"/>
			<point x="472" y="192.333"/>
			<point x="483.333" y="200.667"/>
			<point x="492" y="207" type="curve"/>
		</contour>
		<contour>
			<point x="323" y="223" type="line"/>
			<point x="316.333" y="230.667"/>
			<point x="308" y="239.667"/>
			<point x="303.333" y="245" type="curve" smooth="yes"/>
			<point x="259.667" y="293.333"/>
			<point x="229.333" y="333.667"/>
			<point x="185.667" y="407" type="curve"/>
			<point x="176" y="402.333"/>
			<point x="161.667" y="393.667"/>
			<point x="153.333" y="384.333" type="curve"/>
			<point x="179" y="308"/>
			<point x="201.333" y="254.667"/>
			<point x="226.333" y="215" type="curve"/>
			<point x="184" y="175.333"/>
			<point x="140" y="122.667"/>
			<point x="81.6667" y="45.6667" type="curve"/>
			<point x="86" y="36.3333"/>
			<point x="96" y="27.6667"/>
			<point x="104.333" y="23" type="curve"/>
			<point x="180" y="97.6667"/>
			<point x="229" y="138"/>
			<point x="294.667" y="187.667" type="curve"/>
			<point x="300" y="192.333"/>
			<point x="311.333" y="200.667"/>
			<point x="320" y="207" type="curve"/>
		</contour>
	</outline>
</glyph>
<glyph name="onequarter" format="2">
	<unicode hex="00BC"/>
	<advance width="687"/>
	<outline>
		<contour>
			<point x="586.667" y="-35.3333" type="curve" smooth="yes"/>
			<point x="591.667" y="-13.3333" type="line"/>
			<point x="643.667" y="-13.3333" type="line"/>
			<point x="656.333" y="26" type="line"/>
			<point x="600.333" y="26" type="line"/>
			<point x="641" y="216.667" type="line" smooth="yes"/>
			<point x="643" y="225.667"/>
			<point x="634.667" y="226.667"/>
			<point x="629.333" y="226.667" type="curve" smooth="yes"/>
			<point x="620.333" y="226.667"/>
			<point x="609.667" y="226.333"/>
			<point x="601.333" y="226.333" type="curve" smooth="yes"/>
			<point x="593.333" y="226.333" type="line"/>
			<point x="579.333" y="217.667"/>
			<point x="569" y="205"/>
			<point x="558.667" y="193.333" type="curve" smooth="yes"/>
			<point x="511" y="140"/>
			<point x="446.667" y="72.3333"/>
			<point x="393.333" y="18" type="curve"/>
			<point x="388" y="13"/>
			<point x="383" y="6.33333"/>
			<point x="379.667" y="-1.33333" type="curve"/>
			<point x="381.667" y="-6"/>
			<point x="384.333" y="-10.6667"/>
			<point x="391" y="-13.3333" type="curve"/>
			<point x="522.333" y="-13.3333" type="line"/>
			<point x="517.333" y="-35.3333" type="line" smooth="yes"/>
			<point x="507" y="-83"/>
			<point x="483" y="-86"/>
			<point x="444.333" y="-88" type="curve"/>
			<point x="437.333" y="-96"/>
			<point x="435" y="-111.667"/>
			<point x="437.333" y="-117.667" type="curve"/>
			<point x="465.333" y="-116.667"/>
			<point x="488.667" y="-116.667"/>
			<point x="519.667" y="-116.667" type="curve" smooth="yes"/>
			<point x="533.667" y="-116.667" type="line" smooth="yes"/>
			<point x="565.667" y="-116.667"/>
			<point x="591.333" y="-116.667"/>
			<point x="617.333" y="-117.667" type="curve"/>
			<point x="622.667" y="-110.667"/>
			<point x="625.667" y="-96"/>
			<point x="623.667" y="-88" type="curve"/>
			<point x="590.333" y="-86"/>
			<point x="576.667" y="-81"/>
		</contour>
		<contour>
			<point x="648.333" y="581" type="line"/>
			<point x="105.333" y="-47.3333" type="line"/>
			<point x="155.333" y="-58.6667" type="line"/>
			<point x="699.333" y="569.667" type="line"/>
		</contour>
		<contour>
			<point x="254.333" y="584.667" type="curve" smooth="yes"/>
			<point x="265.667" y="584.667"/>
			<point x="265.667" y="575.333"/>
			<point x="259.667" y="543.333" type="curve" smooth="yes"/>
			<point x="229.333" y="396" type="line"/>
			<point x="228.667" y="392.667" type="line" smooth="yes"/>
			<point x="222.333" y="364.667"/>
			<point x="208" y="351"/>
			<point x="190.667" y="347" type="curve" smooth="yes"/>
			<point x="178.667" y="344.333"/>
			<point x="165.333" y="343.667"/>
			<point x="151.333" y="343" type="curve"/>
			<point x="148.667" y="341"/>
			<point x="146.333" y="338"/>
			<point x="145.333" y="334.667" type="curve"/>
			<point x="143.667" y="327"/>
			<point x="142.333" y="319.333"/>
			<point x="143.333" y="314.333" type="curve"/>
			<point x="162" y="315"/>
			<point x="213.333" y="315.333"/>
			<point x="248" y="315.333" type="curve" smooth="yes"/>
			<point x="282" y="315.333"/>
			<point x="315.667" y="315"/>
			<point x="338" y="314.333" type="curve"/>
			<point x="338.667" y="314.333" type="line"/>
			<point x="341" y="320"/>
			<point x="343.667" y="327.667"/>
			<point x="344" y="334.667" type="curve"/>
			<point x="345" y="338"/>
			<point x="344.667" y="340.333"/>
			<point x="343.667" y="342.667" type="curve"/>
			<point x="340.667" y="343"/>
			<point x="337.667" y="343.667"/>
			<point x="335" y="343.667" type="curve" smooth="yes"/>
			<point x="330" y="343.667"/>
			<point x="324" y="344.333"/>
			<point x="319" y="344.333" type="curve"/>
			<point x="304.333" y="347"/>
			<point x="296" y="357.333"/>
			<point x="299" y="381.333" type="curve"/>
			<point x="299.333" y="385.667"/>
			<point x="300" y="391"/>
			<point x="301" y="396" type="curve" smooth="yes"/>
			<point x="355.333" y="656.333" type="line"/>
			<point x="351.667" y="658.333"/>
			<point x="343" y="659"/>
			<point x="336" y="657.667" type="curve" smooth="yes"/>
			<point x="332" y="657"/>
			<point x="329" y="655.667"/>
			<point x="326.333" y="654.333" type="curve" smooth="yes"/>
			<point x="280.333" y="631.333"/>
			<point x="241" y="617"/>
			<point x="193.667" y="600.333" type="curve"/>
			<point x="192" y="589.333"/>
			<point x="192" y="576.333"/>
			<point x="196.333" y="569.333" type="curve"/>
			<point x="219" y="577.667"/>
			<point x="242" y="584.667"/>
		</contour>
		<contour>
			<point x="559" y="158.333" type="curve"/>
			<point x="549.333" y="114.333"/>
			<point x="540.667" y="70"/>
			<point x="531" y="26" type="curve"/>
			<point x="436" y="26" type="line"/>
			<point x="480.667" y="70.3333"/>
			<point x="520.333" y="114.667"/>
		</contour>
	</outline>
</glyph>
<glyph name="onehalf" format="2">
	<unicode hex="00BD"/>
	<advance width="687"/>
	<outline>
		<contour>
			<point x="482" y="178" type="curve"/>
			<point x="480.333" y="172.333"/>
			<point x="480.333" y="166.333"/>
			<point x="480.333" y="162" type="curve"/>
			<point x="481" y="149.667"/>
			<point x="489.333" y="141.333"/>
			<point x="504.667" y="141.333" type="curve" smooth="yes"/>
			<point x="521" y="141.333"/>
			<point x="540.667" y="152.667"/>
			<point x="545.667" y="168.667" type="curve"/>
			<point x="547.333" y="172"/>
			<point x="547.333" y="176"/>
			<point x="548" y="180" type="curve"/>
			<point x="548.333" y="184.333"/>
			<point x="549" y="189"/>
			<point x="550" y="194" type="curve"/>
			<point x="551.667" y="199.667"/>
			<point x="554.333" y="210"/>
			<point x="557.333" y="214.333" type="curve" smooth="yes"/>
			<point x="565" y="225.667"/>
			<point x="578" y="231"/>
			<point x="600.333" y="231" type="curve" smooth="yes"/>
			<point x="608.333" y="231"/>
			<point x="620" y="227"/>
			<point x="625" y="218" type="curve"/>
			<point x="629.667" y="211.667"/>
			<point x="632.667" y="202.667"/>
			<point x="632.667" y="190" type="curve" smooth="yes"/>
			<point x="632.667" y="184.333"/>
			<point x="631.667" y="178"/>
			<point x="630.667" y="171.667" type="curve"/>
			<point x="630.333" y="167"/>
			<point x="629" y="162.333"/>
			<point x="628" y="157.667" type="curve"/>
			<point x="621.667" y="133"/>
			<point x="605.667" y="107"/>
			<point x="576.667" y="84" type="curve" smooth="yes"/>
			<point x="566.667" y="76"/>
			<point x="556.333" y="68"/>
			<point x="545.667" y="60" type="curve" smooth="yes"/>
			<point x="533.333" y="50.3333"/>
			<point x="520" y="40.3333"/>
			<point x="508" y="30.3333" type="curve" smooth="yes"/>
			<point x="469.333" y="-2"/>
			<point x="437.667" y="-39"/>
			<point x="429.333" y="-79" type="curve"/>
			<point x="646" y="-79" type="line"/>
			<point x="659" y="-50"/>
			<point x="679.333" y="-8.33333"/>
			<point x="692" y="27.6667" type="curve"/>
			<point x="687.333" y="31"/>
			<point x="677.667" y="32.6667"/>
			<point x="667.667" y="33.3333" type="curve"/>
			<point x="652.333" y="4.66667"/>
			<point x="625.333" y="-28.3333"/>
			<point x="597" y="-30" type="curve"/>
			<point x="594" y="-30.3333"/>
			<point x="591.333" y="-30.3333"/>
			<point x="587.667" y="-30.3333" type="curve" smooth="yes"/>
			<point x="516" y="-30.3333" type="line"/>
			<point x="520" y="-14.3333"/>
			<point x="532.667" y="4"/>
			<point x="555" y="21" type="curve"/>
			<point x="565.667" y="30"/>
			<point x="577.667" y="38.6667"/>
			<point x="589.667" y="47" type="curve"/>
			<point x="602.333" y="56.3333" type="line" smooth="yes"/>
			<point x="626" y="73.3333"/>
			<point x="651.333" y="93.6667"/>
			<point x="668.333" y="109.667" type="curve" smooth="yes"/>
			<point x="691.333" y="131.667"/>
			<point x="701.667" y="150"/>
			<point x="706.333" y="173.333" type="curve"/>
			<point x="708.333" y="181"/>
			<point x="709" y="187.333"/>
			<point x="709" y="194" type="curve"/>
			<point x="709.667" y="213.333"/>
			<point x="703.667" y="227.333"/>
			<point x="691.667" y="238.667" type="curve" smooth="yes"/>
			<point x="673.667" y="256"/>
			<point x="644.333" y="258.667"/>
			<point x="619.667" y="259" type="curve"/>
			<point x="616" y="259"/>
			<point x="612.333" y="259"/>
			<point x="608.667" y="259" type="curve"/>
			<point x="536.333" y="255"/>
			<point x="487.667" y="204"/>
		</contour>
		<contour>
			<point x="641.667" y="581" type="line"/>
			<point x="98.6667" y="-47.3333" type="line"/>
			<point x="148.667" y="-58.6667" type="line"/>
			<point x="692.667" y="569.667" type="line"/>
		</contour>
		<contour>
			<point x="256.333" y="584.667" type="curve" smooth="yes"/>
			<point x="267.667" y="584.667"/>
			<point x="267.667" y="575.333"/>
			<point x="261.667" y="543.333" type="curve" smooth="yes"/>
			<point x="231.333" y="396" type="line"/>
			<point x="230.667" y="392.667" type="line" smooth="yes"/>
			<point x="224.333" y="364.667"/>
			<point x="210" y="351"/>
			<point x="192.667" y="347" type="curve" smooth="yes"/>
			<point x="180.667" y="344.333"/>
			<point x="167.333" y="343.667"/>
			<point x="153.333" y="343" type="curve"/>
			<point x="150.667" y="341"/>
			<point x="148.333" y="338"/>
			<point x="147.333" y="334.667" type="curve"/>
			<point x="145.667" y="327"/>
			<point x="144.333" y="319.333"/>
			<point x="145.333" y="314.333" type="curve"/>
			<point x="164" y="315"/>
			<point x="215.333" y="315.333"/>
			<point x="250" y="315.333" type="curve" smooth="yes"/>
			<point x="284" y="315.333"/>
			<point x="317.667" y="315"/>
			<point x="340" y="314.333" type="curve"/>
			<point x="340.667" y="314.333" type="line"/>
			<point x="343" y="320"/>
			<point x="345.667" y="327.667"/>
			<point x="346" y="334.667" type="curve"/>
			<point x="347" y="338"/>
			<point x="346.667" y="340.333"/>
			<point x="345.667" y="342.667" type="curve"/>
			<point x="342.667" y="343"/>
			<point x="339.667" y="343.667"/>
			<point x="337" y="343.667" type="curve" smooth="yes"/>
			<point x="332" y="343.667"/>
			<point x="326" y="344.333"/>
			<point x="321" y="344.333" type="curve"/>
			<point x="306.333" y="347"/>
			<point x="298" y="357.333"/>
			<point x="301" y="381.333" type="curve"/>
			<point x="301.333" y="385.667"/>
			<point x="302" y="391"/>
			<point x="303" y="396" type="curve" smooth="yes"/>
			<point x="357.333" y="656.333" type="line"/>
			<point x="353.667" y="658.333"/>
			<point x="345" y="659"/>
			<point x="338" y="657.667" type="curve" smooth="yes"/>
			<point x="334" y="657"/>
			<point x="331" y="655.667"/>
			<point x="328.333" y="654.333" type="curve" smooth="yes"/>
			<point x="282.333" y="631.333"/>
			<point x="243" y="617"/>
			<point x="195.667" y="600.333" type="curve"/>
			<point x="194" y="589.333"/>
			<point x="194" y="576.333"/>
			<point x="198.333" y="569.333" type="curve"/>
			<point x="221" y="577.667"/>
			<point x="244" y="584.667"/>
		</contour>
	</outline>
</glyph>
<glyph name="Eth" format="2">
	<unicode hex="00D0"/>
	<advance width="688"/>
	<outline>
		<component base="D"/>
		<contour>
			<point x="262.667" y="285.667" type="line"/>
			<point x="384.667" y="282.333" type="line"/>
			<point x="394" y="328.667" type="line"/>
			<point x="270.667" y="325.333" type="line"/>
		</contour>
		<contour>
			<point x="185.333" y="326" type="line"/>
			<point x="83" y="328.667" type="line"/>
			<point x="73.6667" y="282.333" type="line"/>
			<point x="177" y="285" type="line"/>
		</contour>
	</outline>
</glyph>
<glyph name="multiply" format="2">
	<unicode hex="00D7"/>
	<advance width="527"/>
	<outline>
		<contour>
			<point x="349.667" y="231.333" type="line"/>
			<point x="495" y="351.667" type="line"/>
			<point x="462.333" y="391.333" type="line"/>
			<point x="319.333" y="270.333" type="line"/>
			<point x="223.667" y="391.333" type="line"/>
			<point x="174" y="348.333" type="line"/>
			<point x="269" y="228" type="line"/>
			<point x="126.333" y="110" type="line"/>
			<point x="157.333" y="70.3333" type="line"/>
			<point x="300.667" y="189.667" type="line"/>
			<point x="398" y="70.3333" type="line"/>
			<point x="446.333" y="110" type="line"/>
		</contour>
	</outline>
</glyph>
<glyph name="divide" format="2">
	<unicode hex="00F7"/>
	<advance width="527"/>
	<outline>
		<contour>
			<point x="523" y="268" type="line"/>
			<point x="128" y="268" type="line"/>
			<point x="116" y="219" type="line"/>
			<point x="512" y="219" type="line"/>
		</contour>
		<contour>
			<point name=".hr01" x="302" y="397" type="curve" smooth="yes"/>
			<point x="302" y="375"/>
			<point x="317" y="359"/>
			<point x="341" y="359" type="curve" smooth="yes"/>
			<point x="370" y="359"/>
			<point x="403" y="386"/>
			<point x="403" y="419" type="curve" smooth="yes"/>
			<point x="403" y="441"/>
			<point x="387" y="458"/>
			<point x="364" y="458" type="curve" smooth="yes"/>
			<point name=".hr02" x="331" y="458"/>
			<point name=".hr03" x="302" y="428"/>
		</contour>
		<contour>
			<point x="230" y="72" type="curve" smooth="yes"/>
			<point name=".hr04" x="230" y="50"/>
			<point x="246" y="34"/>
			<point x="269" y="34" type="curve" smooth="yes"/>
			<point x="298" y="34"/>
			<point x="331" y="60"/>
			<point x="331" y="94" type="curve" smooth="yes"/>
			<point x="331" y="116"/>
			<point x="315" y="132"/>
			<point x="292" y="132" type="curve" smooth="yes"/>
			<point x="259" y="132"/>
			<point x="230" y="102"/>
		</contour>
	</outline>
</glyph>
<glyph name="oslash" format="2">
	<unicode hex="00F8"/>
	<advance width="468"/>
	<outline>
		<contour>
			<point x="475.333" y="473" type="line"/>
			<point x="428.333" y="416.667" type="line"/>
			<point x="407.333" y="429.333"/>
			<point x="380" y="437.667"/>
			<point x="344.667" y="438.667" type="curve"/>
			<point x="338.667" y="439"/>
			<point x="333" y="439"/>
			<point x="326.667" y="438.333" type="curve"/>
			<point x="286" y="436.333"/>
			<point x="249.667" y="424.667"/>
			<point x="218.333" y="406.667" type="curve" smooth="yes"/>
			<point x="125.667" y="355.333"/>
			<point x="74" y="249.667"/>
			<point x="74" y="162" type="curve" smooth="yes"/>
			<point x="74" y="127"/>
			<point x="81.3333" y="75"/>
			<point x="112" y="37.3333" type="curve"/>
			<point x="67.6667" y="-15.6667" type="line"/>
			<point x="100.667" y="-43.3333" type="line"/>
			<point x="144.333" y="9" type="line"/>
			<point x="164.667" y="-3"/>
			<point x="190" y="-10"/>
			<point x="222.667" y="-10" type="curve" smooth="yes"/>
			<point x="256.667" y="-10"/>
			<point x="295" y="-4"/>
			<point x="324.667" y="8.33333" type="curve" smooth="yes"/>
			<point x="329.667" y="10.3333"/>
			<point x="334.333" y="12.6667"/>
			<point x="338.667" y="14.6667" type="curve"/>
			<point x="423.333" y="60"/>
			<point x="491.667" y="152.333"/>
			<point x="491.667" y="279.667" type="curve" smooth="yes"/>
			<point x="491.667" y="316.333"/>
			<point x="483.667" y="357"/>
			<point x="459.333" y="388" type="curve"/>
			<point x="509" y="448.333" type="line"/>
		</contour>
		<contour>
			<point x="370" y="347" type="curve"/>
			<point x="190.333" y="131" type="line"/>
			<point x="188.667" y="140.667"/>
			<point x="188.333" y="151"/>
			<point x="188" y="162" type="curve" smooth="yes"/>
			<point x="187.667" y="170"/>
			<point x="187.667" y="178"/>
			<point x="187.667" y="185.333" type="curve"/>
			<point x="189.667" y="279.333"/>
			<point x="218" y="400"/>
			<point x="315.333" y="400" type="curve" smooth="yes"/>
			<point x="340" y="400"/>
			<point x="354" y="386"/>
			<point x="364.333" y="364" type="curve"/>
			<point x="366.667" y="358.667"/>
			<point x="368.333" y="353"/>
		</contour>
		<contour>
			<point x="377.667" y="290.333" type="line"/>
			<point x="378" y="281"/>
			<point x="378" y="272"/>
			<point x="378" y="263.333" type="curve" smooth="yes"/>
			<point x="378" y="216"/>
			<point x="372.667" y="137.333"/>
			<point x="342.333" y="86" type="curve" smooth="yes"/>
			<point x="322.667" y="52.6667"/>
			<point x="294.667" y="32.6667"/>
			<point x="257.333" y="31" type="curve" smooth="yes"/>
			<point x="252" y="30.6667"/>
			<point x="246.333" y="31"/>
			<point x="241" y="32.3333" type="curve" smooth="yes"/>
			<point x="226.667" y="35.6667"/>
			<point x="211" y="49"/>
			<point x="201" y="77.6667" type="curve"/>
		</contour>
	</outline>
</glyph>
<glyph name="Aogonek" format="2">
	<unicode hex="0104"/>
	<advance width="705"/>
	<outline>
		<contour>
			<point x="684.333" y="-168.667" type="curve"/>
			<point x="670" y="-151" type="line"/>
			<point x="653.667" y="-166.667"/>
			<point x="631.333" y="-173"/>
			<point x="612" y="-174.333" type="curve"/>
			<point x="610.667" y="-174.667"/>
			<point x="609" y="-174.667"/>
			<point x="607.333" y="-174.667" type="curve" smooth="yes"/>
			<point x="585.333" y="-174.667"/>
			<point x="567.667" y="-161.333"/>
			<point x="567.667" y="-131" type="curve" smooth="yes"/>
			<point x="567.667" y="-70.6667"/>
			<point x="618" y="-5"/>
			<point x="678.667" y="-1" type="curve"/>
			<point x="679" y="-1" type="line"/>
			<point x="685.333" y="-1.33333"/>
			<point x="691.667" y="-1.33333"/>
			<point x="696.667" y="-1" type="curve"/>
			<point x="700.333" y="3.66667"/>
			<point x="702.667" y="13.3333"/>
			<point x="703.667" y="21.3333" type="curve"/>
			<point x="703.667" y="25.3333"/>
			<point x="702.333" y="29.3333"/>
			<point x="699.667" y="30.6667" type="curve"/>
			<point x="695" y="31.3333"/>
			<point x="690.667" y="31.3333"/>
			<point x="686" y="32" type="curve"/>
			<point x="652" y="34"/>
			<point x="630.667" y="43.6667"/>
			<point x="624" y="86" type="curve" smooth="yes"/>
			<point x="533" y="627.333" type="line"/>
			<point x="530" y="642.667"/>
			<point x="527" y="652.667"/>
			<point x="520.333" y="659.333" type="curve"/>
			<point x="509.333" y="654.667"/>
			<point x="480" y="637.667"/>
			<point x="453" y="622.667" type="curve"/>
			<point x="445.667" y="620"/>
			<point x="439" y="618.667"/>
			<point x="433" y="618.667" type="curve"/>
			<point x="123.333" y="104" type="line" smooth="yes"/>
			<point x="118.667" y="96.3333"/>
			<point x="114.333" y="89.3333"/>
			<point x="109.667" y="82.3333" type="curve" smooth="yes"/>
			<point x="84.3333" y="45"/>
			<point x="60.6667" y="33.3333"/>
			<point x="27" y="31.3333" type="curve"/>
			<point x="23" y="31.3333" type="line" smooth="yes"/>
			<point x="19" y="31.3333"/>
			<point x="15.6667" y="30.3333"/>
			<point x="11.6667" y="30" type="curve"/>
			<point x="10" y="28.3333"/>
			<point x="8.33333" y="25"/>
			<point x="6.66667" y="21.3333" type="curve"/>
			<point x="4.33333" y="13.3333"/>
			<point x="3" y="3.66667"/>
			<point x="4.66667" y="-1" type="curve"/>
			<point x="5.33333" y="-1.66667" type="line"/>
			<point x="29.3333" y="-1"/>
			<point x="63" y="0.333333"/>
			<point x="96" y="0.333333" type="curve" smooth="yes"/>
			<point x="130.333" y="0.333333"/>
			<point x="198.333" y="-1"/>
			<point x="221.667" y="-1.66667" type="curve"/>
			<point x="223.333" y="0"/>
			<point x="224.667" y="2.66667"/>
			<point x="226.333" y="5.66667" type="curve"/>
			<point x="228.667" y="13.6667"/>
			<point x="230" y="23.3333"/>
			<point x="228.333" y="28" type="curve"/>
			<point x="227.667" y="29.6667"/>
			<point x="226.667" y="30.6667"/>
			<point x="224.667" y="30.6667" type="curve"/>
			<point x="213.333" y="31.3333"/>
			<point x="202.333" y="32"/>
			<point x="191.667" y="34" type="curve"/>
			<point x="172" y="36"/>
			<point x="159" y="43"/>
			<point x="160.333" y="57.6667" type="curve"/>
			<point x="160.333" y="62.3333"/>
			<point x="162" y="67"/>
			<point x="165.333" y="73" type="curve"/>
			<point x="165.667" y="74.3333"/>
			<point x="166.333" y="75.6667"/>
			<point x="167" y="76.6667" type="curve"/>
			<point x="249.667" y="221" type="line" smooth="yes"/>
			<point x="256.667" y="233.333"/>
			<point x="264" y="238"/>
			<point x="287.667" y="238" type="curve" smooth="yes"/>
			<point x="479" y="238" type="line"/>
			<point x="504.667" y="72" type="line"/>
			<point x="505" y="70.6667"/>
			<point x="505" y="69.6667"/>
			<point x="505" y="68.3333" type="curve"/>
			<point x="507" y="40.6667"/>
			<point x="487" y="33.3333"/>
			<point x="458.333" y="32" type="curve"/>
			<point x="452.667" y="32"/>
			<point x="447.333" y="31.3333"/>
			<point x="441.667" y="31.3333" type="curve" smooth="yes"/>
			<point x="438" y="31.3333"/>
			<point x="434.667" y="31.3333"/>
			<point x="431.667" y="31.3333" type="curve"/>
			<point x="429" y="30.6667"/>
			<point x="426.333" y="30.3333"/>
			<point x="423.667" y="30" type="curve"/>
			<point x="422" y="28.3333"/>
			<point x="420.333" y="25"/>
			<point x="418.667" y="21.3333" type="curve"/>
			<point x="417.667" y="16"/>
			<point x="416.667" y="11"/>
			<point x="416.333" y="5.66667" type="curve"/>
			<point x="416.333" y="3"/>
			<point x="416.333" y="0"/>
			<point x="418" y="-1.33333" type="curve"/>
			<point x="418" y="-1.66667" type="line"/>
			<point x="442" y="-1"/>
			<point x="535.333" y="0.333333"/>
			<point x="572" y="0.333333" type="curve" smooth="yes"/>
			<point x="594.333" y="0.333333" type="line"/>
			<point x="538.667" y="-29"/>
			<point x="490.667" y="-84.3333"/>
			<point x="486.667" y="-132.667" type="curve"/>
			<point x="485.667" y="-140"/>
			<point x="485.333" y="-147"/>
			<point x="486" y="-153.667" type="curve" smooth="yes"/>
			<point x="489.333" y="-182.333"/>
			<point x="503" y="-202"/>
			<point x="522.667" y="-213.667" type="curve" smooth="yes"/>
			<point x="534" y="-220.667"/>
			<point x="547.333" y="-225"/>
			<point x="562" y="-227" type="curve" smooth="yes"/>
			<point x="566.667" y="-227.667"/>
			<point x="570.667" y="-227.667"/>
			<point x="575.333" y="-227.333" type="curve"/>
			<point x="613" y="-226"/>
			<point x="657.667" y="-206.667"/>
		</contour>
		<contour>
			<point x="314.333" y="283" type="line" smooth="yes"/>
			<point x="294.667" y="283"/>
			<point x="287.667" y="286.333"/>
			<point x="291.667" y="294.667" type="curve" smooth="yes"/>
			<point x="295" y="301.667"/>
			<point x="299.333" y="309"/>
			<point x="303.333" y="316.333" type="curve"/>
			<point x="422" y="519.667" type="line"/>
			<point x="432" y="530" type="line"/>
			<point x="471" y="283" type="line"/>
		</contour>
	</outline>
</glyph>
<glyph name="Eogonek" format="2">
	<unicode hex="0118"/>
	<advance width="561"/>
	<outline>
		<contour>
			<point x="513.333" y="-171.667" type="curve"/>
			<point x="498.333" y="-153.667" type="line"/>
			<point x="485.667" y="-166.667"/>
			<point x="471" y="-175"/>
			<point x="453" y="-176.333" type="curve"/>
			<point x="444.333" y="-177.667"/>
			<point x="436" y="-177"/>
			<point x="428.667" y="-175.667" type="curve" smooth="yes"/>
			<point x="410.667" y="-172.333"/>
			<point x="395" y="-159"/>
			<point x="395" y="-130" type="curve" smooth="yes"/>
			<point x="395" y="-74.6667"/>
			<point x="433.667" y="-15.6667"/>
			<point x="484" y="-4.33333" type="curve"/>
			<point x="496.333" y="-2.33333"/>
			<point x="507" y="-1.33333"/>
			<point x="512.667" y="-1.33333" type="curve"/>
			<point x="513" y="6.66667"/>
			<point x="513.333" y="15.6667"/>
			<point x="513" y="24.3333" type="curve"/>
			<point x="511.667" y="24"/>
			<point x="510.333" y="24"/>
			<point x="509" y="23.6667" type="curve"/>
			<point x="527.333" y="69.6667"/>
			<point x="543.333" y="122.333"/>
			<point x="559.667" y="165" type="curve"/>
			<point x="550.333" y="169.667"/>
			<point x="534" y="171.333"/>
			<point x="522" y="170" type="curve"/>
			<point x="490.333" y="101.333"/>
			<point x="441.333" y="46.3333"/>
			<point name=".hr01" x="373" y="41.6667" type="curve"/>
			<point x="368.667" y="41"/>
			<point x="363.667" y="41"/>
			<point x="359" y="41" type="curve" smooth="yes"/>
			<point x="265.333" y="41" type="line"/>
			<point x="255.667" y="41" type="line" smooth="yes"/>
			<point x="241" y="41"/>
			<point x="230.333" y="47.6667"/>
			<point x="227" y="61.3333" type="curve"/>
			<point x="225" y="67.6667"/>
			<point x="224.333" y="75.3333"/>
			<point x="226" y="84" type="curve" smooth="yes"/>
			<point x="271.667" y="319" type="line"/>
			<point x="355.333" y="319" type="line" smooth="yes"/>
			<point x="369.667" y="319"/>
			<point x="381.333" y="318.333"/>
			<point x="391" y="317" type="curve" smooth="yes"/>
			<point x="415.667" y="313.667"/>
			<point x="426.333" y="305.333"/>
			<point x="428.333" y="287" type="curve"/>
			<point x="429" y="283.667"/>
			<point x="428.667" y="279.333"/>
			<point x="428.667" y="275.667" type="curve"/>
			<point x="428" y="267.333" type="line"/>
			<point x="428" y="263.667"/>
			<point x="428" y="259.667"/>
			<point x="427.333" y="255" type="curve"/>
			<point x="429" y="253"/>
			<point x="432.333" y="252"/>
			<point x="436.333" y="251.333" type="curve"/>
			<point x="442.667" y="250.667"/>
			<point x="449" y="250.667"/>
			<point x="454.667" y="251.333" type="curve"/>
			<point x="459" y="252.333"/>
			<point x="462.667" y="253"/>
			<point x="464.333" y="254.667" type="curve"/>
			<point x="465" y="255" type="line"/>
			<point x="470.333" y="291.667"/>
			<point x="474" y="313.333"/>
			<point x="480" y="342.667" type="curve" smooth="yes"/>
			<point x="485.667" y="372"/>
			<point x="490.667" y="396.667"/>
			<point x="499" y="430" type="curve"/>
			<point x="498" y="431.333" type="line"/>
			<point x="493.667" y="434"/>
			<point x="482" y="434.667"/>
			<point x="472.333" y="434" type="curve"/>
			<point x="467" y="433.333"/>
			<point x="462.333" y="431.333"/>
			<point x="460.667" y="428.667" type="curve"/>
			<point x="458" y="418"/>
			<point x="454.333" y="408.333"/>
			<point x="451" y="400.333" type="curve" smooth="yes"/>
			<point x="441.333" y="377.667"/>
			<point x="426.667" y="367.667"/>
			<point x="398.333" y="365.667" type="curve" smooth="yes"/>
			<point x="388" y="365"/>
			<point x="377" y="365"/>
			<point x="364.667" y="365" type="curve" smooth="yes"/>
			<point x="281" y="365" type="line"/>
			<point x="318.333" y="559.667" type="line" smooth="yes"/>
			<point x="322.667" y="580.333"/>
			<point x="336.667" y="597"/>
			<point x="356.333" y="601.667" type="curve"/>
			<point x="360.667" y="603"/>
			<point x="365" y="603.667"/>
			<point x="369.667" y="603.667" type="curve" smooth="yes"/>
			<point x="448.333" y="603.667" type="line" smooth="yes"/>
			<point x="454.333" y="603.667"/>
			<point x="460" y="603.667"/>
			<point x="465" y="603" type="curve"/>
			<point x="526.333" y="599"/>
			<point x="537" y="561"/>
			<point x="544.333" y="496" type="curve"/>
			<point x="555.333" y="495.333"/>
			<point x="572" y="497"/>
			<point x="581.667" y="501" type="curve"/>
			<point x="585" y="542"/>
			<point x="595.667" y="638"/>
			<point x="595.667" y="646" type="curve" smooth="yes"/>
			<point x="595.667" y="648"/>
			<point x="595.333" y="649"/>
			<point x="592.333" y="649" type="curve"/>
			<point x="575.333" y="646"/>
			<point x="568" y="645"/>
			<point x="545" y="645" type="curve" smooth="yes"/>
			<point x="275.333" y="645" type="line" smooth="yes"/>
			<point x="263" y="645"/>
			<point x="183.333" y="646"/>
			<point x="136.333" y="647" type="curve"/>
			<point x="134.667" y="645.333"/>
			<point x="133.333" y="642.667"/>
			<point name=".hr02" x="131.667" y="639.667" type="curve"/>
			<point x="130.667" y="634"/>
			<point x="129.333" y="629.333"/>
			<point x="129" y="623.667" type="curve"/>
			<point x="129" y="620.667"/>
			<point x="128.667" y="617.333"/>
			<point x="130.333" y="615.333" type="curve"/>
			<point x="135.333" y="615"/>
			<point x="140" y="614"/>
			<point x="145" y="614" type="curve"/>
			<point x="155.333" y="613"/>
			<point x="164.667" y="612.333"/>
			<point x="173" y="610.667" type="curve" smooth="yes"/>
			<point x="193" y="606.667"/>
			<point x="202" y="598.667"/>
			<point x="203.333" y="580.333" type="curve"/>
			<point x="203.333" y="575.667"/>
			<point x="203" y="571.333"/>
			<point x="202.667" y="565.667" type="curve"/>
			<point x="201" y="553.333"/>
			<point x="198.667" y="540"/>
			<point x="195.667" y="523.667" type="curve" smooth="yes"/>
			<point x="118" y="120" type="line" smooth="yes"/>
			<point x="115" y="105"/>
			<point x="112" y="91.6667"/>
			<point x="109" y="80" type="curve"/>
			<point x="100.333" y="50"/>
			<point x="87" y="38"/>
			<point x="58.3333" y="33.6667" type="curve"/>
			<point x="49.6667" y="32.6667"/>
			<point x="40.6667" y="32"/>
			<point x="30" y="31" type="curve"/>
			<point x="25.6667" y="31"/>
			<point x="21" y="30"/>
			<point x="16.6667" y="29.6667" type="curve"/>
			<point x="14.6667" y="27.6667"/>
			<point x="13.3333" y="24.6667"/>
			<point x="11.6667" y="21.3333" type="curve"/>
			<point x="9.33333" y="13"/>
			<point x="8" y="3.66667"/>
			<point x="9.66667" y="-1.33333" type="curve"/>
			<point x="10.3333" y="-2" type="line"/>
			<point x="50.6667" y="-1"/>
			<point name=".hr03" x="112" y="0"/>
			<point x="143" y="0" type="curve" smooth="yes"/>
			<point x="155.333" y="0" type="line"/>
			<point x="369.667" y="0" type="line" smooth="yes"/>
			<point x="383" y="0"/>
			<point x="399" y="0"/>
			<point x="415.333" y="-0.333333" type="curve"/>
			<point x="359.333" y="-31.3333"/>
			<point x="313.667" y="-90"/>
			<point x="313.667" y="-138.333" type="curve" smooth="yes"/>
			<point x="313.667" y="-172.333"/>
			<point x="326.333" y="-195"/>
			<point x="345.333" y="-209.333" type="curve" smooth="yes"/>
			<point x="357.667" y="-219"/>
			<point x="372.667" y="-226"/>
			<point x="389.667" y="-228" type="curve" smooth="yes"/>
			<point x="402.333" y="-229.667"/>
			<point x="416.667" y="-229.333"/>
			<point x="430.667" y="-226.667" type="curve" smooth="yes"/>
			<point x="460" y="-220.667"/>
			<point x="494" y="-203.333"/>
		</contour>
	</outline>
</glyph>
<glyph name="uni0123" format="2">
	<unicode hex="0123"/>
	<advance width="490"/>
	<outline>
		<contour>
			<point x="435" y="291" type="curve" smooth="yes"/>
			<point x="435" y="318"/>
			<point x="430.333" y="350.667"/>
			<point x="416.333" y="370.667" type="curve"/>
			<point x="431.333" y="384.667"/>
			<point x="449" y="398.333"/>
			<point x="457.333" y="398.333" type="curve" smooth="yes"/>
			<point x="467" y="398.333"/>
			<point x="470.667" y="392.667"/>
			<point x="474.333" y="387" type="curve"/>
			<point x="480" y="377.667"/>
			<point x="487.667" y="367.333"/>
			<point x="505.667" y="367.333" type="curve" smooth="yes"/>
			<point x="526.333" y="367.333"/>
			<point x="540.667" y="383.333"/>
			<point x="540.667" y="405" type="curve" smooth="yes"/>
			<point x="540.667" y="425.667"/>
			<point x="522.667" y="443.667"/>
			<point x="497" y="443.667" type="curve" smooth="yes"/>
			<point x="467" y="443.667"/>
			<point x="432.333" y="432.333"/>
			<point x="397.333" y="400.333" type="curve"/>
			<point x="375.333" y="426.333"/>
			<point x="330.667" y="439"/>
			<point x="286.667" y="439" type="curve" smooth="yes"/>
			<point x="178.667" y="439"/>
			<point x="122" y="368.333"/>
			<point x="118" y="291.667" type="curve"/>
			<point x="117.333" y="289"/>
			<point x="117.333" y="285.667"/>
			<point x="117.333" y="283" type="curve" smooth="yes"/>
			<point x="117.333" y="239"/>
			<point x="135.667" y="191"/>
			<point x="170" y="165" type="curve"/>
			<point x="133" y="137"/>
			<point x="112" y="97"/>
			<point name=".hr01" x="110" y="64" type="curve"/>
			<point x="109.333" y="61.3333"/>
			<point x="109.333" y="58.6667"/>
			<point x="109.333" y="56" type="curve" smooth="yes"/>
			<point x="109.333" y="41.3333"/>
			<point x="112.667" y="13.6667"/>
			<point x="142" y="1.33333" type="curve"/>
			<point x="89" y="-27.6667"/>
			<point x="0.333333" y="-76"/>
			<point x="0.333333" y="-136" type="curve" smooth="yes"/>
			<point x="0.333333" y="-217"/>
			<point x="124.667" y="-238"/>
			<point x="205.667" y="-238" type="curve" smooth="yes"/>
			<point x="342.667" y="-238"/>
			<point x="447" y="-199"/>
			<point x="447" y="-100" type="curve" smooth="yes"/>
			<point x="447" y="-38.3333"/>
			<point x="392.333" y="0"/>
			<point x="340.333" y="18" type="curve"/>
			<point name=".hr02" x="335" y="19.3333"/>
			<point x="330.333" y="21.3333"/>
			<point x="325.667" y="22.3333" type="curve"/>
			<point x="250" y="44.3333"/>
			<point x="200" y="58.3333"/>
			<point x="192.333" y="84.6667" type="curve"/>
			<point x="192" y="85.6667"/>
			<point x="192" y="86.6667"/>
			<point x="192" y="88" type="curve"/>
			<point x="188" y="107.333"/>
			<point x="192.667" y="132"/>
			<point x="201.667" y="149" type="curve"/>
			<point name=".hr03" x="217.667" y="139"/>
			<point x="241.667" y="132"/>
			<point x="269.667" y="132" type="curve" smooth="yes"/>
			<point x="356.667" y="132"/>
			<point x="435" y="192"/>
		</contour>
		<contour>
			<point x="167.667" y="-9.66667" type="curve"/>
			<point x="184.333" y="-13.6667"/>
			<point x="245.667" y="-37.6667"/>
			<point x="280.667" y="-53.3333" type="curve" smooth="yes"/>
			<point x="285.667" y="-55.6667"/>
			<point x="290.667" y="-58"/>
			<point x="295.333" y="-60.6667" type="curve"/>
			<point x="346.667" y="-85.3333"/>
			<point x="355.333" y="-98"/>
			<point name=".hr04" x="355.333" y="-127" type="curve" smooth="yes"/>
			<point x="355.333" y="-159.667"/>
			<point x="332.667" y="-201.667"/>
			<point x="246.667" y="-201.667" type="curve" smooth="yes"/>
			<point x="134.667" y="-201.667"/>
			<point x="87.3333" y="-168"/>
			<point x="87.3333" y="-113" type="curve" smooth="yes"/>
			<point x="87.3333" y="-65"/>
			<point x="142.667" y="-27.6667"/>
		</contour>
		<contour>
			<point x="334.333" y="291" type="curve" smooth="yes"/>
			<point x="334.333" y="284.667"/>
			<point name=".hr05" x="334.333" y="278"/>
			<point x="334" y="271.667" type="curve"/>
			<point x="333.667" y="217.333"/>
			<point x="328.333" y="168.667"/>
			<point x="274.667" y="168.667" type="curve" smooth="yes"/>
			<point x="221.667" y="168.667"/>
			<point x="217.667" y="218.333"/>
			<point x="218.333" y="263" type="curve"/>
			<point x="218" y="269.333"/>
			<point x="218" y="276"/>
			<point x="218" y="282" type="curve" smooth="yes"/>
			<point x="218" y="289.333"/>
			<point x="218" y="296.667"/>
			<point x="218.333" y="303.667" type="curve"/>
			<point x="218.333" y="364"/>
			<point x="223.667" y="402.333"/>
			<point x="282.667" y="402.333" type="curve" smooth="yes"/>
			<point x="325.667" y="402.333"/>
			<point x="334.333" y="359"/>
		</contour>
		<contour>
			<point x="309" y="511" type="curve" smooth="yes"/>
			<point x="344" y="511"/>
			<point x="365" y="536"/>
			<point x="369" y="552" type="curve"/>
			<point x="372" y="569"/>
			<point x="367" y="593"/>
			<point x="327" y="593" type="curve" smooth="yes"/>
			<point x="321" y="593"/>
			<point x="316" y="593"/>
			<point x="312" y="592" type="curve"/>
			<point x="300" y="591"/>
			<point x="297" y="591"/>
			<point x="301" y="606" type="curve"/>
			<point x="305" y="629"/>
			<point x="332" y="661"/>
			<point x="391" y="673" type="curve"/>
			<point x="393" y="680"/>
			<point x="394" y="689"/>
			<point x="390" y="693" type="curve"/>
			<point x="351" y="688"/>
			<point x="320" y="671"/>
			<point x="299" y="650" type="curve" smooth="yes"/>
			<point x="278" y="630"/>
			<point x="267" y="608"/>
			<point x="262" y="584" type="curve" smooth="yes"/>
			<point x="255" y="548"/>
			<point x="270" y="511"/>
		</contour>
	</outline>
</glyph>
<glyph name="Iogonek" format="2">
	<unicode hex="012E"/>
	<advance width="327"/>
	<outline>
		<contour>
			<point x="307.333" y="-172" type="curve"/>
			<point x="292.333" y="-154" type="line"/>
			<point x="277" y="-170"/>
			<point x="255.333" y="-176.333"/>
			<point x="236.333" y="-177.667" type="curve"/>
			<point x="235" y="-178"/>
			<point x="233.333" y="-178"/>
			<point x="231.667" y="-178" type="curve" smooth="yes"/>
			<point x="211.667" y="-178"/>
			<point x="193.667" y="-166.667"/>
			<point x="190.667" y="-139" type="curve"/>
			<point x="189.667" y="-136.333"/>
			<point x="189" y="-133.333"/>
			<point x="189" y="-130.333" type="curve" smooth="yes"/>
			<point x="189" y="-72.3333"/>
			<point x="232.667" y="-8.66667"/>
			<point x="289.333" y="-1.33333" type="curve"/>
			<point x="292" y="-1.33333" type="line"/>
			<point x="292" y="-1.33333"/>
			<point x="292" y="-1"/>
			<point x="292.333" y="-1" type="curve"/>
			<point x="294" y="-1" type="line" smooth="yes"/>
			<point x="298.333" y="-1"/>
			<point x="301.667" y="-0.666667"/>
			<point x="305.333" y="0" type="curve"/>
			<point x="313.333" y="6.33333"/>
			<point x="315.667" y="25"/>
			<point x="309.667" y="30.3333" type="curve"/>
			<point x="295.333" y="31.3333"/>
			<point x="282.667" y="32.3333"/>
			<point x="272.333" y="34.6667" type="curve"/>
			<point x="247.333" y="39"/>
			<point x="237" y="51.3333"/>
			<point x="239" y="79.3333" type="curve" smooth="yes"/>
			<point x="240.333" y="93"/>
			<point x="243" y="108.333"/>
			<point x="246" y="126" type="curve" smooth="yes"/>
			<point x="324.667" y="528.667" type="line"/>
			<point x="326.667" y="537.333"/>
			<point x="328" y="545.667"/>
			<point x="330" y="553.667" type="curve" smooth="yes"/>
			<point x="340.667" y="594.333"/>
			<point x="359" y="607.667"/>
			<point x="392.667" y="611.667" type="curve"/>
			<point x="402" y="613.333"/>
			<point x="411.667" y="613.667"/>
			<point x="422.333" y="614.667" type="curve"/>
			<point x="431" y="620"/>
			<point x="434.333" y="640"/>
			<point x="427.667" y="647" type="curve"/>
			<point x="389.333" y="646"/>
			<point x="338" y="645"/>
			<point x="298.333" y="645" type="curve" smooth="yes"/>
			<point x="290.333" y="645" type="line" smooth="yes"/>
			<point x="252.333" y="645"/>
			<point x="189.333" y="646"/>
			<point x="149.333" y="647" type="curve"/>
			<point x="141" y="641.667"/>
			<point x="137.333" y="620.333"/>
			<point x="143.667" y="614.667" type="curve"/>
			<point x="161.333" y="613.667"/>
			<point x="176.667" y="612"/>
			<point x="187.667" y="607.667" type="curve"/>
			<point x="208.667" y="602"/>
			<point x="216.333" y="590.333"/>
			<point x="215" y="565.667" type="curve"/>
			<point x="213.667" y="552"/>
			<point x="211" y="536.667"/>
			<point x="208" y="519" type="curve" smooth="yes"/>
			<point x="129.333" y="116.333" type="line" smooth="yes"/>
			<point x="126.667" y="101.667"/>
			<point x="123.333" y="90"/>
			<point x="120" y="79.3333" type="curve" smooth="yes"/>
			<point x="109.333" y="48"/>
			<point x="92.3333" y="36.6667"/>
			<point x="61.3333" y="33.3333" type="curve"/>
			<point x="52" y="31.6667"/>
			<point x="42.3333" y="31.3333"/>
			<point x="31.6667" y="30.3333" type="curve"/>
			<point x="23" y="25"/>
			<point x="19.6667" y="5"/>
			<point x="26.3333" y="-2" type="curve"/>
			<point x="64.6667" y="-1"/>
			<point x="117.333" y="0"/>
			<point x="157" y="0" type="curve" smooth="yes"/>
			<point x="165" y="0" type="line"/>
			<point x="209.667" y="0" type="line"/>
			<point x="155.667" y="-30"/>
			<point x="109.667" y="-87"/>
			<point x="108" y="-135" type="curve"/>
			<point x="107.667" y="-136.333"/>
			<point x="107.667" y="-137.333"/>
			<point x="107.667" y="-138.667" type="curve" smooth="yes"/>
			<point x="107.667" y="-178"/>
			<point x="125" y="-203.333"/>
			<point x="150.333" y="-217.667" type="curve" smooth="yes"/>
			<point x="161.667" y="-224"/>
			<point x="174.667" y="-228.333"/>
			<point x="188.667" y="-230.333" type="curve" smooth="yes"/>
			<point x="193.333" y="-231"/>
			<point x="197" y="-231"/>
			<point x="201.667" y="-230.667" type="curve"/>
			<point x="239.333" y="-229.667"/>
			<point x="282.667" y="-210"/>
		</contour>
	</outline>
</glyph>
<glyph name="dotlessi" format="2">
	<unicode hex="0131"/>
	<advance width="320"/>
	<outline>
		<contour>
			<point x="155.667" y="249.333" type="line"/>
			<point x="126" y="114.333" type="line" smooth="yes"/>
			<point x="115.667" y="67"/>
			<point x="113.667" y="54"/>
			<point x="113.667" y="41.3333" type="curve" smooth="yes"/>
			<point x="113.667" y="12"/>
			<point x="124.667" y="-10.6667"/>
			<point x="162" y="-10.6667" type="curve" smooth="yes"/>
			<point x="224.667" y="-10.6667"/>
			<point x="285.667" y="22.6667"/>
			<point x="331.667" y="81.6667" type="curve"/>
			<point x="328.667" y="90.6667"/>
			<point x="318.667" y="106"/>
			<point x="304.667" y="106" type="curve"/>
			<point x="278.667" y="76"/>
			<point x="246.333" y="58"/>
			<point x="236" y="58" type="curve" smooth="yes"/>
			<point x="229.333" y="58"/>
			<point x="225.667" y="64.3333"/>
			<point x="225.667" y="73.3333" type="curve" smooth="yes"/>
			<point x="225.667" y="83.3333"/>
			<point x="230" y="106"/>
			<point x="234" y="123.333" type="curve" smooth="yes"/>
			<point x="261.667" y="249.333" type="line"/>
		</contour>
		<contour>
			<point x="261.667" y="249.333" type="line"/>
			<point x="277" y="319.333" type="line" smooth="yes"/>
			<point x="287.667" y="367"/>
			<point x="299.333" y="403"/>
			<point x="299.333" y="419" type="curve" smooth="yes"/>
			<point x="299.333" y="430.333"/>
			<point x="293.667" y="436"/>
			<point x="284" y="436" type="curve"/>
			<point x="252.667" y="430.333"/>
			<point x="168.667" y="423.667"/>
			<point x="121" y="423" type="curve"/>
			<point x="114" y="415"/>
			<point x="114" y="396.667"/>
			<point x="120" y="387.667" type="curve"/>
			<point x="160" y="384.667" type="line" smooth="yes"/>
			<point x="172" y="383.667"/>
			<point x="178" y="374.667"/>
			<point x="178" y="363" type="curve" smooth="yes"/>
			<point x="178" y="355.667"/>
			<point x="175.667" y="342.333"/>
			<point x="171" y="320.333" type="curve" smooth="yes"/>
			<point x="155.667" y="249.333" type="line"/>
		</contour>
	</outline>
	<anchor name="t.uni0302" x="259.667" y="500"/>
	<guideline x="0" y="250" angle="0"/>
</glyph>
<glyph name="IJ" format="2">
	<unicode hex="0132"/>
	<advance width="674"/>
	<outline>
		<contour>
			<point x="684.667" y="522.333" type="line" smooth="yes"/>
			<point x="702.333" y="605.667"/>
			<point x="720" y="611.667"/>
			<point x="779.333" y="614.667" type="curve"/>
			<point x="785.667" y="620"/>
			<point x="790" y="640"/>
			<point x="784.667" y="647" type="curve"/>
			<point x="740.667" y="646"/>
			<point x="708.667" y="645"/>
			<point x="662.667" y="645" type="curve" smooth="yes"/>
			<point x="655.667" y="645"/>
			<point x="648.667" y="645"/>
			<point x="642" y="645" type="curve" smooth="yes"/>
			<point x="585.333" y="645"/>
			<point x="541.333" y="646"/>
			<point x="495" y="647" type="curve"/>
			<point x="488.667" y="641.667"/>
			<point x="484.333" y="621.667"/>
			<point x="489.667" y="614.667" type="curve"/>
			<point x="547.667" y="612.667"/>
			<point x="571" y="607.333"/>
			<point x="571.667" y="570.667" type="curve"/>
			<point x="571.667" y="558.667"/>
			<point x="569.667" y="543"/>
			<point x="565" y="522.333" type="curve" smooth="yes"/>
			<point x="470.667" y="81" type="line" smooth="yes"/>
			<point x="433" y="-94.6667"/>
			<point x="408.667" y="-126"/>
			<point x="369.667" y="-127.333" type="curve"/>
			<point x="364.667" y="-127.667"/>
			<point x="359.667" y="-127"/>
			<point x="355.667" y="-125.667" type="curve"/>
			<point x="344" y="-123"/>
			<point x="335" y="-115.667"/>
			<point x="330" y="-106.333" type="curve" smooth="yes"/>
			<point x="322" y="-90.6667"/>
			<point x="319" y="-66.3333"/>
			<point x="282.667" y="-66.3333" type="curve" smooth="yes"/>
			<point x="267.333" y="-66.3333"/>
			<point x="229.667" y="-87.6667"/>
			<point x="221.667" y="-112.667" type="curve" smooth="yes"/>
			<point x="219.333" y="-119.667"/>
			<point x="219.333" y="-126.333"/>
			<point x="220.667" y="-133.333" type="curve" smooth="yes"/>
			<point x="226.667" y="-165.333"/>
			<point x="274" y="-182"/>
			<point x="296.333" y="-182" type="curve" smooth="yes"/>
			<point x="341" y="-182"/>
			<point x="381.667" y="-170.333"/>
			<point x="423.333" y="-143.333" type="curve"/>
			<point x="433" y="-137.667"/>
			<point x="442.667" y="-131"/>
			<point x="452.333" y="-123.667" type="curve" smooth="yes"/>
			<point x="500" y="-89"/>
			<point x="558.667" y="-38.3333"/>
			<point x="590.333" y="83.6667" type="curve"/>
			<point x="592" y="91.6667"/>
			<point x="594.667" y="100.667"/>
			<point x="596.333" y="109.333" type="curve" smooth="yes"/>
		</contour>
		<contour>
			<point x="211.667" y="538.333" type="curve" smooth="yes"/>
			<point x="129.667" y="118.333" type="line" smooth="yes"/>
			<point x="127.667" y="107.667"/>
			<point x="125.333" y="97.3333"/>
			<point x="122.667" y="88" type="curve" smooth="yes"/>
			<point x="112.667" y="52"/>
			<point x="96.3333" y="38.6667"/>
			<point x="65.3333" y="34" type="curve" smooth="yes"/>
			<point x="55.3333" y="32.3333"/>
			<point x="43.6667" y="31.3333"/>
			<point x="31.6667" y="30.3333" type="curve"/>
			<point x="23" y="25"/>
			<point x="19.6667" y="5"/>
			<point x="26.3333" y="-2" type="curve"/>
			<point x="64" y="-1"/>
			<point x="115.333" y="0"/>
			<point x="154.333" y="0" type="curve" smooth="yes"/>
			<point x="170" y="0" type="line" smooth="yes"/>
			<point x="206.667" y="0"/>
			<point x="266.667" y="-1"/>
			<point x="304.667" y="-2" type="curve"/>
			<point x="313" y="3.33333"/>
			<point x="316" y="24.6667"/>
			<point x="309.667" y="30.3333" type="curve"/>
			<point x="297.333" y="31.3333"/>
			<point x="286" y="32.3333"/>
			<point x="275.667" y="34" type="curve" smooth="yes"/>
			<point x="246.667" y="38.3333"/>
			<point x="235" y="51.3333"/>
			<point x="239.667" y="88" type="curve" smooth="yes"/>
			<point x="241.333" y="99.3333"/>
			<point x="243.333" y="111.667"/>
			<point x="245.667" y="124.333" type="curve" smooth="yes"/>
			<point x="324.333" y="526.667" type="line" smooth="yes"/>
			<point x="326.333" y="537.333"/>
			<point x="328.667" y="547.667"/>
			<point x="331.333" y="557" type="curve" smooth="yes"/>
			<point x="341.333" y="593"/>
			<point x="357.667" y="606.333"/>
			<point x="388.667" y="611" type="curve" smooth="yes"/>
			<point x="398.667" y="612.667"/>
			<point x="410.333" y="613.667"/>
			<point x="422.333" y="614.667" type="curve"/>
			<point x="431" y="620"/>
			<point x="434.333" y="640"/>
			<point x="427.667" y="647" type="curve"/>
			<point x="390" y="646"/>
			<point x="340" y="645"/>
			<point x="301" y="645" type="curve" smooth="yes"/>
			<point x="290.333" y="645" type="line" smooth="yes"/>
			<point x="252.333" y="645"/>
			<point x="189.333" y="646"/>
			<point x="149.333" y="647" type="curve"/>
			<point x="141" y="641.667"/>
			<point x="137.333" y="620.333"/>
			<point x="143.667" y="614.667" type="curve"/>
			<point x="160.667" y="613.667"/>
			<point x="174.667" y="612.667"/>
			<point x="186.333" y="608.333" type="curve"/>
			<point x="212" y="601.333"/>
			<point x="220.333" y="583"/>
		</contour>
	</outline>
</glyph>
<glyph name="Jcircumflex" format="2">
	<unicode hex="0134"/>
	<advance width="452"/>
	<outline>
		<contour>
			<point x="182.333" y="333" type="line"/>
			<point x="182.333" y="303" type="line"/>
			<point x="322" y="294" type="line"/>
			<point x="309" y="222.333"/>
			<point x="295.333" y="149.667"/>
			<point x="279" y="84" type="curve"/>
			<point x="249.333" y="-45.3333"/>
			<point x="207" y="-116"/>
			<point x="145.667" y="-126.667" type="curve"/>
			<point x="139.667" y="-120"/>
			<point x="133.333" y="-110.333"/>
			<point x="126.667" y="-100.333" type="curve" smooth="yes"/>
			<point x="115.667" y="-83.3333"/>
			<point x="98.3333" y="-69"/>
			<point x="73.3333" y="-67.6667" type="curve" smooth="yes"/>
			<point x="66.6667" y="-67.3333"/>
			<point x="60.3333" y="-67.6667"/>
			<point x="53.6667" y="-69.6667" type="curve" smooth="yes"/>
			<point x="31.6667" y="-75.6667"/>
			<point x="19.3333" y="-97.3333"/>
			<point x="19.3333" y="-116.667" type="curve" smooth="yes"/>
			<point x="19.3333" y="-162.333"/>
			<point x="71.6667" y="-184.667"/>
			<point x="114.333" y="-188" type="curve"/>
			<point x="119.333" y="-188.667"/>
			<point x="124" y="-188.667"/>
			<point x="128.333" y="-188.667" type="curve"/>
			<point x="258.333" y="-187"/>
			<point x="354" y="-89.6667"/>
			<point x="396.333" y="90.6667" type="curve"/>
			<point x="413" y="156"/>
			<point x="424" y="226.333"/>
			<point x="434.667" y="295" type="curve"/>
			<point x="486.333" y="300" type="line"/>
			<point x="492" y="334.333" type="line"/>
			<point x="469.667" y="336.667"/>
			<point x="453.333" y="338.667"/>
			<point x="442" y="347.333" type="curve"/>
			<point x="449.333" y="410"/>
			<point x="462.333" y="512.333"/>
			<point x="474" y="567.333" type="curve"/>
			<point x="506" y="584"/>
			<point x="533.667" y="609"/>
			<point x="533.667" y="636.333" type="curve" smooth="yes"/>
			<point x="533.667" y="654.667"/>
			<point x="518.667" y="669.667"/>
			<point x="499" y="675" type="curve"/>
			<point x="495" y="676.333"/>
			<point x="490.333" y="677.667"/>
			<point x="485.667" y="677.667" type="curve" smooth="yes"/>
			<point x="452.333" y="677.667"/>
			<point x="429.333" y="651.333"/>
			<point x="414" y="620.333" type="curve"/>
			<point x="366.333" y="637.667"/>
			<point x="314.667" y="663"/>
			<point x="264" y="663" type="curve" smooth="yes"/>
			<point x="177.667" y="663"/>
			<point x="106.333" y="614.667"/>
			<point x="106.333" y="544.667" type="curve" smooth="yes"/>
			<point x="106.333" y="516.667"/>
			<point x="119.667" y="495.333"/>
			<point x="144" y="489.333" type="curve"/>
			<point x="148" y="488"/>
			<point x="152.667" y="487.333"/>
			<point x="157.333" y="487.333" type="curve" smooth="yes"/>
			<point x="181" y="487.333"/>
			<point x="202.667" y="497.333"/>
			<point name=".hr01" x="208.667" y="517.667" type="curve"/>
			<point x="210.667" y="521"/>
			<point x="211.333" y="525"/>
			<point x="211.333" y="529" type="curve" smooth="yes"/>
			<point x="211.333" y="554.667"/>
			<point x="187.667" y="573.333"/>
			<point name=".hr02" x="174.333" y="582.667" type="curve"/>
			<point x="179" y="593.667"/>
			<point x="193.333" y="602"/>
			<point x="210" y="602" type="curve" smooth="yes"/>
			<point x="245" y="602"/>
			<point x="279" y="582"/>
			<point x="320" y="566" type="curve" smooth="yes"/>
			<point x="334" y="560.667"/>
			<point x="350" y="555.333"/>
			<point x="365" y="553.333" type="curve"/>
			<point x="372" y="552"/>
			<point x="378.333" y="551.667"/>
			<point x="384.333" y="551.667" type="curve"/>
			<point x="384.667" y="550.333" type="line"/>
			<point x="362.333" y="492.333"/>
			<point x="349" y="435.667"/>
			<point x="334.667" y="358" type="curve"/>
			<point x="330.667" y="339.333" type="line"/>
		</contour>
		<contour>
			<point x="513.333" y="719.667" type="curve"/>
			<point x="479.333" y="746"/>
			<point x="434.667" y="787.667"/>
			<point x="407" y="824.333" type="curve"/>
			<point x="382.667" y="821" type="line"/>
			<point x="343.333" y="786.333"/>
			<point x="292.667" y="747.667"/>
			<point x="247.667" y="720.333" type="curve"/>
			<point x="248" y="711.333"/>
			<point x="251" y="700.333"/>
			<point x="257.333" y="695.333" type="curve"/>
			<point x="297.333" y="708.333"/>
			<point x="349" y="729.667"/>
			<point x="385" y="753.333" type="curve"/>
			<point x="410.333" y="731"/>
			<point x="456.667" y="709.333"/>
			<point x="493.333" y="695.333" type="curve"/>
			<point x="502.333" y="700.333"/>
			<point x="510.333" y="710.667"/>
		</contour>
	</outline>
</glyph>
<glyph name="jcircumflex" format="2">
	<unicode hex="0135"/>
	<advance width="306"/>
	<outline>
		<contour>
			<point x="142.333" y="176" type="line" smooth="yes"/>
			<point x="122" y="78.3333"/>
			<point x="114" y="16"/>
			<point x="96" y="-56" type="curve" smooth="yes"/>
			<point x="74" y="-142"/>
			<point x="52" y="-168"/>
			<point x="30" y="-168" type="curve" smooth="yes"/>
			<point x="-3.66667" y="-168"/>
			<point x="6.66667" y="-105"/>
			<point x="-53.6667" y="-105" type="curve" smooth="yes"/>
			<point x="-70" y="-105"/>
			<point x="-89.3333" y="-118.333"/>
			<point x="-89.3333" y="-145.333" type="curve" smooth="yes"/>
			<point x="-89.3333" y="-187.333"/>
			<point x="-42.6667" y="-203.333"/>
			<point x="11.3333" y="-203.333" type="curve" smooth="yes"/>
			<point x="165.667" y="-203.333"/>
			<point x="210.667" y="-8.33333"/>
			<point x="262.333" y="234.667" type="curve"/>
			<point x="279" y="320" type="line" smooth="yes"/>
			<point x="287.333" y="360"/>
			<point x="299.667" y="399.333"/>
			<point x="299.667" y="415" type="curve" smooth="yes"/>
			<point x="299.667" y="429"/>
			<point x="291.667" y="436"/>
			<point x="278.667" y="436" type="curve" smooth="yes"/>
			<point x="246.667" y="436"/>
			<point x="169.667" y="429.333"/>
			<point x="122.667" y="423" type="curve"/>
			<point x="115.667" y="415"/>
			<point x="115.667" y="397.333"/>
			<point x="121.667" y="388.333" type="curve"/>
			<point x="161.667" y="385.333" type="line" smooth="yes"/>
			<point x="173.667" y="384.333"/>
			<point x="179.667" y="375.333"/>
			<point x="179.667" y="365.333" type="curve" smooth="yes"/>
			<point x="179.667" y="356.333"/>
			<point x="179" y="349"/>
			<point x="173" y="321" type="curve" smooth="yes"/>
		</contour>
		<contour>
			<point x="297.333" y="656.667" type="curve"/>
			<point x="246" y="656.667" type="line"/>
			<point x="208.667" y="609.333"/>
			<point x="162.333" y="565"/>
			<point x="119.667" y="524.333" type="curve"/>
			<point x="140" y="507" type="line"/>
			<point x="183.667" y="533.333"/>
			<point x="216" y="553.667"/>
			<point x="260.333" y="592.333" type="curve"/>
			<point x="289.333" y="555.667"/>
			<point x="316" y="534"/>
			<point x="353" y="507" type="curve"/>
			<point x="379.667" y="524.333" type="line"/>
			<point x="349.667" y="565"/>
			<point x="319" y="608.333"/>
		</contour>
	</outline>
</glyph>
<glyph name="uni0137" format="2">
	<unicode hex="0137"/>
	<advance width="535"/>
	<outline>
		<contour>
			<point x="201.667" y="72" type="curve" smooth="yes"/>
			<point x="237.667" y="235.333" type="line"/>
			<point x="243.667" y="237"/>
			<point x="249.333" y="237"/>
			<point x="254.333" y="237" type="curve" smooth="yes"/>
			<point x="262.333" y="237"/>
			<point x="269.333" y="230"/>
			<point x="274.333" y="221" type="curve" smooth="yes"/>
			<point x="292.333" y="189"/>
			<point x="299.333" y="138"/>
			<point x="319.333" y="93" type="curve" smooth="yes"/>
			<point x="351.333" y="23"/>
			<point x="376" y="-8.33333"/>
			<point x="415" y="-9.66667" type="curve"/>
			<point x="418.667" y="-10"/>
			<point x="422.667" y="-10"/>
			<point x="426.333" y="-10" type="curve"/>
			<point x="469" y="-7.33333"/>
			<point x="514" y="21"/>
			<point x="543.333" y="77" type="curve"/>
			<point x="536.333" y="85"/>
			<point x="527" y="92.6667"/>
			<point x="516" y="92.6667" type="curve"/>
			<point x="496" y="63.6667"/>
			<point x="475.667" y="48.6667"/>
			<point x="464.667" y="48.6667" type="curve" smooth="yes"/>
			<point x="446.333" y="48.6667"/>
			<point x="439.667" y="63.3333"/>
			<point x="432.667" y="82.6667" type="curve"/>
			<point x="432" y="84"/>
			<point x="431.333" y="85.3333"/>
			<point x="430.667" y="86.6667" type="curve"/>
			<point x="411" y="139"/>
			<point x="400.667" y="169"/>
			<point x="387.667" y="196.667" type="curve"/>
			<point x="383.333" y="204.333"/>
			<point x="380" y="211.667"/>
			<point x="375.667" y="218.667" type="curve" smooth="yes"/>
			<point x="361.667" y="241"/>
			<point x="349.667" y="255.667"/>
			<point x="322.667" y="262.667" type="curve"/>
			<point x="322" y="266.667" type="line"/>
			<point x="360" y="300.667" type="line" smooth="yes"/>
			<point x="368.333" y="308"/>
			<point x="376.333" y="314.667"/>
			<point x="384" y="321.333" type="curve" smooth="yes"/>
			<point x="415.667" y="348.333"/>
			<point x="438" y="356.667"/>
			<point x="456.667" y="356.667" type="curve" smooth="yes"/>
			<point x="468" y="356.667"/>
			<point x="474" y="352"/>
			<point x="480.333" y="345" type="curve"/>
			<point x="489" y="337"/>
			<point name=".hr01" x="501.333" y="324.667"/>
			<point x="519.333" y="324.667" type="curve" smooth="yes"/>
			<point x="544.667" y="324.667"/>
			<point x="567.333" y="353"/>
			<point x="570" y="383.333" type="curve" smooth="yes"/>
			<point x="570.333" y="387.333"/>
			<point x="570.667" y="391.667"/>
			<point x="570" y="395.333" type="curve"/>
			<point x="566.667" y="420.667"/>
			<point x="545.333" y="439"/>
			<point x="511" y="439" type="curve" smooth="yes"/>
			<point x="479" y="439"/>
			<point x="411.333" y="401"/>
			<point x="339.333" y="337" type="curve"/>
			<point x="302" y="305.333" type="line" smooth="yes"/>
			<point x="299" y="302.667"/>
			<point x="296.333" y="300.333"/>
			<point x="293.333" y="297.667" type="curve"/>
			<point x="279" y="286"/>
			<point x="262" y="274"/>
			<point x="245.667" y="272.667" type="curve"/>
			<point x="315" y="583" type="line" smooth="yes"/>
			<point x="323" y="619.333"/>
			<point x="331" y="649.667"/>
			<point x="332.333" y="668.333" type="curve" smooth="yes"/>
			<point x="333" y="678.667"/>
			<point x="332" y="685.333"/>
			<point x="329.333" y="688.667" type="curve"/>
			<point x="327.333" y="693"/>
			<point name=".hr02" x="324.333" y="695.333"/>
			<point name=".hr03" x="318.667" y="696.667" type="curve"/>
			<point x="316" y="697"/>
			<point x="311.667" y="697.333"/>
			<point x="306.667" y="697" type="curve"/>
			<point x="275.333" y="694"/>
			<point x="193" y="677.667"/>
			<point x="152" y="672" type="curve"/>
			<point x="149" y="664"/>
			<point x="147.333" y="656"/>
			<point x="147" y="648" type="curve"/>
			<point x="147" y="645"/>
			<point x="147" y="642.333"/>
			<point x="148" y="640" type="curve"/>
			<point x="152.333" y="640"/>
			<point x="156.667" y="639.667"/>
			<point x="160.667" y="639.667" type="curve"/>
			<point x="174.667" y="638.667"/>
			<point x="186.333" y="638"/>
			<point x="195" y="634.333" type="curve"/>
			<point x="204.667" y="631.667"/>
			<point x="210.667" y="625.667"/>
			<point x="211.333" y="611" type="curve"/>
			<point x="212.667" y="600"/>
			<point x="210.667" y="584.333"/>
			<point x="205.667" y="563" type="curve" smooth="yes"/>
			<point x="95.6667" y="72" type="line" smooth="yes"/>
			<point x="90.6667" y="49.3333"/>
			<point x="82.6667" y="27"/>
			<point x="82.6667" y="17" type="curve" smooth="yes"/>
			<point x="82.6667" y="3"/>
			<point x="90.3333" y="-7.33333"/>
			<point x="124.333" y="-9.33333" type="curve"/>
			<point x="129" y="-10"/>
			<point x="134.333" y="-10"/>
			<point x="140.333" y="-10" type="curve" smooth="yes"/>
			<point x="193.667" y="-10"/>
			<point x="193" y="33.6667"/>
		</contour>
		<contour>
			<point x="274.333" y="-42.6667" type="curve" smooth="yes"/>
			<point x="249.333" y="-42.6667"/>
			<point x="220.333" y="-63"/>
			<point x="217.333" y="-82.3333" type="curve" smooth="yes"/>
			<point x="213.333" y="-105.667"/>
			<point x="223.333" y="-119"/>
			<point x="242.333" y="-124" type="curve" smooth="yes"/>
			<point x="244.667" y="-124.667"/>
			<point x="246.667" y="-125.667"/>
			<point x="248.667" y="-126" type="curve" smooth="yes"/>
			<point x="259.667" y="-128"/>
			<point x="274" y="-131"/>
			<point x="272.333" y="-146.333" type="curve"/>
			<point x="272.333" y="-147.333"/>
			<point x="272.333" y="-148.333"/>
			<point x="272" y="-149.333" type="curve"/>
			<point x="269.333" y="-167.333"/>
			<point x="239.667" y="-191.333"/>
			<point x="195.333" y="-202.333" type="curve"/>
			<point x="190.667" y="-213.333"/>
			<point x="190" y="-223"/>
			<point x="197.667" y="-229" type="curve"/>
			<point x="262" y="-218.667"/>
			<point x="317" y="-183.333"/>
			<point x="329" y="-128" type="curve"/>
			<point x="329.333" y="-125.667"/>
			<point x="330" y="-122.333"/>
			<point x="330.333" y="-120" type="curve" smooth="yes"/>
			<point x="338.667" y="-62.6667"/>
			<point x="307.333" y="-42.6667"/>
		</contour>
	</outline>
</glyph>
<glyph name="kgreenlandic" format="2">
	<unicode hex="0138"/>
	<advance width="542"/>
	<outline>
		<contour>
			<point x="458" y="358.667" type="curve" smooth="yes"/>
			<point x="470.333" y="358.667"/>
			<point x="477" y="351.667"/>
			<point x="483.667" y="344.333" type="curve"/>
			<point x="492.667" y="336"/>
			<point name=".hr01" x="509" y="330.667"/>
			<point x="526" y="330.667" type="curve" smooth="yes"/>
			<point x="551" y="330.667"/>
			<point x="574.333" y="352.333"/>
			<point x="577.667" y="381" type="curve"/>
			<point x="578.667" y="387"/>
			<point x="578.667" y="393.333"/>
			<point x="577.333" y="400" type="curve" smooth="yes"/>
			<point x="572.667" y="423.333"/>
			<point x="551.333" y="439"/>
			<point x="519.667" y="439" type="curve" smooth="yes"/>
			<point x="475.667" y="439"/>
			<point x="418.333" y="405"/>
			<point x="354" y="337" type="curve" smooth="yes"/>
			<point x="305.333" y="286" type="line" smooth="yes"/>
			<point x="298.333" y="279"/>
			<point x="291.667" y="272.333"/>
			<point x="283.333" y="266.667" type="curve"/>
			<point x="271.333" y="257.333"/>
			<point x="259.333" y="249"/>
			<point x="243.667" y="248.333" type="curve"/>
			<point x="248.667" y="269.333"/>
			<point x="253.333" y="290"/>
			<point x="257.667" y="311" type="curve" smooth="yes"/>
			<point x="258.333" y="314" type="line" smooth="yes"/>
			<point x="267.333" y="355"/>
			<point x="279.333" y="398"/>
			<point x="279.333" y="415" type="curve" smooth="yes"/>
			<point x="279.333" y="429"/>
			<point name=".hr02" x="271.333" y="436"/>
			<point x="258.333" y="436" type="curve" smooth="yes"/>
			<point x="226.333" y="436"/>
			<point x="150.667" y="429"/>
			<point x="103.667" y="423" type="curve"/>
			<point x="96.6667" y="415"/>
			<point x="96.6667" y="397.333"/>
			<point x="102.667" y="388.333" type="curve"/>
			<point x="142.667" y="385.333" type="line" smooth="yes"/>
			<point x="154.667" y="384.333"/>
			<point x="160.667" y="375.333"/>
			<point x="160.667" y="365.333" type="curve" smooth="yes"/>
			<point x="160.667" y="356.333"/>
			<point x="159" y="345.333"/>
			<point x="153.667" y="321.333" type="curve" smooth="yes"/>
			<point x="99" y="72" type="line" smooth="yes"/>
			<point x="94.6667" y="52"/>
			<point x="86" y="27"/>
			<point x="86" y="17" type="curve" smooth="yes"/>
			<point x="86" y="2.33333"/>
			<point x="94.3333" y="-8"/>
			<point x="131" y="-9.33333" type="curve"/>
			<point x="136" y="-10"/>
			<point x="141.333" y="-10"/>
			<point x="146.667" y="-9.66667" type="curve" smooth="yes"/>
			<point x="193.667" y="-7.33333"/>
			<point x="196.333" y="30"/>
			<point x="203.667" y="65.3333" type="curve"/>
			<point x="204.667" y="68.3333"/>
			<point x="204.667" y="72"/>
			<point x="205.667" y="75.3333" type="curve"/>
			<point x="213.667" y="111.667"/>
			<point x="221.667" y="148"/>
			<point x="229.667" y="185" type="curve"/>
			<point x="234" y="195"/>
			<point x="235.667" y="204.333"/>
			<point x="241.333" y="211" type="curve"/>
			<point x="255" y="211"/>
			<point x="266.667" y="206.667"/>
			<point x="273.333" y="199" type="curve" smooth="yes"/>
			<point x="275.333" y="196.667"/>
			<point x="277" y="193.667"/>
			<point x="279" y="190.667" type="curve"/>
			<point x="297.333" y="159"/>
			<point x="304.667" y="132.667"/>
			<point x="324.333" y="92.3333" type="curve" smooth="yes"/>
			<point x="329.333" y="82.6667"/>
			<point x="333.667" y="73.3333"/>
			<point x="338.667" y="65" type="curve"/>
			<point x="365.667" y="13"/>
			<point x="383" y="-9"/>
			<point x="415" y="-10" type="curve"/>
			<point x="418" y="-10"/>
			<point x="420.667" y="-10"/>
			<point x="424.333" y="-10" type="curve"/>
			<point x="472" y="-8"/>
			<point x="518" y="19.3333"/>
			<point x="544.333" y="72" type="curve"/>
			<point x="537.333" y="80"/>
			<point x="527" y="88"/>
			<point x="516" y="88" type="curve"/>
			<point x="497.333" y="60.3333"/>
			<point x="476" y="46.6667"/>
			<point x="465" y="46.6667" type="curve" smooth="yes"/>
			<point x="449.667" y="46.6667"/>
			<point x="445" y="61"/>
			<point x="434" y="86.6667" type="curve" smooth="yes"/>
			<point x="419.667" y="122.333"/>
			<point x="397.667" y="175"/>
			<point x="382" y="199.333" type="curve"/>
			<point x="364" y="224.667"/>
			<point x="357" y="235.333"/>
			<point x="331" y="248" type="curve"/>
			<point x="330.333" y="250.667" type="line"/>
			<point x="379.333" y="302.667" type="line"/>
			<point x="385.667" y="309"/>
			<point x="390.667" y="315"/>
			<point x="396.333" y="320.667" type="curve" smooth="yes"/>
			<point x="426.667" y="352"/>
			<point name=".hr03" x="439.333" y="358.667"/>
		</contour>
	</outline>
</glyph>
<glyph name="uni013B" format="2">
	<unicode hex="013B"/>
	<advance width="541"/>
	<outline>
		<contour>
			<point x="342.667" y="41" type="curve" smooth="yes"/>
			<point x="273.333" y="41" type="line"/>
			<point x="267.333" y="41" type="line" smooth="yes"/>
			<point x="251.333" y="41"/>
			<point x="241.667" y="50.3333"/>
			<point x="239.667" y="70" type="curve"/>
			<point x="239" y="80"/>
			<point x="239.667" y="92.6667"/>
			<point x="243.333" y="110.333" type="curve" smooth="yes"/>
			<point x="324" y="525.667" type="line" smooth="yes"/>
			<point x="326.333" y="536.333"/>
			<point x="328.333" y="547.333"/>
			<point x="331.333" y="557" type="curve"/>
			<point x="341.333" y="593"/>
			<point x="357.667" y="606.333"/>
			<point x="388.667" y="611" type="curve" smooth="yes"/>
			<point x="398.667" y="612.667"/>
			<point x="410.333" y="613.667"/>
			<point x="422.333" y="614.667" type="curve"/>
			<point x="431" y="620"/>
			<point x="434.333" y="640"/>
			<point x="427.667" y="647" type="curve"/>
			<point x="362" y="646"/>
			<point x="332" y="645"/>
			<point x="296" y="645" type="curve" smooth="yes"/>
			<point x="290.667" y="645"/>
			<point x="285" y="645"/>
			<point x="279" y="645" type="curve" smooth="yes"/>
			<point x="235" y="645"/>
			<point x="164" y="646.667"/>
			<point x="149.333" y="647" type="curve"/>
			<point x="141" y="641.667"/>
			<point x="137.333" y="620.333"/>
			<point x="143.667" y="614.667" type="curve"/>
			<point x="157.333" y="613.667"/>
			<point x="170" y="612.667"/>
			<point x="180.333" y="610.333" type="curve"/>
			<point x="207.333" y="606"/>
			<point x="218.333" y="592.333"/>
			<point x="214.333" y="559" type="curve"/>
			<point x="213.667" y="548.667"/>
			<point x="211.333" y="538"/>
			<point x="209.333" y="525.667" type="curve"/>
			<point x="130" y="119.333" type="line" smooth="yes"/>
			<point x="126.667" y="101"/>
			<point x="122.333" y="86.3333"/>
			<point x="118.333" y="74" type="curve"/>
			<point x="108.667" y="48.6667"/>
			<point x="93.3333" y="38"/>
			<point x="65.6667" y="34" type="curve" smooth="yes"/>
			<point x="55.6667" y="32.3333"/>
			<point x="44" y="31.3333"/>
			<point x="32" y="30.3333" type="curve"/>
			<point x="23.3333" y="25"/>
			<point x="20" y="5"/>
			<point x="26.6667" y="-2" type="curve"/>
			<point x="41.6667" y="-1.66667"/>
			<point x="110.333" y="0"/>
			<point x="154" y="0" type="curve" smooth="yes"/>
			<point x="160.667" y="0"/>
			<point x="166" y="0"/>
			<point x="171.333" y="0" type="curve" smooth="yes"/>
			<point x="363" y="0" type="line"/>
			<point x="375.667" y="0" type="line" smooth="yes"/>
			<point x="403" y="0"/>
			<point x="490.333" y="-2"/>
			<point x="490.333" y="-2" type="curve"/>
			<point x="508" y="50"/>
			<point x="530" y="112.333"/>
			<point x="547.667" y="164.333" type="curve"/>
			<point x="540.333" y="169.667"/>
			<point x="523" y="172"/>
			<point x="511.667" y="170" type="curve"/>
			<point x="480.333" y="101.667"/>
			<point x="434.333" y="41"/>
		</contour>
		<contour>
			<point x="270.333" y="-49.6667" type="curve" smooth="yes"/>
			<point x="245.333" y="-49.6667"/>
			<point x="216.333" y="-70"/>
			<point x="213.333" y="-89.3333" type="curve" smooth="yes"/>
			<point x="209.333" y="-112.667"/>
			<point x="219.333" y="-126"/>
			<point x="238.333" y="-131" type="curve" smooth="yes"/>
			<point x="240.667" y="-131.667"/>
			<point x="242.667" y="-132.667"/>
			<point x="244.667" y="-133" type="curve" smooth="yes"/>
			<point x="255.667" y="-135"/>
			<point x="270" y="-138"/>
			<point x="268.333" y="-153.333" type="curve"/>
			<point x="268.333" y="-154.333"/>
			<point x="268.333" y="-155.333"/>
			<point x="268" y="-156.333" type="curve"/>
			<point x="265.333" y="-174.333"/>
			<point x="235.667" y="-198.333"/>
			<point x="191.333" y="-209.333" type="curve"/>
			<point x="186.667" y="-220.333"/>
			<point x="186" y="-230"/>
			<point x="193.667" y="-236" type="curve"/>
			<point x="258" y="-225.667"/>
			<point x="313" y="-190.333"/>
			<point x="325" y="-135" type="curve"/>
			<point x="325.333" y="-132.667"/>
			<point x="326" y="-129.333"/>
			<point x="326.333" y="-127" type="curve" smooth="yes"/>
			<point x="334.667" y="-69.6667"/>
			<point x="303.333" y="-49.6667"/>
		</contour>
	</outline>
</glyph>
<glyph name="Lcaron" format="2">
	<unicode hex="013D"/>
	<advance width="541"/>
	<outline>
		<contour>
			<point x="342.667" y="41" type="curve" smooth="yes"/>
			<point x="273.333" y="41" type="line"/>
			<point x="267.333" y="41" type="line" smooth="yes"/>
			<point x="251.333" y="41"/>
			<point x="241.667" y="50.3333"/>
			<point x="239.667" y="70" type="curve"/>
			<point x="239" y="80"/>
			<point x="239.667" y="92.6667"/>
			<point x="243.333" y="110.333" type="curve" smooth="yes"/>
			<point x="324" y="525.667" type="line" smooth="yes"/>
			<point x="326.333" y="536.333"/>
			<point x="328.333" y="547.333"/>
			<point x="331.333" y="557" type="curve"/>
			<point x="341.333" y="593"/>
			<point x="357.667" y="606.333"/>
			<point x="388.667" y="611" type="curve" smooth="yes"/>
			<point x="398.667" y="612.667"/>
			<point x="410.333" y="613.667"/>
			<point x="422.333" y="614.667" type="curve"/>
			<point x="431" y="620"/>
			<point x="434.333" y="640"/>
			<point x="427.667" y="647" type="curve"/>
			<point x="362" y="646"/>
			<point x="332" y="645"/>
			<point x="296" y="645" type="curve" smooth="yes"/>
			<point x="290.667" y="645"/>
			<point x="285" y="645"/>
			<point x="279" y="645" type="curve" smooth="yes"/>
			<point x="235" y="645"/>
			<point x="164" y="646.667"/>
			<point x="149.333" y="647" type="curve"/>
			<point x="141" y="641.667"/>
			<point x="137.333" y="620.333"/>
			<point x="143.667" y="614.667" type="curve"/>
			<point x="157.333" y="613.667"/>
			<point x="170" y="612.667"/>
			<point x="180.333" y="610.333" type="curve"/>
			<point x="207.333" y="606"/>
			<point x="218.333" y="592.333"/>
			<point x="214.333" y="559" type="curve"/>
			<point x="213.667" y="548.667"/>
			<point x="211.333" y="538"/>
			<point x="209.333" y="525.667" type="curve"/>
			<point x="130" y="119.333" type="line" smooth="yes"/>
			<point x="126.667" y="101"/>
			<point x="122.333" y="86.3333"/>
			<point x="118.333" y="74" type="curve"/>
			<point x="108.667" y="48.6667"/>
			<point x="93.3333" y="38"/>
			<point x="65.6667" y="34" type="curve" smooth="yes"/>
			<point x="55.6667" y="32.3333"/>
			<point x="44" y="31.3333"/>
			<point x="32" y="30.3333" type="curve"/>
			<point x="23.3333" y="25"/>
			<point x="20" y="5"/>
			<point x="26.6667" y="-2" type="curve"/>
			<point x="41.6667" y="-1.66667"/>
			<point x="110.333" y="0"/>
			<point x="154" y="0" type="curve" smooth="yes"/>
			<point x="160.667" y="0"/>
			<point x="166" y="0"/>
			<point x="171.333" y="0" type="curve" smooth="yes"/>
			<point x="363" y="0" type="line"/>
			<point x="375.667" y="0" type="line" smooth="yes"/>
			<point x="403" y="0"/>
			<point x="490.333" y="-2"/>
			<point x="490.333" y="-2" type="curve"/>
			<point x="508" y="50"/>
			<point x="530" y="112.333"/>
			<point x="547.667" y="164.333" type="curve"/>
			<point x="540.333" y="169.667"/>
			<point x="523" y="172"/>
			<point x="511.667" y="170" type="curve"/>
			<point x="480.333" y="101.667"/>
			<point x="434.333" y="41"/>
		</contour>
		<contour>
			<point x="546.333" y="698" type="curve" smooth="yes"/>
			<point x="516.333" y="698"/>
			<point x="498.333" y="680"/>
			<point x="495.333" y="664" type="curve"/>
			<point x="491.333" y="648"/>
			<point x="492.333" y="626"/>
			<point x="533.333" y="626" type="curve" smooth="yes"/>
			<point x="541.333" y="626"/>
			<point x="545.333" y="618"/>
			<point x="543.333" y="605" type="curve"/>
			<point x="538.333" y="582"/>
			<point x="510.333" y="545"/>
			<point x="466.333" y="536" type="curve"/>
			<point x="467.333" y="519" type="line"/>
			<point x="539.333" y="527"/>
			<point x="584.333" y="589"/>
			<point x="591.333" y="625" type="curve" smooth="yes"/>
			<point x="598.333" y="661"/>
			<point x="584.333" y="698"/>
		</contour>
	</outline>
</glyph>
<glyph name="Ldot" format="2">
	<unicode hex="013F"/>
	<advance width="541"/>
	<outline>
		<contour>
			<point x="342.667" y="41" type="curve" smooth="yes"/>
			<point x="273.333" y="41" type="line"/>
			<point x="267.333" y="41" type="line" smooth="yes"/>
			<point x="251.333" y="41"/>
			<point x="241.667" y="50.3333"/>
			<point x="239.667" y="70" type="curve"/>
			<point x="239" y="80"/>
			<point x="239.667" y="92.6667"/>
			<point x="243.333" y="110.333" type="curve" smooth="yes"/>
			<point x="324" y="525.667" type="line" smooth="yes"/>
			<point x="326.333" y="536.333"/>
			<point x="328.333" y="547.333"/>
			<point x="331.333" y="557" type="curve"/>
			<point x="341.333" y="593"/>
			<point x="357.667" y="606.333"/>
			<point x="388.667" y="611" type="curve" smooth="yes"/>
			<point x="398.667" y="612.667"/>
			<point x="410.333" y="613.667"/>
			<point x="422.333" y="614.667" type="curve"/>
			<point x="431" y="620"/>
			<point x="434.333" y="640"/>
			<point x="427.667" y="647" type="curve"/>
			<point x="362" y="646"/>
			<point x="332" y="645"/>
			<point x="296" y="645" type="curve" smooth="yes"/>
			<point x="290.667" y="645"/>
			<point x="285" y="645"/>
			<point x="279" y="645" type="curve" smooth="yes"/>
			<point x="235" y="645"/>
			<point x="164" y="646.667"/>
			<point x="149.333" y="647" type="curve"/>
			<point x="141" y="641.667"/>
			<point x="137.333" y="620.333"/>
			<point x="143.667" y="614.667" type="curve"/>
			<point x="157.333" y="613.667"/>
			<point x="170" y="612.667"/>
			<point x="180.333" y="610.333" type="curve"/>
			<point x="207.333" y="606"/>
			<point x="218.333" y="592.333"/>
			<point x="214.333" y="559" type="curve"/>
			<point x="213.667" y="548.667"/>
			<point x="211.333" y="538"/>
			<point x="209.333" y="525.667" type="curve"/>
			<point x="130" y="119.333" type="line" smooth="yes"/>
			<point x="126.667" y="101"/>
			<point x="122.333" y="86.3333"/>
			<point x="118.333" y="74" type="curve"/>
			<point x="108.667" y="48.6667"/>
			<point x="93.3333" y="38"/>
			<point x="65.6667" y="34" type="curve" smooth="yes"/>
			<point x="55.6667" y="32.3333"/>
			<point x="44" y="31.3333"/>
			<point x="32" y="30.3333" type="curve"/>
			<point x="23.3333" y="25"/>
			<point x="20" y="5"/>
			<point x="26.6667" y="-2" type="curve"/>
			<point x="41.6667" y="-1.66667"/>
			<point x="110.333" y="0"/>
			<point x="154" y="0" type="curve" smooth="yes"/>
			<point x="160.667" y="0"/>
			<point x="166" y="0"/>
			<point x="171.333" y="0" type="curve" smooth="yes"/>
			<point x="363" y="0" type="line"/>
			<point x="375.667" y="0" type="line" smooth="yes"/>
			<point x="403" y="0"/>
			<point x="490.333" y="-2"/>
			<point x="490.333" y="-2" type="curve"/>
			<point x="508" y="50"/>
			<point x="530" y="112.333"/>
			<point x="547.667" y="164.333" type="curve"/>
			<point x="540.333" y="169.667"/>
			<point x="523" y="172"/>
			<point x="511.667" y="170" type="curve"/>
			<point x="480.333" y="101.667"/>
			<point x="434.333" y="41"/>
		</contour>
		<contour>
			<point x="400" y="367" type="curve" smooth="yes"/>
			<point x="400" y="335.667"/>
			<point x="424.667" y="305"/>
			<point x="460.667" y="305" type="curve" smooth="yes"/>
			<point x="500" y="305"/>
			<point x="526" y="337.667"/>
			<point x="526" y="364.333" type="curve" smooth="yes"/>
			<point x="526" y="393.667"/>
			<point x="502" y="426.333"/>
			<point x="464.667" y="426.333" type="curve" smooth="yes"/>
			<point x="424" y="426.333"/>
			<point x="400" y="396.333"/>
		</contour>
	</outline>
</glyph>
